<svg width="1158" height="661" viewBox="0 0 1158 661" fill="none" xmlns="http://www.w3.org/2000/svg">
<g clip-path="url(#clip0_204_3508)">
<path d="M1156.99 0V111.425C1156.99 227.956 1062.59 322.417 946.127 322.417H549.25C515.699 322.422 483.523 335.762 459.801 359.503C436.079 383.243 422.752 415.439 422.752 449.01C422.752 565.541 328.326 660.003 211.865 660.003C95.4029 660.003 0.997559 565.541 0.997559 449.01" stroke="#A9E0FF" stroke-width="2" stroke-miterlimit="10"/>
<path d="M1142.94 0V111.425C1142.94 220.187 1054.82 308.346 946.126 308.346H549.249C530.79 308.346 512.512 311.984 495.459 319.054C478.405 326.124 462.911 336.486 449.861 349.548C436.811 362.611 426.46 378.118 419.401 395.184C412.341 412.25 408.711 430.54 408.718 449.01C408.718 557.773 320.611 645.941 211.914 645.941C103.216 645.941 15.0498 557.773 15.0498 449.01" stroke="#A9E0FF" stroke-width="2" stroke-miterlimit="10"/>
<path d="M1114.82 0V111.425C1114.82 133.591 1110.46 155.541 1101.98 176.019C1093.5 196.498 1081.08 215.106 1065.41 230.779C1049.75 246.453 1031.15 258.886 1010.68 267.367C990.216 275.849 968.279 280.214 946.126 280.213H549.249C527.096 280.213 505.16 284.579 484.693 293.062C464.226 301.545 445.63 313.979 429.965 329.653C414.301 345.327 401.876 363.936 393.399 384.415C384.922 404.894 380.56 426.844 380.561 449.01C380.561 493.778 362.788 536.713 331.151 568.368C299.514 600.024 256.605 617.808 211.864 617.808C167.122 617.808 124.213 600.024 92.5764 568.368C60.9395 536.713 43.166 493.778 43.166 449.01" stroke="#A9E0FF" stroke-width="2" stroke-miterlimit="10"/>
<path d="M1128.88 0V111.425C1128.88 159.922 1109.62 206.433 1075.35 240.726C1041.08 275.019 994.595 294.284 946.126 294.284H549.249C508.237 294.284 468.905 310.586 439.906 339.602C410.906 368.619 394.614 407.975 394.614 449.01C394.614 497.508 375.36 544.019 341.088 578.312C306.816 612.604 260.332 631.87 211.864 631.87C163.395 631.87 116.912 612.604 82.6393 578.312C48.3668 544.019 29.1128 497.508 29.1128 449.01V449.01" stroke="#A9E0FF" stroke-width="2" stroke-miterlimit="10"/>
<path d="M1100.76 0V111.425C1100.76 152.461 1084.47 191.816 1055.47 220.833C1026.47 249.85 987.138 266.151 946.126 266.151H549.249C500.78 266.151 454.297 285.417 420.025 319.709C385.752 354.002 366.498 400.513 366.498 449.01C366.498 490.046 350.206 529.402 321.207 558.419C292.207 587.435 252.875 603.737 211.864 603.737C170.852 603.737 131.52 587.435 102.52 558.419C73.5208 529.402 57.229 490.046 57.229 449.01" stroke="#A9E0FF" stroke-width="2" stroke-miterlimit="10"/>
<path d="M1086.71 0V111.425C1086.72 129.902 1083.09 148.199 1076.03 165.272C1068.97 182.345 1058.61 197.857 1045.56 210.924C1032.5 223.99 1017 234.354 999.939 241.423C982.878 248.491 964.592 252.126 946.126 252.12H549.249C440.551 252.12 352.445 340.288 352.445 449.05C352.445 486.357 337.634 522.136 311.27 548.515C284.906 574.895 249.148 589.715 211.864 589.715C174.579 589.715 138.822 574.895 112.458 548.515C86.0934 522.136 71.2822 486.357 71.2822 449.05" stroke="#A9E0FF" stroke-width="2" stroke-miterlimit="10"/>
<path d="M1072.65 0V111.425C1072.65 128.05 1069.38 144.513 1063.02 159.872C1056.66 175.232 1047.34 189.188 1035.59 200.943C1023.85 212.699 1009.9 222.023 994.546 228.385C979.195 234.746 962.742 238.02 946.127 238.018H549.249C432.788 238.018 338.382 332.48 338.382 449.011C338.382 482.585 325.053 514.785 301.326 538.526C277.599 562.266 245.419 575.604 211.864 575.604C178.309 575.604 146.129 562.266 122.402 538.526C98.6753 514.785 85.3457 482.585 85.3457 449.011" stroke="#A9E0FF" stroke-width="2" stroke-miterlimit="10"/>
<path d="M212.83 538.765C262.371 538.765 302.531 498.58 302.531 449.011C302.531 399.441 262.371 359.256 212.83 359.256C163.29 359.256 123.129 399.441 123.129 449.011C123.129 498.58 163.29 538.765 212.83 538.765Z" stroke="#A9E0FF" stroke-width="2" stroke-miterlimit="10"/>
<path d="M212.831 525.471C255.034 525.471 289.246 491.239 289.246 449.01C289.246 406.782 255.034 372.55 212.831 372.55C170.628 372.55 136.416 406.782 136.416 449.01C136.416 491.239 170.628 525.471 212.831 525.471Z" stroke="#A9E0FF" stroke-width="2" stroke-miterlimit="10"/>
<path d="M212.831 512.168C247.691 512.168 275.95 483.891 275.95 449.01C275.95 414.13 247.691 385.853 212.831 385.853C177.971 385.853 149.711 414.13 149.711 449.01C149.711 483.891 177.971 512.168 212.831 512.168Z" stroke="#A9E0FF" stroke-width="2" stroke-miterlimit="10"/>
<path d="M212.83 498.874C240.353 498.874 262.664 476.549 262.664 449.01C262.664 421.472 240.353 399.147 212.83 399.147C185.308 399.147 162.997 421.472 162.997 449.01C162.997 476.549 185.308 498.874 212.83 498.874Z" stroke="#A9E0FF" stroke-width="2" stroke-miterlimit="10"/>
</g>
<g clip-path="url(#clip1_204_3508)">
<path d="M246 171.19H356" stroke="#A9E0FF" stroke-width="2" stroke-miterlimit="10" stroke-linecap="round"/>
<path d="M246 171.19C246.205 168.421 247.45 165.831 249.484 163.942C251.519 162.052 254.193 161.002 256.97 161.002C259.747 161.002 262.421 162.052 264.456 163.942C266.49 165.831 267.735 168.421 267.94 171.19" stroke="#A9E0FF" stroke-width="2" stroke-miterlimit="10"/>
<path d="M264 162.77C265.097 160.092 266.985 157.814 269.414 156.24C271.842 154.666 274.693 153.872 277.585 153.965C280.477 154.057 283.272 155.032 285.595 156.757C287.917 158.483 289.657 160.878 290.58 163.62" stroke="#A9E0FF" stroke-width="2" stroke-miterlimit="10" stroke-linecap="round"/>
<path d="M391 190.42H293.6" stroke="#A9E0FF" stroke-width="2" stroke-miterlimit="10" stroke-linecap="round"/>
<path d="M391 190.41C391.121 191.924 390.928 193.446 390.431 194.881C389.935 196.316 389.147 197.633 388.117 198.749C387.087 199.864 385.838 200.755 384.447 201.363C383.056 201.972 381.554 202.287 380.035 202.287C378.517 202.287 377.015 201.972 375.624 201.363C374.233 200.755 372.983 199.864 371.953 198.749C370.923 197.633 370.135 196.316 369.639 194.881C369.143 193.446 368.949 191.924 369.07 190.41" stroke="#A9E0FF" stroke-width="2" stroke-miterlimit="10"/>
<path d="M373 198.82C371.907 201.499 370.02 203.78 367.593 205.355C365.166 206.931 362.315 207.727 359.423 207.635C356.531 207.544 353.736 206.57 351.414 204.844C349.091 203.118 347.352 200.723 346.43 197.98" stroke="#A9E0FF" stroke-width="2" stroke-miterlimit="10" stroke-linecap="round"/>
<path d="M298.64 151.22H369.04" stroke="#A9E0FF" stroke-width="2" stroke-miterlimit="10" stroke-linecap="round"/>
<path d="M298.65 151.22C298.855 148.451 300.1 145.861 302.134 143.972C304.169 142.082 306.843 141.032 309.62 141.032C312.397 141.032 315.071 142.082 317.106 143.972C319.14 145.861 320.385 148.451 320.59 151.22" stroke="#A9E0FF" stroke-width="2" stroke-miterlimit="10"/>
<path d="M316.65 142.81C317.745 140.132 319.634 137.853 322.061 136.278C324.489 134.703 327.34 133.909 330.232 134C333.124 134.091 335.919 135.065 338.242 136.789C340.565 138.514 342.306 140.908 343.23 143.65" stroke="#A9E0FF" stroke-width="2" stroke-miterlimit="10" stroke-linecap="round"/>
</g>
<defs>
<clipPath id="clip0_204_3508">
<rect width="1158" height="661" fill="white"/>
</clipPath>
<clipPath id="clip1_204_3508">
<rect width="147" height="75.64" fill="white" transform="translate(245 133)"/>
</clipPath>
</defs>
</svg>
