<svg width="195" height="183" viewBox="0 0 195 183" fill="none" xmlns="http://www.w3.org/2000/svg">
<g clip-path="url(#clip0_48_967)">
<g style="mix-blend-mode:multiply">
<path d="M92.1097 131.916C77.4343 133.592 63.1458 133.45 48.4053 133.421C41.2172 133.421 34.0258 133.441 26.8539 133.957C23.32 134.209 19.8641 134.694 16.3692 135.249C13.0401 135.773 8.18295 137.346 6.91503 132.988C6.40461 131.238 3.68672 130.673 2.78942 132.452C-0.175567 138.36 5.00016 144.814 10.6733 146.396C15.0428 147.617 19.7048 146.975 24.1685 146.842C28.6323 146.71 33.1318 146.697 37.615 146.842C56.1657 147.385 75.6722 149.698 93.8945 145.056C101.011 143.208 99.7952 131.041 92.1097 131.916Z" fill="#E0DFE6"/>
</g>
<g style="mix-blend-mode:multiply">
<path d="M194.33 123.02C192.562 119.209 189.311 115.998 186.68 112.717C183.946 109.299 181.241 105.862 178.413 102.522C173.738 96.999 169.03 91.5046 163.263 87.0633C157.164 82.3732 150.333 78.9106 143.451 75.519C139.494 73.5809 135.557 71.5686 131.575 69.6725C128.584 68.2481 125.641 66.5555 122.329 66.1711C122.219 66.1725 122.112 66.2022 122.018 66.2573C121.924 66.3125 121.846 66.3911 121.792 66.4854C121.737 66.5797 121.709 66.6865 121.709 66.7951C121.709 66.9037 121.738 67.0104 121.792 67.1046C125.554 72.5344 133.2 76.3685 138.532 80.1638C144.79 84.6213 151.504 88.7364 157.063 94.0532C162.323 99.0824 166.143 105.181 170.311 111.079C172.473 114.141 174.739 117.135 176.96 120.155C177.512 120.908 178.059 121.693 178.605 122.484C177.487 122.727 176.458 123.27 175.63 124.054C167.106 131.852 156.312 135.233 145.317 138.037C138.909 139.672 132.462 140.573 125.911 141.383C119.825 142.136 112.816 141.803 107.035 143.932C105.475 144.504 105.137 146.477 106.577 147.417C112.026 150.97 120.02 151.571 126.509 151.762C126.228 152.519 126.133 153.332 126.233 154.133C126.391 155.861 126.974 157.525 127.93 158.978C128.825 160.847 129.742 162.706 130.681 164.556C126.571 165.897 122.459 167.234 118.359 168.597C107.227 172.299 96.0207 175.858 85.4677 181.017C84.2583 181.608 85.1979 183.145 86.3098 182.997C103.502 180.661 120.352 175.567 137.231 171.659C142.726 170.367 151.793 169.272 151.861 161.814C151.913 156.323 146.354 152.77 141.195 151.006C143.984 150.651 146.754 150.202 149.478 149.691C162.271 147.295 174.853 141.616 184.437 132.814C185.043 132.268 185.536 131.61 185.887 130.876C191.011 133.98 197.035 128.851 194.33 123.02Z" fill="#E0DFE6"/>
</g>
<g style="mix-blend-mode:multiply">
<path d="M128.223 98.7369C127.953 98.0139 127.529 97.3573 126.981 96.8121C126.432 96.2669 125.771 95.8459 125.043 95.5779C121.964 92.2187 115.778 92.1702 114.019 97.9617C113.32 100.265 112.517 103.243 111.418 106.205C110.195 108.414 108.762 110.553 107.77 112.41C107.234 113.411 106.671 114.403 106.106 115.391C104.97 116.54 103.562 117.388 102.012 117.859C97.9389 119.032 93.1338 118.014 89.0081 117.614C84.1315 117.142 79.2061 116.926 74.3393 116.383C73.1396 116.25 73.1429 117.93 74.0759 118.321C80.4611 120.905 86.6609 123.925 93.0655 126.47C95.4916 127.482 98.0284 128.208 100.624 128.635C101.007 130.403 102.069 131.953 103.583 132.956C103.423 133.133 103.225 133.272 103.004 133.363C101.336 134.009 100.517 135.366 100.842 137.146C101.587 141.2 106.369 142.398 109.945 142.068C114.539 141.645 118.229 138.971 120.592 135.095C121.646 133.312 122.441 131.39 122.956 129.387C123.129 129.429 123.31 129.434 123.485 129.401C123.661 129.368 123.827 129.298 123.974 129.197C133.737 122.604 131.734 108.204 128.223 98.7369Z" fill="#E0DFE6"/>
</g>
<g style="mix-blend-mode:multiply">
<path d="M127.8 25.0492C127.455 24.5017 127.015 24.0193 126.5 23.6248C126.331 23.1435 126.155 22.6557 125.973 22.2261C125.561 21.2412 124.936 20.3579 124.144 19.6381C123.351 18.9183 122.41 18.3794 121.386 18.0593C121.916 15.5593 121.087 12.8363 118.034 10.9758C111.584 7.04156 104.252 3.41741 97.0578 1.0433C93.8393 -0.0193908 90.4419 -0.458698 87.1875 0.642758C86.5373 0.903318 85.9001 1.18327 85.2759 1.48259C84.2226 2.65618 83.9137 2.69602 84.3494 1.6021C82.4572 1.54396 80.4838 0.762281 78.5462 0.633078C75.786 0.436044 74.7067 4.00528 76.394 5.8012C78.3641 7.88783 81.4201 10.6754 84.1966 11.6638C87.0478 12.6748 89.252 10.8821 91.9699 11.273C93.6127 11.5308 95.2093 12.0237 96.71 12.7362L96.4369 12.8718C95.5624 13.3531 95.7867 14.6775 96.71 14.9455C97.7029 15.2136 98.6798 15.5371 99.636 15.9146C100.432 16.2376 101.167 16.6769 101.931 17.0548C102.206 17.2654 102.527 17.4091 102.868 17.4747C103.261 17.5364 103.661 17.5451 104.057 17.5005C105.979 19.0607 107.751 20.708 109.301 22.1938C110.295 23.1941 111.56 23.8854 112.943 24.1836C112.464 25.318 111.922 26.4245 111.317 27.4976C110.195 26.8839 108.807 26.984 107.647 27.5331C106.671 27.9983 106.489 28.6798 105.959 29.5197C105.924 29.7974 105.885 30.0785 105.849 30.3563C105.797 30.9377 105.807 30.8149 105.878 29.988C103.635 32.5365 99.5222 34.6878 96.4987 36.0379C93.3028 37.4656 89.8957 38.4508 86.5731 39.5361C85.0483 40.0336 83.5203 40.5342 81.9923 41.0219C81.017 41.345 80.0059 41.6389 79.0046 41.9135C77.7042 40.0852 75.4056 38.9773 73.0518 39.7235C66.0132 41.9458 61.673 47.7017 61.8389 55.0502C61.8649 56.2291 62.2973 57.3338 61.7511 58.2415C61.0131 59.4721 56.7964 60.7997 55.4732 61.4716C51.2793 63.6325 47.0432 65.6707 43.0866 68.2547C42.3811 68.7134 42.5664 70.0862 43.558 69.9828C47.8462 69.5435 52.0108 68.6326 56.2372 67.7734C59.9565 67.0144 64.3097 66.7398 67.8111 65.2508C70.8314 63.9587 72.6325 61.2778 73.0128 58.0768C73.1786 56.6297 73.0128 55.0566 73.2469 53.6742C73.2868 53.7065 73.3292 53.7357 73.3737 53.7614C78.9493 56.3454 85.7278 56.1581 91.661 54.9985C94.5507 54.3778 97.3571 53.4228 100.023 52.1528C103.297 50.6637 106.132 48.0829 109.415 46.7295C111.593 45.8315 113.317 46.7295 115.267 47.4369C113.967 52.7407 112.156 57.9992 109.464 62.7571C106.288 68.371 101.011 70.0022 95.299 72.2148C89.6649 74.3919 84.59 75.0379 78.6795 75.8713C77.7789 75.9972 77.7464 77.1342 78.1983 77.6801C82.4475 82.8482 90.8776 82.1117 96.801 81.2332C104.656 80.051 112.507 77.2473 117.67 70.9906C122.832 64.7339 125.797 56.6168 127.677 48.8258C128.625 44.6904 129.142 40.4691 129.221 36.2285C129.344 32.6044 129.741 28.2535 127.8 25.0492Z" fill="#E0DFE6"/>
</g>
<g style="mix-blend-mode:multiply">
<path d="M31.2104 71.6914C31.0468 68.9067 31.0262 66.1155 31.1486 63.3287C31.2364 60.7446 27.8163 60.16 26.5158 62.0819C23.1672 67.0368 19.1684 74.4111 21.9968 80.2414C23.5769 83.5038 28.6908 83.2421 30.3456 80.2414C31.9517 77.3279 31.425 74.8375 31.2104 71.6914Z" fill="#E0DFE6"/>
</g>
<g style="mix-blend-mode:multiply">
<path d="M41.2692 94.7284C38.1124 97.1218 34.8483 99.3926 31.8736 102.012C30.3461 103.32 28.9671 104.79 27.761 106.395C25.8363 109.018 25.4105 111.066 25.9307 114.286C26.5321 118.014 31.8053 119.865 34.7996 117.872C38.7171 115.262 39.1593 111.635 40.0533 107.355C40.8043 103.747 41.7992 100.249 43.5385 96.9862C44.2407 95.6586 42.6867 93.6398 41.2692 94.7284Z" fill="#E0DFE6"/>
</g>
<path d="M36.7567 77.877C36.5833 77.8776 36.4113 77.8458 36.2496 77.7834C29.5686 75.2542 26.3208 69.8341 26.3208 61.2163C26.3208 53.6773 32.1727 50.7347 37.8459 47.889C43.8441 44.8753 50.0407 41.7519 52.0824 33.3537C52.2579 32.6301 52.4432 31.4899 52.6611 30.172C54.1501 21.1666 57.632 0.0773926 75.8348 0.0773926C83.6374 0.0773926 87.8638 5.9529 90.9848 11.7057C91.0834 11.8696 91.1475 12.0516 91.1733 12.2408C91.1992 12.43 91.1862 12.6224 91.1352 12.8065C91.0842 12.9905 90.9963 13.1625 90.8767 13.3119C90.757 13.4613 90.6082 13.5851 90.4391 13.6758C90.2701 13.7666 90.0843 13.8224 89.8929 13.8399C89.7016 13.8574 89.5086 13.8363 89.3257 13.7777C89.1428 13.7192 88.9737 13.6245 88.8287 13.4993C88.6836 13.3742 88.5655 13.2211 88.4815 13.0494C85.6205 7.78437 82.1094 2.91341 75.8348 2.91341C60.0475 2.91341 56.9557 21.6479 55.47 30.6372C55.2359 32.0681 55.0474 33.1986 54.849 34.0223C52.5018 43.7125 45.3981 47.2656 39.1333 50.4278C33.5642 53.2251 29.1687 55.4345 29.1687 61.2324C29.1687 68.639 31.7403 73.0642 37.2639 75.1573C37.5744 75.2755 37.8335 75.498 37.9962 75.7861C38.1589 76.0742 38.215 76.4098 38.1548 76.7347C38.0946 77.0596 37.9218 77.3533 37.6665 77.5649C37.4111 77.7765 37.0893 77.8926 36.7567 77.8932V77.877Z" fill="#0005A5"/>
<path d="M74.3621 56.0255C71.3058 56.0709 68.2673 55.5562 65.3988 54.5074C65.1169 54.3984 64.8772 54.2033 64.7141 53.9502C64.5511 53.6971 64.4733 53.399 64.4918 53.0991C65.2948 40.5212 76.0298 22.5361 83.6406 21.0244C83.8255 20.9844 84.0165 20.9813 84.2025 21.0154C84.3886 21.0496 84.5659 21.1202 84.7241 21.2231C84.8824 21.3261 85.0185 21.4594 85.1243 21.6152C85.2301 21.771 85.3036 21.9461 85.3406 22.1305C85.3775 22.3148 85.3771 22.5046 85.3394 22.6888C85.3017 22.873 85.2274 23.0479 85.1209 23.2032C85.0144 23.3585 84.8778 23.4912 84.7191 23.5935C84.5604 23.6958 84.3828 23.7657 84.1966 23.799C79.0339 24.8262 68.7344 39.5747 67.421 52.2237C69.671 52.8984 72.0121 53.2253 74.3621 53.1927C90.3541 53.1927 100.221 44.4715 105.524 39.7718L105.803 39.5231C106.028 39.3235 106.311 39.2003 106.611 39.1712C106.91 39.1422 107.212 39.2089 107.471 39.3616C107.812 39.5618 108.121 39.733 108.446 39.901C110.677 41.109 112.475 42.0813 117.709 49.1002L118.157 48.2023C119.812 44.8947 121.877 40.7731 121.877 34.959C121.877 23.4954 116.399 19.0282 102.344 19.0282C97.604 19.0282 89.2975 20.3848 88.0394 21.5864C87.9761 21.9339 87.7844 22.2452 87.5019 22.4594C87.2193 22.6735 86.8664 22.7749 86.5125 22.7438C86.1585 22.7126 85.829 22.5511 85.5888 22.2909C85.3486 22.0308 85.215 21.6908 85.2142 21.3377C85.2142 16.583 102.159 16.2019 102.331 16.2019C122.163 16.2019 124.712 26.2151 124.712 34.959C124.712 41.4191 122.481 45.8766 120.693 49.4491C120.163 50.5021 119.666 51.497 119.305 52.4014C119.211 52.6375 119.054 52.8441 118.852 52.9994C118.65 53.1548 118.409 53.2531 118.155 53.2842C117.902 53.3152 117.644 53.2778 117.41 53.1759C117.176 53.074 116.974 52.9114 116.824 52.705C110.836 44.4102 109.175 43.5122 107.071 42.3688L106.925 42.2912C101.245 47.3366 90.9621 56.0255 74.3621 56.0255Z" fill="#0005A5"/>
<path d="M75.3439 28.5699C75.0665 28.5677 74.7958 28.4853 74.5649 28.3327C74.3339 28.1801 74.1527 27.964 74.0435 27.7107C73.5453 26.4947 73.3073 25.189 73.3445 23.8766C73.3445 23.0109 73.416 22.1614 73.4842 21.341C73.5493 20.5819 73.611 19.8648 73.611 19.193C73.611 13.9377 93.163 10.0874 94.0441 10.0874C97.0936 10.0874 99.9773 13.2981 99.9773 16.6961C99.9773 17.0714 99.8273 17.4312 99.5603 17.6965C99.2932 17.9619 98.931 18.1109 98.5533 18.1109C98.1757 18.1109 97.8135 17.9619 97.5465 17.6965C97.2794 17.4312 97.1294 17.0714 97.1294 16.6961C97.1294 14.5384 95.2567 12.9137 94.0441 12.9137C91.6123 12.9816 77.2067 17.1128 76.4492 19.2673C76.4492 19.9844 76.3875 20.7951 76.3225 21.5768C76.2574 22.3585 76.1892 23.1305 76.1892 23.8766C76.1557 24.8058 76.3162 25.7318 76.6606 26.5963C76.7526 26.811 76.7899 27.0449 76.7691 27.2773C76.7483 27.5097 76.6702 27.7334 76.5416 27.9286C76.4129 28.1238 76.2378 28.2845 76.0317 28.3964C75.8256 28.5082 75.5949 28.5678 75.3601 28.5699H75.3439Z" fill="#0005A5"/>
<path d="M89.9867 79.4177C78.0748 79.4177 73.6435 73.8394 73.6435 58.8324C73.6435 57.4887 73.6923 56.0772 73.7898 54.5171C73.7971 54.3284 73.8422 54.1432 73.9226 53.9721C74.0029 53.8011 74.117 53.6478 74.2579 53.5212C74.3988 53.3947 74.5638 53.2974 74.7432 53.2351C74.9225 53.1729 75.1126 53.1469 75.3022 53.1588C75.4918 53.1706 75.6771 53.2201 75.8472 53.3042C76.0173 53.3882 76.1687 53.5053 76.2926 53.6484C76.4164 53.7916 76.5102 53.9579 76.5684 54.1376C76.6266 54.3173 76.6479 54.5067 76.6313 54.6947C76.537 56.1935 76.4915 57.5469 76.4915 58.8324C76.4915 73.8426 81.043 76.5979 89.9867 76.5979C103.619 76.5979 114.37 63.2415 115.872 50.7573C115.884 50.5654 115.935 50.378 116.022 50.2064C116.109 50.0347 116.23 49.8825 116.378 49.7591C116.527 49.6356 116.699 49.5434 116.884 49.4882C117.069 49.4329 117.264 49.4158 117.456 49.4377C117.648 49.4597 117.834 49.5204 118.002 49.616C118.169 49.7116 118.316 49.8402 118.432 49.9939C118.548 50.1476 118.632 50.3232 118.677 50.5099C118.723 50.6967 118.729 50.8908 118.697 51.0803C117.059 64.7726 105.13 79.4177 89.9867 79.4177Z" fill="#0005A5"/>
<path d="M99.4669 75.9487C99.1635 75.9463 98.8688 75.8476 98.6258 75.6671C98.3828 75.4865 98.2042 75.2336 98.116 74.9452C98.0278 74.6567 98.0346 74.3478 98.1355 74.0635C98.2364 73.7792 98.4261 73.5343 98.6769 73.3646C99.132 73.0642 99.2068 72.9027 99.2068 72.8995C99.0712 72.5329 98.898 72.1811 98.6899 71.8497C98.108 70.8161 97.3114 69.4013 97.3114 67.4148C97.2876 65.6425 97.9258 63.9243 99.1028 62.5923C99.227 62.451 99.3782 62.3356 99.5477 62.2529C99.7172 62.1702 99.9015 62.1217 100.09 62.1105C100.278 62.0992 100.467 62.1253 100.646 62.1872C100.824 62.2491 100.988 62.3457 101.128 62.4712C101.269 62.5967 101.382 62.7487 101.463 62.9183C101.544 63.088 101.59 63.2718 101.598 63.4592C101.607 63.6467 101.577 63.8339 101.512 64.01C101.447 64.1861 101.348 64.3477 101.219 64.4852C100.514 65.2981 100.136 66.3417 100.159 67.4148C100.159 68.6649 100.676 69.5822 101.177 70.4737C101.886 71.7367 103.076 73.8524 100.257 75.7194C100.022 75.8718 99.7473 75.9516 99.4669 75.9487Z" fill="#0005A5"/>
<path d="M14.4771 143.767C-1.06911e-05 143.767 1.90735e-05 140.453 1.90735e-05 139.365C0.269859 120.071 7.60431 101.802 20.6477 87.8838C34.4388 73.1708 53.2853 64.3656 75.1651 62.4275C75.3547 62.4041 75.5472 62.4189 75.731 62.4709C75.9148 62.523 76.0862 62.6113 76.2349 62.7305C76.3837 62.8498 76.5067 62.9976 76.5967 63.1651C76.6868 63.3326 76.7419 63.5163 76.7589 63.7055C76.776 63.8946 76.7545 64.0852 76.6958 64.2659C76.6372 64.4466 76.5425 64.6138 76.4174 64.7573C76.2923 64.9009 76.1394 65.018 75.9678 65.1017C75.7963 65.1853 75.6095 65.2338 75.4187 65.2442C54.2639 67.1176 36.048 75.6095 22.7511 89.7928C10.1787 103.256 3.09195 120.881 2.86746 139.245C3.5827 140.062 8.14722 140.922 14.4966 140.922L15.758 140.828C38.6717 139.119 53.1812 138.761 61.3187 138.761C76.4688 138.761 92.2885 139.714 96.7783 140.008H96.9343L98.2347 139.988C98.4428 139.342 98.6606 138.696 98.885 138.05C99.5352 136.112 100.218 134.113 100.218 132.908C100.218 129.132 96.5149 128.341 93.4102 128.341H92.048C89.2228 128.341 86.4593 128.208 83.7544 126.616C66.8098 116.638 65.6166 116.648 50.8697 116.683C46.5913 116.683 41.266 116.709 34.1331 116.496C33.756 116.484 33.399 116.324 33.1405 116.051C32.8821 115.778 32.7433 115.414 32.7547 115.039C32.7723 114.667 32.9346 114.315 33.2075 114.059C33.4803 113.803 33.8424 113.663 34.2177 113.666C41.3018 113.879 46.6043 113.863 50.8632 113.854C65.9938 113.815 67.5868 113.805 85.2077 124.19C87.2949 125.421 89.5414 125.521 92.0349 125.521H93.3971C95.6729 125.521 103.05 126.054 103.05 132.918C103.05 134.584 102.331 136.71 101.574 138.961C101.249 139.891 100.923 140.844 100.66 141.784C100.575 142.072 100.4 142.326 100.16 142.508C99.9208 142.691 99.6291 142.794 99.3271 142.802H99.2231C98.4266 142.821 97.6301 142.84 96.8368 142.84H96.5702C92.1032 142.55 76.3582 141.603 61.2959 141.603C53.2072 141.603 38.7724 141.959 15.9498 143.661C15.0525 143.735 14.5356 143.767 14.4771 143.767Z" fill="#0005A5"/>
<path d="M91.3392 128.37C91.0492 128.369 90.7663 128.28 90.5281 128.116C90.29 127.951 90.108 127.719 90.0062 127.449C87.2103 119.988 82.4832 113.385 77.9122 106.999C75.6657 103.86 73.3607 100.617 71.2605 97.2898C71.0765 96.972 71.0239 96.5957 71.1137 96.2402C71.2035 95.8846 71.4287 95.5776 71.7418 95.3837C72.0549 95.1899 72.4316 95.1243 72.7924 95.2009C73.1532 95.2775 73.47 95.4902 73.6761 95.7943C75.7145 99.0469 78.0097 102.254 80.2302 105.359C84.9085 111.893 89.7461 118.65 92.6754 126.461C92.8068 126.812 92.7922 127.201 92.635 127.542C92.4777 127.883 92.1905 128.148 91.8366 128.279C91.6777 128.339 91.5091 128.37 91.3392 128.37Z" fill="#0005A5"/>
<path d="M34.6598 116.266C34.4243 116.265 34.1927 116.206 33.9857 116.094C33.7788 115.983 33.6031 115.821 33.4742 115.626C33.3453 115.43 33.2674 115.205 33.2473 114.972C33.2273 114.739 33.2658 114.504 33.3594 114.29C36.7535 106.515 39.8323 100.113 43.8311 94.1532C44.0473 93.8575 44.3704 93.6563 44.7325 93.5919C45.0947 93.5276 45.4679 93.605 45.7739 93.808C46.0799 94.0109 46.295 94.3237 46.374 94.6807C46.4531 95.0377 46.3899 95.4113 46.1979 95.7231C42.3161 101.508 39.3023 107.778 35.9732 115.427C35.8601 115.678 35.6757 115.892 35.4424 116.041C35.2092 116.19 34.9372 116.268 34.6598 116.266Z" fill="#0005A5"/>
<path d="M35.3165 115.84C35.0654 115.841 34.8187 115.775 34.6016 115.649C34.3846 115.524 34.2049 115.343 34.0811 115.126C31.1064 109.958 24.0938 109.183 20.1795 109.183C15.9607 109.213 11.8029 110.185 8.01388 112.029C7.6757 112.181 7.291 112.196 6.9418 112.071C6.5926 111.945 6.30652 111.689 6.14455 111.357C5.98257 111.025 5.95753 110.644 6.07474 110.294C6.19195 109.944 6.44214 109.653 6.77199 109.483C10.9485 107.455 15.5308 106.386 20.1795 106.357C24.7115 106.357 32.8587 107.326 36.5519 113.725C36.6754 113.94 36.7399 114.183 36.739 114.431C36.738 114.678 36.6717 114.921 36.5467 115.135C36.4216 115.35 36.2422 115.527 36.0263 115.651C35.8105 115.775 35.5657 115.84 35.3165 115.84Z" fill="#0005A5"/>
<path d="M141.884 115.54C141.614 115.54 141.35 115.464 141.123 115.32C140.807 115.12 140.583 114.804 140.501 114.441C140.418 114.078 140.483 113.698 140.681 113.382C145.232 106.24 151.913 99.9675 160.529 94.738C160.85 94.5537 161.232 94.5016 161.591 94.5926C161.951 94.6836 162.261 94.9106 162.455 95.2253C162.648 95.5399 162.711 95.9173 162.629 96.277C162.546 96.6367 162.326 96.9503 162.014 97.1509C153.773 102.154 147.407 108.133 143.087 114.897C142.956 115.095 142.777 115.258 142.567 115.37C142.357 115.482 142.122 115.541 141.884 115.54Z" fill="#0005A5"/>
<path d="M121.152 149.594C111.161 149.594 105.394 147.928 102.315 146.532C102.074 146.422 101.869 146.247 101.723 146.027C101.577 145.808 101.495 145.552 101.487 145.288C101.479 145.025 101.545 144.765 101.677 144.537C101.81 144.309 102.003 144.122 102.237 143.997C104.587 142.75 107.634 140.57 110.579 138.46C111.802 137.588 113.001 136.729 114.12 135.96C115.425 135.109 116.797 134.364 118.222 133.732C118.538 130.972 118.674 128.195 118.632 125.417C118.632 120.411 118.632 114.183 121.659 96.6955C121.704 96.4399 121.819 96.2016 121.991 96.0065C122.164 95.8114 122.386 95.667 122.636 95.589C122.885 95.5111 123.151 95.5026 123.404 95.5644C123.658 95.6262 123.89 95.756 124.074 95.9396C140.502 112.439 148.337 117.342 154.635 121.28L156.179 122.249C156.413 122.398 156.599 122.611 156.712 122.864C156.825 123.116 156.862 123.396 156.817 123.669C156.772 123.942 156.648 124.196 156.459 124.399C156.271 124.602 156.026 124.746 155.756 124.813C142.97 127.943 128.187 132.394 120.15 135.96L120.098 135.983C118.582 136.623 117.125 137.393 115.742 138.283C114.636 139.042 113.466 139.898 112.247 140.754C110.202 142.217 108.108 143.716 106.187 144.953C109.168 145.854 113.964 146.768 121.142 146.768C155.629 146.768 170.718 139.565 184.346 131.538C184.605 131.386 184.83 131.183 185.008 130.942C185.186 130.702 185.314 130.428 185.384 130.137C185.454 129.846 185.464 129.545 185.414 129.25C185.364 128.955 185.255 128.673 185.094 128.421C176.921 115.653 147.453 73.4712 111.35 66.8399C110.988 66.7617 110.672 66.5469 110.467 66.241C110.262 65.935 110.185 65.5619 110.252 65.2006C110.319 64.8392 110.525 64.5181 110.827 64.305C111.128 64.0919 111.501 64.0036 111.867 64.0588C149.104 70.9001 179.164 113.892 187.497 126.906C187.863 127.478 188.109 128.117 188.222 128.785C188.335 129.453 188.311 130.137 188.153 130.796C187.994 131.455 187.704 132.076 187.299 132.621C186.894 133.167 186.383 133.625 185.796 133.971C169.004 143.864 153.038 149.594 121.152 149.594ZM124.009 99.8803C121.496 115.062 121.486 120.553 121.477 125.421C121.477 127.601 121.477 129.684 121.22 132.44C129.153 129.209 141.113 125.618 151.845 122.878C145.889 119.128 138.308 114.031 124.009 99.8965V99.8803Z" fill="#0005A5"/>
<path d="M82.2297 182.845C81.9098 182.844 81.5994 182.737 81.3482 182.54C81.0971 182.343 80.9197 182.068 80.8447 181.759L80.7895 181.53C80.5716 180.61 80.3473 179.689 80.0937 178.765C77.2523 168.41 68.9035 148.761 65.4443 140.796C65.3484 140.623 65.2898 140.433 65.2723 140.236C65.2549 140.04 65.2789 139.842 65.3429 139.655C65.4069 139.469 65.5095 139.297 65.644 139.152C65.7786 139.007 65.9421 138.892 66.1241 138.814C66.3062 138.735 66.5027 138.695 66.7012 138.697C66.8996 138.698 67.0955 138.741 67.2764 138.822C67.4573 138.903 67.6191 139.021 67.7515 139.168C67.8839 139.315 67.9839 139.487 68.0452 139.675C71.5271 147.695 79.9376 167.492 82.8279 178.019C82.9839 178.581 83.1237 179.143 83.2635 179.702C107.903 173.406 128.177 168.684 141.435 165.706C139.524 162.25 137.534 158.387 135.609 154.633C134.533 152.54 133.467 150.466 132.426 148.496C132.269 148.166 132.247 147.787 132.364 147.441C132.481 147.094 132.728 146.806 133.055 146.637C133.381 146.468 133.761 146.431 134.114 146.533C134.467 146.636 134.766 146.871 134.949 147.188C135.993 149.178 137.066 151.258 138.145 153.361C140.375 157.699 142.697 162.188 144.842 165.987C144.952 166.179 145.014 166.394 145.025 166.615C145.036 166.835 144.995 167.055 144.905 167.257C144.815 167.459 144.678 167.637 144.507 167.777C144.335 167.917 144.133 168.015 143.916 168.064C130.518 171.055 108.999 176.042 82.571 182.812C82.4589 182.837 82.3443 182.848 82.2297 182.845Z" fill="#0005A5"/>
<path d="M100.068 140.402C99.6907 140.406 99.3266 140.262 99.0562 140C98.7858 139.738 98.6312 139.38 98.6265 139.005C98.6218 138.629 98.7672 138.268 99.0309 137.999C99.2946 137.73 99.6549 137.577 100.033 137.572C103.154 137.498 106.271 137.462 109.386 137.427L112.517 137.391C112.704 137.387 112.891 137.42 113.065 137.488C113.24 137.556 113.399 137.658 113.533 137.788C113.668 137.918 113.775 138.073 113.848 138.245C113.921 138.416 113.959 138.6 113.96 138.787C113.965 139.162 113.819 139.523 113.556 139.792C113.293 140.061 112.933 140.215 112.556 140.221L109.418 140.256C106.314 140.292 103.209 140.327 100.068 140.402Z" fill="#0005A5"/>
<path d="M90.2371 156.878C89.8937 156.881 89.5609 156.76 89.3004 156.537C89.0399 156.315 88.8693 156.006 88.8201 155.669C88.7709 155.331 88.8465 154.987 89.0329 154.701C89.2193 154.414 89.5039 154.204 89.8339 154.11C92.2853 153.386 94.8276 152.834 97.2854 152.301C101.099 151.471 105.043 150.615 108.606 149.12C108.779 149.038 108.968 148.991 109.16 148.984C109.352 148.976 109.544 149.007 109.723 149.075C109.903 149.143 110.067 149.246 110.205 149.379C110.344 149.511 110.454 149.67 110.529 149.846C110.604 150.022 110.642 150.211 110.641 150.402C110.641 150.593 110.601 150.782 110.525 150.957C110.449 151.133 110.338 151.291 110.198 151.422C110.059 151.554 109.894 151.656 109.714 151.723C105.907 153.338 101.834 154.207 97.8934 155.063C95.4843 155.586 92.9972 156.129 90.6402 156.82C90.5093 156.858 90.3735 156.878 90.2371 156.878Z" fill="#00F0FF"/>
<path d="M89.7722 167.654C89.4125 167.658 89.0645 167.527 88.7985 167.286C88.5325 167.046 88.3683 166.714 88.339 166.357C88.3097 166.001 88.4175 165.647 88.6406 165.367C88.8638 165.086 89.1857 164.901 89.5413 164.847C95.7964 163.81 101.947 161.94 107.9 160.099C111.077 159.13 114.363 158.115 117.653 157.237C118.019 157.138 118.409 157.187 118.738 157.374C119.067 157.561 119.308 157.87 119.407 158.233C119.507 158.597 119.457 158.984 119.269 159.311C119.081 159.638 118.77 159.877 118.404 159.976C115.153 160.838 111.902 161.84 108.752 162.806C102.712 164.66 96.4629 166.575 90.0225 167.651C89.9393 167.659 89.8556 167.66 89.7722 167.654Z" fill="#00F0FF"/>
<path d="M123.606 159.233C123.306 159.234 123.006 159.203 122.712 159.143C122.523 159.113 122.341 159.045 122.179 158.943C122.016 158.842 121.876 158.709 121.767 158.552C121.657 158.396 121.581 158.219 121.542 158.032C121.503 157.845 121.502 157.653 121.54 157.466C121.578 157.279 121.654 157.102 121.763 156.944C121.871 156.787 122.011 156.654 122.173 156.551C122.335 156.449 122.516 156.38 122.705 156.349C122.894 156.319 123.088 156.326 123.275 156.371C123.964 156.507 124.575 156.19 125.355 155.806C125.523 155.716 125.707 155.661 125.897 155.644C126.086 155.626 126.278 155.647 126.459 155.704C126.641 155.761 126.809 155.854 126.954 155.977C127.098 156.099 127.217 156.25 127.302 156.419C127.387 156.588 127.438 156.773 127.45 156.961C127.462 157.15 127.436 157.34 127.373 157.518C127.311 157.697 127.213 157.861 127.085 158.002C126.957 158.142 126.802 158.255 126.63 158.335C125.797 158.755 124.835 159.233 123.606 159.233Z" fill="#00F0FF"/>
<path d="M45.1803 116.715C44.8077 116.716 44.4498 116.571 44.1836 116.311C43.9174 116.052 43.764 115.7 43.7564 115.33C43.5938 107.713 42.9631 97.5288 42.9566 97.4287C42.921 96.5098 43.1083 95.5958 43.5028 94.7639C43.6713 94.4281 43.9673 94.1726 44.3255 94.0535C44.6836 93.9345 45.0748 93.9617 45.4128 94.1292C45.7508 94.2967 46.008 94.5907 46.1278 94.9466C46.2476 95.3025 46.2202 95.6911 46.0516 96.0269C45.8655 96.4395 45.7798 96.8899 45.8013 97.3415C45.8013 97.3415 46.4515 107.597 46.6043 115.272C46.6073 115.46 46.5728 115.646 46.5026 115.821C46.4325 115.996 46.3282 116.155 46.1957 116.289C46.0633 116.423 45.9054 116.53 45.7311 116.603C45.5568 116.677 45.3696 116.715 45.1803 116.715Z" fill="#0005A5"/>
</g>
<defs>
<clipPath id="clip0_48_967">
<rect width="195" height="183" fill="white"/>
</clipPath>
</defs>
</svg>
