<svg width="294" height="212" viewBox="0 0 294 212" fill="none" xmlns="http://www.w3.org/2000/svg">
<g clip-path="url(#clip0_75_1610)">
<path d="M39.7409 173.754C37.1557 174.231 35.2501 177.06 33.1857 178.524C30.3088 180.565 27.4726 181.112 23.9938 180.52C22.2339 180.207 20.5236 179.66 18.9084 178.894C17.398 178.202 16.0057 177.145 14.3881 176.764C14.354 176.755 14.3183 176.754 14.2836 176.761C14.249 176.768 14.2165 176.782 14.1883 176.804C14.1602 176.825 14.1373 176.852 14.1213 176.884C14.1054 176.916 14.0969 176.95 14.0964 176.986C14.5949 182.846 21.6191 187.963 26.9593 188.817C32.99 189.76 42.3372 185.837 43.9806 179.378C44.6749 176.631 42.9132 173.174 39.7409 173.754Z" fill="#E0DFE6"/>
<path d="M36.0588 169.14C34.3859 170.072 32.7352 171.022 31.029 171.909C29.3228 172.797 27.4319 173.551 26.3609 175.237C25.8956 175.976 26.1393 176.834 26.649 177.455C28.5878 179.822 32.2661 178.594 34.1311 176.823C36.0995 174.952 36.7605 172.634 37.2554 170.057C37.293 169.902 37.2846 169.739 37.2314 169.588C37.1782 169.437 37.0824 169.305 36.9556 169.208C36.8288 169.111 36.6765 169.053 36.5173 169.041C36.3581 169.029 36.1988 169.063 36.0588 169.14Z" fill="#E0DFE6"/>
<path d="M29.4262 165.443C26.5678 166.959 23.0335 168.737 21.8517 171.935C21.5194 172.845 22.5571 173.862 23.4583 173.544C26.4829 172.471 28.5547 169.395 30.7705 167.188C31.679 166.293 30.5267 164.873 29.4262 165.443Z" fill="#E0DFE6"/>
<path d="M62.5713 174.819C61.3379 168.744 59.2144 162.954 58.1766 156.805C57.6485 153.677 57.3494 150.52 57.0281 147.381C56.7474 144.634 56.836 141.639 55.4659 139.176C55.4307 139.118 55.3811 139.07 55.3219 139.037C55.2627 139.003 55.1959 138.986 55.128 138.986C55.0601 138.986 54.9933 139.003 54.9341 139.037C54.875 139.07 54.8253 139.118 54.7901 139.176C52.3748 142.8 52.4302 148.86 52.1089 153.097C51.7268 158.532 51.9897 163.993 52.8919 169.365C53.3055 171.954 53.7487 174.542 54.2731 177.13V177.182C53.4569 177.256 52.674 177.359 52.4007 177.363C49.6272 177.433 46.8612 177.407 44.0692 177.411C41.2071 177.411 38.4779 177.041 35.8891 178.42C33.8062 179.529 33.7619 182.916 35.8891 184.003C38.7918 185.482 42.0713 184.946 45.2584 184.909C48.4455 184.872 51.6067 184.846 54.7828 184.909C57.1795 184.946 59.8939 185.013 61.6924 183.116C63.8787 180.812 63.1401 177.562 62.5713 174.819Z" fill="#E0DFE6"/>
<path d="M80.6304 127.833C80.6311 127.801 80.6199 127.77 80.5991 127.746C80.5784 127.722 80.5495 127.706 80.5179 127.702C80.4863 127.698 80.4543 127.706 80.428 127.724C80.4017 127.742 80.383 127.769 80.3755 127.8C80.2795 128.103 80.1762 128.406 80.0801 128.709C80.041 127.963 79.9385 127.22 79.7736 126.491C79.7352 126.374 79.6682 126.268 79.5788 126.184C79.4893 126.1 79.3802 126.039 79.2614 126.007C79.1425 125.976 79.0177 125.974 78.8982 126.003C78.7787 126.032 78.6683 126.09 78.577 126.173C76.0436 128.761 74.7326 132.669 73.1926 135.908C71.4642 139.539 69.8209 143.225 67.9854 146.808C66.2201 150.247 64.5398 153.741 62.5972 157.087C60.4774 160.732 57.5894 163.783 55.3995 167.328C55.1441 167.737 54.9429 168.177 54.8011 168.637C54.8011 168.5 54.7753 168.367 54.7643 168.231C54.4762 164.563 54.2842 160.89 54.1881 157.212C54.0958 153.737 54.0589 150.258 53.9998 146.782C53.9518 143.865 54.4762 140.456 53.095 137.794C53.047 137.712 52.9811 137.643 52.9022 137.591C52.8234 137.539 52.7337 137.505 52.64 137.493C52.5464 137.481 52.4512 137.491 52.3617 137.521C52.2722 137.551 52.1908 137.602 52.1237 137.668C50.2772 140.027 50.244 143.321 49.871 146.202C49.365 150.058 49.0807 153.907 48.9403 157.793C48.8098 161.463 48.7754 165.135 48.8369 168.807C48.8812 171.569 48.0983 176.672 50.2735 178.768C52.024 180.454 54.4799 179.508 55.2923 177.444C55.7688 176.228 55.3736 174.701 55.2407 173.44C55.1853 172.908 55.1446 172.372 55.0929 171.839C56.4593 174.376 60.3887 175.537 63.129 173.318C66.2829 170.73 68.7018 166.493 70.7293 162.966C72.9885 159.116 74.8047 155.023 76.1433 150.764C76.9484 148.117 77.6205 145.466 78.193 142.782C79.6862 137.934 80.5064 132.904 80.6304 127.833Z" fill="#E0DFE6"/>
<path d="M65.463 168.552C65.4459 168.49 65.4146 168.432 65.3716 168.383C65.3286 168.335 65.2749 168.297 65.2149 168.273C65.1549 168.248 65.09 168.238 65.0255 168.243C64.9609 168.248 64.8983 168.268 64.8426 168.301C62.8594 169.78 61.5595 172.619 61.1496 175C61.0785 175.402 61.0974 175.815 61.2049 176.209C61.0224 176.66 60.8982 177.132 60.8356 177.614C60.6066 179.367 63.3358 179.959 64.0966 178.498C64.298 178.095 64.4612 177.674 64.584 177.241C64.8378 177.043 65.045 176.792 65.1905 176.505C65.3361 176.218 65.4165 175.903 65.426 175.581C65.5775 173.34 65.788 170.778 65.463 168.552Z" fill="#E0DFE6"/>
<path d="M173.053 130.861C170.312 125.448 167.882 120.235 166.28 114.33C165.833 112.685 162.993 112.445 162.705 114.33C161.811 120.143 162.077 125.604 162.258 131.453C162.35 134.488 162.531 137.605 162.317 140.663C160.965 142.231 160.349 144.238 159.529 146.135C158.554 148.402 157.435 150.598 156.26 152.79C153.985 157.002 151.061 160.832 148.667 164.992C147.619 166.807 146.603 169.207 145.159 170.752C143.778 172.231 140.99 172.268 139.091 172.601C134.364 173.414 129.39 174.109 125.091 176.346C124.651 176.576 124.832 177.149 125.213 177.304C130.494 179.422 136.698 179.545 142.315 179.892C145.321 180.073 147.674 179.485 149.665 178.28C150.396 179.003 151.355 179.448 152.379 179.541L152.778 179.585C153.985 179.715 155.053 179.005 155.825 178.136L155.969 178.506C156.777 180.661 159.979 180.41 160.068 177.951C160.164 175.363 161.674 172.346 162.553 169.92C163.497 167.298 164.675 164.766 166.073 162.355C168.835 157.586 172.159 153.064 174.079 147.854C175.112 145.109 175.555 142.176 175.378 139.248C175.201 136.32 174.409 133.462 173.053 130.861Z" fill="#E0DFE6"/>
<path d="M142.877 35.4984C142.507 31.716 139.376 29.5826 137.178 26.6987C135.184 24.0772 133.485 20.9382 132.99 17.6475C132.651 15.3514 129.619 15.0963 128.189 16.3793C126.504 17.9466 125.336 19.9908 124.84 22.2396C124.36 24.1549 124.275 27.7487 122.177 28.6361C121.043 29.1167 119.333 28.7914 118.144 28.8062C116.667 28.8284 115.19 28.8838 113.69 28.8321C110.407 28.71 107.209 28.2294 103.922 28.3588C103.716 28.3588 103.553 28.6509 103.738 28.8025C106.508 31.1059 109.647 32.2521 113.103 33.1839C116.324 34.0564 119.995 34.9327 123.34 34.319C126.121 33.805 128.108 31.9083 129.327 29.4421C129.467 29.8303 129.604 30.2186 129.763 30.6031C131.358 34.4669 134.246 39.3807 138.833 39.547C140.864 39.621 143.087 37.6244 142.877 35.4984Z" fill="#E0DFE6"/>
<path d="M117.387 40.2681C117.018 37.9055 113.417 38.5858 113.354 40.8117C113.292 43.0375 112.516 45.6922 110.54 46.9345C109.026 47.8884 107.084 47.5816 105.403 47.4115C105.349 47.4133 105.295 47.4272 105.246 47.4523C105.198 47.4774 105.155 47.513 105.122 47.5565C105.089 47.6 105.066 47.6504 105.054 47.7039C105.043 47.7575 105.044 47.813 105.056 47.8662C105.909 50.9277 109.957 51.3898 112.494 50.2584C115.888 48.7388 117.941 43.7991 117.387 40.2681Z" fill="#E0DFE6"/>
<path d="M132.281 37.7168C131.399 42.9264 126.406 46.8974 121.302 46.6349C120.563 46.5942 120.334 47.4927 120.748 47.9697C126.76 54.8801 137.212 46.0174 138.818 39.5175C139.882 35.2211 133.002 33.476 132.281 37.7168Z" fill="#E0DFE6"/>
<path d="M212.003 146.083C211.885 146.042 211.774 145.991 211.656 145.946C211.56 145.498 211.32 145.093 210.973 144.794C210.625 144.495 210.189 144.318 209.732 144.29C209.363 144.268 209.034 144.264 208.691 144.264C205.758 142.046 203.52 138.718 201.109 136.071C197.586 132.174 195.107 127.596 192.914 122.841C190.414 117.425 187.924 111.993 185.487 106.547C183.124 101.26 181.055 95.8025 178.33 90.6816C173.935 82.3773 166.49 74.6092 156.6 74.8273C158.155 74.0765 159.671 73.2473 161.143 72.3427C164.54 70.2463 168.377 67.9058 169.108 63.6538C169.84 59.4019 167.21 56.5771 165.353 53.083C163.875 50.2841 162.971 47.3521 162.121 44.3055C161.272 41.2588 160.644 38.0754 160.06 34.9363C161.601 32.0008 162.354 28.7152 162.247 25.4008C161.973 19.082 158.291 14.0868 152.94 10.981C151.925 10.4078 150.881 9.88819 149.812 9.42447C148.39 8.78113 148.959 9.16564 148.424 8.02315C147.168 5.35365 145.469 3.27942 142.777 1.91878C138.201 -0.406866 131.938 0.0220295 127.44 2.28852C127.364 2.33514 127.303 2.40262 127.265 2.48287C127.227 2.56312 127.213 2.65273 127.224 2.74094C127.235 2.82916 127.272 2.91223 127.329 2.9802C127.386 3.04817 127.462 3.09815 127.547 3.12413C131.631 4.08175 137.197 4.18897 138.777 8.94379C139.49 11.0846 139.35 13.0479 140.687 15.0334C141.857 16.7748 143.615 17.6548 145.465 18.4978C148.741 19.9768 152.113 21.9364 152.268 25.9221C152.283 27.6201 152.092 29.3135 151.699 30.9653C150.34 30.9653 148.992 31.5015 148.376 32.8547C147.175 35.4614 148.206 37.7352 147.737 40.4195C147.367 42.4346 146.629 44.1428 144.561 44.6937C144.369 44.7404 144.194 44.8373 144.052 44.9744C143.911 45.1115 143.808 45.2839 143.756 45.4739C142.775 45.4918 141.824 45.8111 141.032 46.3885C140.239 46.966 139.643 47.7735 139.324 48.7017C138.781 50.1806 136.491 52.1069 135.402 53.3899C133.925 55.1166 132.385 56.9505 130.638 58.3962C128.769 59.9722 126.561 61.0924 124.186 61.6684C121.8 62.2119 119.61 61.4428 117.273 61.6684C117.263 61.6679 117.253 61.6699 117.244 61.6741C117.234 61.6784 117.226 61.6847 117.22 61.6927C117.214 61.7007 117.21 61.71 117.208 61.7199C117.206 61.7299 117.207 61.7401 117.21 61.7497C117.277 61.9589 117.365 62.1608 117.472 62.3524C117.274 62.4069 117.081 62.4786 116.896 62.5668C114.68 63.6538 114.418 66.0017 113.089 67.7801C112.25 68.8893 109.861 70.2647 110.241 71.8953C108.528 71.6953 106.836 71.3439 105.185 70.8452C102.97 70.1353 100.909 68.686 98.56 68.5011C98.4507 68.5047 98.3435 68.5326 98.2463 68.5828C98.149 68.6329 98.064 68.7041 97.9976 68.7912C97.9312 68.8782 97.8849 68.9789 97.8621 69.0861C97.8393 69.1932 97.8406 69.3041 97.8658 69.4107C98.5047 72.0765 101.149 73.9104 103.239 75.467C105.883 77.4377 108.901 79.1643 112.103 79.9814C116.42 81.0907 118.207 75.9476 115.821 73.4667C116.635 73.1489 117.395 72.7075 118.074 72.1578C120.043 70.5162 121.723 67.5657 121.08 64.9516C121.785 65.1879 122.504 65.3781 123.233 65.521C125.08 65.876 126.97 65.9396 128.836 65.7096C126.701 72.4277 131.701 80.3882 138.559 81.7969C142.843 82.6768 147.076 81.8671 151.249 80.8725C152.15 80.6529 153.064 80.4923 153.985 80.3918C152.172 81.2496 150.761 83.2499 151.23 85.5423C151.888 88.7553 153.324 91.8648 154.133 95.0667C154.502 96.4902 154.691 97.9692 155.082 99.3779C155.13 99.5516 155.167 99.6848 155.204 99.7994C155.189 99.7849 155.169 99.7758 155.149 99.7735C154.576 99.789 154.002 99.7543 153.435 99.67C147.611 98.8602 143.095 96.9487 137.599 100.225C135.228 101.641 133.928 100.835 131.506 99.7735C128.551 98.4831 125.682 97.4996 122.428 97.4367C116.043 97.3147 110.61 101.589 105.614 105.064C105.457 105.164 105.341 105.317 105.286 105.494C105.231 105.671 105.24 105.863 105.312 106.034C105.384 106.205 105.514 106.346 105.68 106.43C105.845 106.515 106.035 106.538 106.216 106.495C113.233 105.386 121.169 104.979 127.691 108.203C130.845 109.76 134.102 110.485 137.448 108.998C140.033 107.852 142.057 104.525 145.104 104.824C150.44 105.349 158.362 110.718 162.254 103.992C163.92 101.119 162.712 97.0337 162.254 93.976C162.117 93.0886 161.973 92.1828 161.818 91.2732C162.557 90.6743 163.613 90.3008 164.559 90.6595C165.637 91.0736 166.316 92.4786 167.321 93.133C167.663 93.3648 168.061 93.5002 168.473 93.5249C168.662 94.0795 168.842 94.6341 169.027 95.1998C170.593 100.006 172.351 104.743 174.216 109.45C177.868 118.641 181.428 128.158 186.986 136.407C189.764 140.53 193.01 144.667 197.427 147.111C194.941 148.035 192.437 148.919 189.797 149.278C189.468 149.326 189.509 149.832 189.797 149.91C193.139 150.775 196.241 149.729 199.561 149.17C200.407 149.034 201.256 148.923 202.109 148.823C205.197 149.496 208.487 149.503 211.564 149.37C211.97 149.373 212.364 149.228 212.671 148.961C212.978 148.694 213.177 148.324 213.231 147.921C213.285 147.517 213.19 147.108 212.964 146.769C212.738 146.431 212.396 146.187 212.003 146.083ZM147.449 54.2884C147.057 57.0318 146.138 59.4056 144.996 61.9124C144.719 62.5172 144.641 63.1947 144.774 63.8467C144.907 64.4988 145.243 65.0916 145.735 65.5395C144.258 66.0017 142.781 66.401 141.281 66.7523L140.62 66.9075C140.764 66.0165 140.376 65.362 140.066 64.5301C139.859 63.9718 139.697 63.1991 139.413 62.5816C139.312 62.3597 139.195 62.1459 139.062 61.942C142.574 59.7235 145.709 56.6695 147.6 53.1718C147.545 53.5452 147.504 53.9187 147.449 54.2884ZM158.351 80.9095C158.202 80.7574 158.038 80.6199 157.863 80.4991C158.265 80.5857 158.661 80.6981 159.049 80.8355C158.816 80.8651 158.583 80.8873 158.351 80.9169V80.9095Z" fill="#E0DFE6"/>
<path d="M133.278 175.211C131.886 173.817 129.914 174.05 128.045 174.065C127.44 174.065 126.849 174.106 126.262 174.157C126.233 173.898 126.152 173.648 126.024 173.421C125.895 173.195 125.722 172.996 125.515 172.839C125.308 172.681 125.071 172.567 124.818 172.504C124.565 172.441 124.303 172.43 124.046 172.471C115.829 173.329 107.058 174.146 98.8444 172.778C98.0135 172.638 97.1789 172.471 96.3405 172.287C96.1243 171.376 95.6603 170.543 95 169.88C94.1986 169.014 93.412 168.401 92.7842 167.369C92.2745 166.511 91.6763 165.624 91.2442 164.696C92.0197 163.738 92.7214 162.873 93.0501 162.359C96.9869 155.892 96.9167 148.605 92.1453 142.689C90.3431 140.471 87.998 138.555 86.7571 135.919C85.5162 133.283 85.2356 129.667 83.2524 127.534C83.0565 127.343 82.8042 127.221 82.5333 127.186C82.2625 127.15 81.9874 127.204 81.7493 127.338C78.6915 128.857 77.6537 133.797 78.0562 136.866C78.5437 140.656 80.8704 143.658 83.0087 146.66C84.8552 149.248 86.4617 151.592 85.2947 154.794C83.895 158.64 80.8224 161.631 79.467 165.483C78.1671 169.181 78.9684 174.272 82.8646 176.099C84.6225 176.923 86.3767 176.546 88.238 176.546C90.5351 176.546 92.8174 176.546 95.1108 176.612C104.805 176.845 114.315 177.944 124.042 177.171C124.428 177.136 124.801 177.01 125.128 176.801C126.21 176.967 127.285 177.149 128.348 177.363C130.091 177.711 131.277 178.276 132.961 177.552C133.884 177.178 133.891 175.829 133.278 175.211Z" fill="#E0DFE6"/>
<path d="M136.384 142.068C135.583 141.698 134.556 141.51 133.766 142.068C133.335 142.37 132.96 142.745 132.658 143.177C132.906 142.866 132.883 142.907 132.581 143.292C132.327 143.572 132.144 143.909 132.049 144.275C131.99 144.345 131.934 144.419 131.868 144.486C130.897 145.225 129.866 144.789 128.729 144.785C128.595 144.788 128.463 144.821 128.343 144.882C128.224 144.942 128.119 145.029 128.038 145.136C127.956 145.242 127.9 145.366 127.872 145.497C127.845 145.628 127.847 145.764 127.879 145.895C128.382 148.501 131.724 150.576 134.276 149.851C134.977 149.649 135.631 149.308 136.199 148.849C136.766 148.39 137.236 147.822 137.581 147.178C138.449 145.532 138.297 142.966 136.384 142.068Z" fill="#E0DFE6"/>
<path d="M137.873 121.377C137.503 120.815 136.828 120.268 136.1 120.361C135.509 120.387 134.923 120.489 134.357 120.664C133.917 120.787 133.511 121.008 133.168 121.311L133.005 121.433L132.544 121.803C132.459 121.858 132.37 121.914 132.281 121.962L132.215 121.999C132.1 122.03 131.987 122.071 131.879 122.121C131.623 122.209 131.376 122.32 131.14 122.453C131.288 122.387 131.292 122.379 131.14 122.424C130.597 122.542 129.807 122.697 129.663 123.444C129.19 125.748 132.067 127.079 133.917 127.082C135.395 127.082 137.02 126.502 137.817 125.182C138.188 124.619 138.391 123.962 138.401 123.288C138.41 122.614 138.227 121.951 137.873 121.377Z" fill="#E0DFE6"/>
<path d="M144.649 151.689C144.225 148.564 143.73 145.444 143.091 142.356C142.374 138.896 141.244 135.849 140.033 132.558C139.852 132.07 139.058 132.104 139.073 132.691C139.221 139.18 138.936 145.671 138.22 152.121C137.522 158.651 135.875 165.158 135.635 171.717C135.395 178.487 145.473 178.302 146.031 171.717C146.588 165.132 145.539 158.218 144.649 151.689Z" fill="#E0DFE6"/>
<path d="M293.922 192.064C293.494 189.069 290.026 188.736 287.98 190.215C287.031 190.485 284.982 190.396 284.158 190.503C282.43 190.733 280.701 190.925 278.988 191.095C275.605 191.428 272.207 191.709 268.832 192.123C266.025 192.47 263.222 193.029 260.674 194.308C260.5 194.397 260.33 194.497 260.161 194.593C259.09 191.864 257.177 189.601 255.142 187.224C252.726 184.391 250.972 181.053 250.008 177.455C249.974 177.341 249.912 177.238 249.826 177.155C249.741 177.073 249.636 177.013 249.521 176.983C249.406 176.952 249.285 176.952 249.17 176.982C249.055 177.011 248.949 177.07 248.864 177.152C247.458 178.43 246.391 180.037 245.758 181.829C244.465 181.397 243.173 180.931 241.898 180.484C241.869 179.803 241.836 179.123 241.799 178.443C242.335 174.006 242.732 169.569 242.988 165.132C243.302 159.678 244.561 151.182 240.839 146.59C240.77 146.522 240.684 146.473 240.591 146.448C240.498 146.423 240.399 146.423 240.306 146.448C240.212 146.472 240.127 146.521 240.058 146.589C239.989 146.656 239.938 146.741 239.912 146.834C239.797 147.466 239.723 148.102 239.668 148.745C239.022 147.163 236.344 147.325 236.344 149.344C236.411 156.831 236.381 164.319 236.392 171.802C235.868 175.13 235.325 178.479 234.686 181.785C234.114 184.769 233.368 187.701 232.773 190.699C232.282 193.169 232.714 196.43 230.675 198.235C227.226 201.289 221.524 199.274 217.654 201.721C217.53 201.798 217.422 201.899 217.337 202.018C217.252 202.136 217.192 202.27 217.159 202.413C216.42 202.512 215.682 202.609 214.961 202.716C210.234 203.4 205.492 203.954 200.743 204.446C191.588 205.389 181.698 205.64 172.85 208.291C172.248 208.473 172.148 209.493 172.85 209.615C182.983 211.345 194.014 210.151 204.196 209.275C209.568 208.814 214.927 208.229 220.272 207.519C224.519 206.946 229.01 206.576 232.854 204.513C237.552 201.991 239.952 197.68 241.09 192.881C243.479 194.907 245.939 196.833 248.553 198.682L249.805 199.573C249.805 199.606 249.827 199.636 249.839 199.677C250.019 200.325 250.248 200.96 250.525 201.573C251.22 203.219 252.176 204.339 253.964 204.82C254.457 204.959 254.978 204.965 255.473 204.834C255.969 204.704 256.42 204.444 256.781 204.08C259.237 201.27 262.184 199.617 265.911 199.274C269.489 198.956 273.097 199.274 276.683 199.2C280.503 199.134 284.313 198.781 288.08 198.146C291.636 197.551 294.51 196.208 293.922 192.064Z" fill="#E0DFE6"/>
<path d="M175.195 177.252C171.701 175.189 168.034 173.274 164.673 171C162.719 169.68 161.981 168.563 162.941 166.267C163.602 164.677 164.049 163.531 163.554 161.83C163.461 161.521 163.291 161.241 163.059 161.017C162.828 160.792 162.542 160.631 162.231 160.549C161.919 160.467 161.592 160.466 161.28 160.546C160.967 160.627 160.681 160.786 160.448 161.01C157.405 163.69 156.253 168.404 158.207 171.932C157.978 171.839 157.749 171.75 157.516 171.673C157.382 171.638 157.239 171.657 157.119 171.726C156.999 171.795 156.911 171.909 156.873 172.042C156.135 174.926 158.72 177.866 161.083 179.123C164.555 180.972 169.799 182.88 173.747 182.595C176.487 182.399 177.761 178.772 175.195 177.252Z" fill="#E0DFE6"/>
<path d="M147.264 171.314C143.497 171.444 139.8 171.314 136.026 171.314C132.437 171.314 128.223 171.373 125.032 173.196C124.478 173.514 124.792 174.224 125.327 174.305C129.958 174.886 134.767 174.849 139.439 175.307C142.674 175.625 146.337 176.494 148.501 173.488C149.14 172.59 148.283 171.281 147.264 171.314Z" fill="#E0DFE6"/>
<path d="M185.554 205.896C182.525 204.964 178.962 206.31 175.837 206.443C172.01 206.668 168.189 205.912 164.736 204.247C158.402 201.159 151.98 198.235 145.639 195.166C145.583 195.135 145.519 195.121 145.455 195.127C145.391 195.132 145.33 195.155 145.28 195.194C145.229 195.234 145.191 195.287 145.17 195.348C145.15 195.408 145.147 195.474 145.163 195.536C145.99 198.549 149.487 200.342 151.884 202.095C155.607 204.79 159.326 207.678 163.458 209.726C166.981 211.468 170.907 212.081 174.811 211.989C178.504 211.904 183.559 211.749 186.447 209.275C187.655 208.244 186.909 206.31 185.554 205.896Z" fill="#E0DFE6"/>
<path d="M214.385 174.997C214.385 174.257 213.979 173.377 213.277 173.052C212.565 172.664 211.732 172.561 210.947 172.763C210.396 172.507 209.793 172.381 209.185 172.394C208.694 172.41 208.219 172.576 207.823 172.868C207.428 173.16 207.13 173.566 206.97 174.032C205.862 174.675 204.879 175.481 203.757 176.087C203.394 176.305 203.111 176.634 202.951 177.026C202.792 177.418 202.763 177.852 202.87 178.261C203.11 179.212 203.783 179.833 204.429 180.532C205.075 181.23 205.673 182.07 206.534 182.506C208.38 183.441 210.556 181.859 211.811 180.554C212.676 179.683 213.237 178.556 213.41 177.341C213.726 177.039 213.976 176.675 214.144 176.271C214.311 175.868 214.394 175.434 214.385 174.997Z" fill="#00F0FF"/>
<path d="M133.855 118.726C134.154 117.525 132.595 116.39 131.458 117.044C130.719 117.469 130.043 117.994 129.752 118.83C129.601 119.237 129.568 119.678 129.656 120.103C129.744 120.528 129.95 120.92 130.25 121.233C130.298 121.281 130.35 121.326 130.402 121.37C130.524 121.77 130.778 122.117 131.122 122.353C131.716 122.701 132.178 122.438 132.662 122.065L132.713 122.021C132.89 121.928 133.053 121.811 133.197 121.673L133.271 121.581C133.542 121.368 133.764 121.101 133.924 120.797C134.084 120.492 134.177 120.157 134.198 119.813C134.218 119.618 134.198 119.421 134.139 119.234C134.08 119.047 133.983 118.874 133.855 118.726Z" fill="white"/>
<path d="M134.453 143.258C134.415 142.978 134.318 142.71 134.169 142.47C134.019 142.23 133.821 142.025 133.586 141.869C133.351 141.712 133.086 141.607 132.807 141.561C132.529 141.515 132.244 141.529 131.971 141.602C131.567 141.712 131.197 141.925 130.899 142.219C130.601 142.514 130.384 142.881 130.269 143.284C130.152 143.742 130.199 144.225 130.401 144.652C130.604 145.078 130.949 145.419 131.377 145.617C131.517 145.698 131.666 145.763 131.82 145.813C132.173 145.917 132.55 145.9 132.893 145.767C133.236 145.633 133.524 145.389 133.714 145.074L133.899 144.933C134.118 144.719 134.283 144.455 134.379 144.163C134.476 143.872 134.501 143.562 134.453 143.258Z" fill="white"/>
<path d="M145.938 47.6333C143.431 47.6333 139.8 44.3981 139.8 38.5488C139.8 35.04 141.193 32.1154 143.623 30.5218C144.072 30.2407 144.596 30.1003 145.126 30.1188H145.458H145.754C148.431 30.1188 151.559 32.3114 151.559 38.4934C151.566 42.3386 149.613 47.6333 145.938 47.6333ZM145.133 31.9194C144.95 31.8999 144.765 31.9346 144.601 32.0193C141.979 33.7385 141.588 36.848 141.588 38.5488C141.588 43.3554 144.42 45.8437 145.938 45.8437C148.283 45.8437 149.779 41.503 149.779 38.5155C149.779 33.6609 147.703 31.9305 145.761 31.9305H145.414L145.133 31.9194Z" fill="#0005A5"/>
<path d="M146.023 44.0837C145.889 44.0839 145.757 44.0538 145.636 43.9955C145.515 43.9372 145.409 43.8524 145.325 43.7472L145.27 43.677C144.483 42.6898 144.018 41.9503 144.018 39.0294C144.018 36.9921 144.498 35.2766 145.447 33.9307C145.515 33.8336 145.601 33.7508 145.7 33.687C145.8 33.6232 145.911 33.5797 146.028 33.5589C146.144 33.5381 146.264 33.5405 146.379 33.5659C146.495 33.5914 146.604 33.6393 146.701 33.707C146.798 33.7748 146.881 33.861 146.944 33.9607C147.008 34.0604 147.051 34.1718 147.072 34.2883C147.093 34.4049 147.091 34.5244 147.065 34.64C147.04 34.7557 146.992 34.8652 146.924 34.9623C146.186 36.016 145.816 37.3471 145.816 39.0294C145.816 41.466 146.145 41.8764 146.692 42.5567L146.747 42.6269C146.853 42.7585 146.92 42.9175 146.939 43.0855C146.959 43.2534 146.931 43.4235 146.857 43.5759C146.784 43.7284 146.67 43.857 146.527 43.9469C146.383 44.0368 146.218 44.0842 146.049 44.0837H146.023Z" fill="#0005A5"/>
<path d="M144.28 62.4523C144.104 62.4511 143.932 62.3984 143.785 62.3007C143.687 62.2358 143.603 62.1521 143.537 62.0543C143.471 61.9566 143.426 61.8467 143.403 61.7312C143.38 61.6157 143.38 61.4967 143.403 61.3812C143.426 61.2657 143.472 61.156 143.538 61.0584C145.414 58.2373 146.308 56.2518 146.308 52.5544C146.257 50.5953 146.071 48.642 145.75 46.7088C145.72 46.4758 145.783 46.2403 145.925 46.0533C146.067 45.8662 146.277 45.7426 146.509 45.7091C146.741 45.6756 146.977 45.7349 147.166 45.8742C147.355 46.0136 147.482 46.2217 147.519 46.4537C147.856 48.471 148.05 50.5097 148.099 52.5544C148.099 56.6807 147.061 58.9878 145.022 62.0492C144.942 62.1729 144.832 62.2746 144.702 62.3449C144.573 62.4153 144.427 62.4522 144.28 62.4523Z" fill="#0005A5"/>
<path d="M143.545 66.7227C142.267 66.7227 140.487 65.5543 140.487 63.6538C140.487 62.0566 141.573 60.4001 143.39 60.4001C143.897 60.4237 144.397 60.5337 144.867 60.7255L145.089 60.7994C146.308 61.2062 146.566 63.1953 146.566 63.6649C146.571 64.065 146.496 64.4621 146.347 64.8331C146.197 65.2042 145.975 65.5417 145.694 65.8262C145.413 66.1107 145.078 66.3364 144.71 66.4903C144.341 66.6442 143.945 66.7232 143.545 66.7227ZM143.39 62.1897C142.622 62.1897 142.282 63.0475 142.282 63.6686C142.282 64.5116 143.168 64.9479 143.549 64.9479C143.713 64.947 143.876 64.9133 144.028 64.8488C144.179 64.7843 144.316 64.6903 144.431 64.5723C144.546 64.4543 144.636 64.3146 144.696 64.1614C144.756 64.0081 144.786 63.8444 144.782 63.6797C144.762 63.2604 144.644 62.8516 144.439 62.4854L144.28 62.43C143.997 62.3067 143.697 62.2257 143.39 62.1897Z" fill="#0005A5"/>
<path d="M110.411 40.4492C105.869 40.4492 101.943 39.7985 98.405 38.4637C98.1831 38.3799 98.0037 38.2112 97.906 37.9949C97.8083 37.7785 97.8005 37.5322 97.8843 37.3101C97.968 37.088 98.1364 36.9083 98.3525 36.8105C98.5686 36.7128 98.8146 36.7049 99.0365 36.7888C102.36 38.0459 106.09 38.6597 110.411 38.6597C120.43 38.6597 131.665 36.0197 137.588 33.4131C137.696 33.3645 137.812 33.3376 137.929 33.3339C138.047 33.3302 138.165 33.3498 138.275 33.3915C138.385 33.4332 138.486 33.4963 138.572 33.5771C138.658 33.6578 138.727 33.7548 138.776 33.8623C138.824 33.9699 138.851 34.0859 138.855 34.2039C138.858 34.3218 138.839 34.4393 138.797 34.5497C138.755 34.6601 138.692 34.7612 138.612 34.8472C138.531 34.9332 138.434 35.0025 138.327 35.051C132.2 37.7353 120.674 40.4492 110.411 40.4492Z" fill="#0005A5"/>
<path d="M107.135 49.5447C102.423 49.5447 98.5934 44.5828 98.5934 38.4784C98.5934 38.2788 98.5934 38.0754 98.5934 37.8758C98.5977 37.7583 98.6252 37.6428 98.6742 37.5359C98.7231 37.429 98.7926 37.3328 98.8787 37.2528C98.9647 37.1728 99.0657 37.1106 99.1758 37.0696C99.2859 37.0287 99.403 37.0099 99.5203 37.0143C99.6377 37.0187 99.753 37.0461 99.8598 37.0951C99.9666 37.1441 100.063 37.2137 100.143 37.2999C100.222 37.3861 100.285 37.4871 100.325 37.5974C100.366 37.7076 100.385 37.8248 100.381 37.9423C100.381 38.1198 100.381 38.3121 100.381 38.4784C100.381 44.0245 103.871 47.7552 107.135 47.7552C109.351 47.7552 112.804 44.4978 113.148 39.388C113.164 39.1512 113.273 38.9305 113.452 38.7745C113.631 38.6185 113.864 38.5399 114.1 38.5561C114.337 38.5723 114.557 38.6818 114.713 38.8607C114.869 39.0396 114.948 39.2732 114.931 39.51C114.614 44.2464 111.209 49.5447 107.135 49.5447Z" fill="#0005A5"/>
<path d="M125.335 49.1937C120.637 49.1937 117.904 43.9841 117.72 39.0777C117.709 38.9567 117.723 38.8348 117.76 38.7194C117.798 38.6039 117.859 38.4974 117.939 38.4063C118.019 38.3151 118.117 38.2412 118.227 38.1892C118.336 38.1371 118.455 38.1079 118.576 38.1034C118.698 38.0989 118.819 38.1191 118.932 38.1629C119.045 38.2066 119.148 38.273 119.235 38.3579C119.321 38.4428 119.39 38.5445 119.436 38.6568C119.482 38.7691 119.505 38.8897 119.503 39.0111C119.662 43.1374 121.885 47.4042 125.335 47.4042C129.999 47.4042 132.097 41.8581 132.097 37.9426C132.097 37.7836 132.097 36.9554 132.008 36.1568C131.984 35.9204 132.054 35.684 132.203 35.4996C132.353 35.3152 132.57 35.1978 132.806 35.1732C133.042 35.1487 133.278 35.2191 133.462 35.3689C133.646 35.5186 133.764 35.7356 133.788 35.9719C133.877 36.8593 133.884 37.7688 133.884 37.9426C133.884 45.2523 129.478 49.1937 125.335 49.1937Z" fill="#0005A5"/>
<path d="M109.104 47.5778C108.832 47.579 108.565 47.5079 108.33 47.3718C108.095 47.2357 107.9 47.0395 107.766 46.8033C107.631 46.5671 107.562 46.2993 107.565 46.0274C107.567 45.7555 107.642 45.4892 107.782 45.2558C107.9 45.0498 108.095 44.899 108.324 44.8367C108.553 44.7743 108.798 44.8054 109.004 44.9231C109.064 44.9586 109.12 45.0008 109.17 45.0488C109.4 45.0517 109.621 45.1446 109.783 45.3076C110.049 45.5722 110.2 45.9307 110.204 46.3059C110.216 46.4618 110.197 46.6185 110.147 46.767C110.098 46.9154 110.02 47.0527 109.918 47.1709C109.816 47.2891 109.691 47.3859 109.552 47.4557C109.412 47.5255 109.26 47.567 109.104 47.5778ZM108.808 45.8437L109.333 46.1469C109.333 46.1469 108.812 45.8437 108.808 45.8437Z" fill="#0005A5"/>
<path d="M124.552 47.1269C124.4 47.1279 124.249 47.0975 124.109 47.0377C123.97 46.9779 123.844 46.89 123.739 46.7794C123.534 46.5576 123.423 46.2646 123.429 45.9622V45.7404C123.429 44.6312 124.168 44.3502 124.585 44.3502C124.783 44.3481 124.98 44.3908 125.16 44.4754C125.339 44.5599 125.498 44.6839 125.623 44.8382C125.808 45.0873 125.907 45.3894 125.907 45.6997C125.911 46.0675 125.772 46.4223 125.519 46.6888C125.266 46.9553 124.919 47.1125 124.552 47.1269ZM124.552 45.3337C124.499 45.327 124.444 45.3314 124.393 45.3468C124.341 45.3621 124.294 45.3879 124.253 45.4227C124.212 45.4575 124.178 45.5004 124.155 45.5487C124.131 45.597 124.118 45.6497 124.116 45.7034C124.118 45.7809 124.143 45.8559 124.19 45.9179C124.234 45.9828 124.292 46.037 124.359 46.0761C124.427 46.1151 124.503 46.1382 124.581 46.1434C124.706 46.1413 124.827 46.1059 124.933 46.0409C125.039 45.9759 125.125 45.8836 125.183 45.7737C125.134 45.6451 125.047 45.534 124.935 45.4544C124.823 45.3748 124.689 45.3302 124.552 45.3263V45.3337Z" fill="#0005A5"/>
<path d="M115.892 53.2864C115.828 53.2863 115.765 53.2789 115.703 53.2642C113.764 52.8575 112.036 51.0458 112.036 49.9181C112.038 49.7786 112.072 49.6414 112.136 49.5175C112.2 49.3936 112.292 49.2864 112.405 49.2045C112.483 49.1454 114.377 47.6257 114.377 44.287C114.377 44.1021 114.377 43.9173 114.377 43.7398C114.367 43.6206 114.381 43.5006 114.418 43.3869C114.455 43.2731 114.514 43.1679 114.592 43.0774C114.67 42.987 114.766 42.9132 114.873 42.8603C114.98 42.8075 115.097 42.7767 115.216 42.7698C115.335 42.7629 115.455 42.78 115.567 42.8201C115.68 42.8602 115.783 42.9224 115.871 43.0032C115.96 43.084 116.031 43.1816 116.08 43.2904C116.13 43.3991 116.158 43.5167 116.161 43.6363C116.161 43.8507 116.18 44.0689 116.18 44.287C116.238 46.4433 115.468 48.5399 114.027 50.1436C114.548 50.8181 115.278 51.3005 116.102 51.5154C116.319 51.5602 116.511 51.6839 116.642 51.8626C116.773 52.0413 116.833 52.2623 116.81 52.4827C116.788 52.7031 116.685 52.9074 116.52 53.0558C116.356 53.2043 116.142 53.2865 115.921 53.2864H115.892Z" fill="#0005A5"/>
<path d="M119.847 57.7012C119.61 57.7081 119.38 57.6204 119.207 57.4575C119.035 57.2945 118.934 57.0697 118.927 56.8323C118.92 56.595 119.008 56.3647 119.171 56.1921C119.334 56.0194 119.558 55.9186 119.795 55.9117C120.984 55.8452 122.591 54.1961 122.783 53.7746C122.819 53.6635 122.878 53.5608 122.955 53.4725C123.031 53.3842 123.125 53.3121 123.23 53.2605C123.335 53.2089 123.449 53.1787 123.565 53.1717C123.682 53.1648 123.799 53.1812 123.909 53.22C124.135 53.2974 124.32 53.4611 124.426 53.6752C124.531 53.8893 124.547 54.1365 124.471 54.3625C124.16 55.3016 121.933 57.5866 119.895 57.6901L119.847 57.7012Z" fill="#0005A5"/>
<path d="M105.193 38.0313C105.001 38.0315 104.814 37.97 104.66 37.8558C104.506 37.7417 104.393 37.581 104.337 37.3974C104.281 37.2138 104.286 37.0171 104.35 36.8364C104.414 36.6556 104.535 36.5003 104.694 36.3934C105.706 35.7168 109.03 35.2842 110.105 35.2842C110.37 35.2842 110.636 35.2842 110.902 35.3212C111.019 35.3318 111.133 35.3655 111.237 35.4201C111.341 35.4748 111.433 35.5494 111.508 35.6397C111.583 35.73 111.639 35.8342 111.674 35.9464C111.709 36.0586 111.722 36.1766 111.711 36.2936C111.7 36.4106 111.667 36.5244 111.612 36.6284C111.558 36.7324 111.483 36.8246 111.393 36.8998C111.303 36.975 111.199 37.0317 111.087 37.0666C110.975 37.1015 110.857 37.114 110.74 37.1033C110.529 37.0848 110.315 37.0774 110.105 37.0774C108.978 37.0774 106.194 37.5581 105.673 37.8982C105.529 37.9869 105.362 38.033 105.193 38.0313Z" fill="#0005A5"/>
<path d="M123.233 36.9885C123.167 36.9882 123.102 36.9808 123.038 36.9663C122.183 36.7983 121.32 36.6749 120.452 36.5966L120.198 36.567C120.081 36.5539 119.968 36.5179 119.865 36.4611C119.763 36.4043 119.672 36.3278 119.599 36.236C119.526 36.1441 119.471 36.0387 119.439 35.9258C119.406 35.8129 119.396 35.6947 119.409 35.5779C119.422 35.4612 119.458 35.3481 119.515 35.2452C119.572 35.1424 119.648 35.0517 119.74 34.9784C119.832 34.9051 119.937 34.8506 120.05 34.818C120.162 34.7854 120.28 34.7754 120.397 34.7885L120.648 34.8181C121.575 34.9038 122.498 35.0383 123.411 35.2211C123.628 35.2661 123.822 35.3906 123.953 35.5705C124.084 35.7504 124.143 35.9728 124.119 36.1941C124.095 36.4154 123.989 36.6198 123.823 36.7673C123.656 36.9149 123.441 36.9951 123.219 36.9922L123.233 36.9885Z" fill="#0005A5"/>
<path d="M102.006 39.1257C101.831 39.126 101.661 39.0751 101.515 38.9791C101.369 38.8831 101.255 38.7464 101.186 38.5859C100.974 38.065 100.871 37.5064 100.883 36.9442C100.883 36.1012 101.09 31.2724 102.061 28.6806C102.1 28.5678 102.161 28.464 102.241 28.3752C102.321 28.2865 102.418 28.2147 102.526 28.1639C102.634 28.1132 102.751 28.0846 102.87 28.0798C102.989 28.075 103.108 28.0942 103.219 28.1361C103.331 28.1781 103.433 28.242 103.52 28.3241C103.606 28.4061 103.676 28.5047 103.724 28.614C103.772 28.7234 103.797 28.8412 103.799 28.9605C103.801 29.0799 103.779 29.1984 103.734 29.3091C102.933 31.4425 102.674 35.713 102.674 36.9442C102.661 37.2634 102.714 37.5819 102.829 37.8796C102.921 38.098 102.923 38.3438 102.835 38.5637C102.748 38.7837 102.577 38.9603 102.36 39.0554C102.248 39.1017 102.127 39.1256 102.006 39.1257Z" fill="#0005A5"/>
<path d="M123.403 65.0405C116.542 65.0405 110.692 62.1714 107.35 57.1725C105.5 54.3138 104.059 51.2099 103.069 47.9513C102.998 47.7248 103.019 47.4791 103.128 47.2683C103.238 47.0575 103.427 46.8989 103.653 46.8273C103.879 46.7557 104.124 46.777 104.335 46.8866C104.545 46.9961 104.704 47.1849 104.775 47.4115C105.721 50.5066 107.088 53.4565 108.838 56.1779C111.885 60.7368 117.059 63.251 123.403 63.251C127.761 63.251 136.048 59.6239 141.037 49.6336C141.09 49.5285 141.163 49.4347 141.252 49.3578C141.341 49.2808 141.444 49.2221 141.555 49.1851C141.666 49.148 141.784 49.1332 141.901 49.1417C142.018 49.1501 142.133 49.1816 142.238 49.2343C142.343 49.287 142.436 49.3598 142.513 49.4487C142.59 49.5376 142.649 49.6408 142.686 49.7524C142.723 49.864 142.738 49.9818 142.729 50.099C142.721 50.2163 142.689 50.3308 142.637 50.4359C139.704 56.3073 132.163 65.0405 123.403 65.0405Z" fill="#0005A5"/>
<path d="M114.056 83.2427C113.887 83.2432 113.722 83.1958 113.579 83.1059C113.436 83.016 113.321 82.8874 113.248 82.735C113.175 82.5825 113.146 82.4124 113.166 82.2445C113.185 82.0765 113.252 81.9175 113.358 81.786C114.802 79.9779 118.44 69.8102 119.267 63.7983C119.299 63.5629 119.423 63.3499 119.612 63.206C119.8 63.0621 120.038 62.9992 120.273 63.0311C120.509 63.0629 120.721 63.187 120.865 63.3759C121.009 63.5649 121.072 63.8032 121.04 64.0386C120.198 70.1947 116.523 80.6989 114.762 82.8952C114.678 83.0033 114.572 83.0909 114.449 83.1512C114.327 83.2114 114.193 83.2427 114.056 83.2427Z" fill="#0005A5"/>
<path d="M135.675 83.1244C135.513 83.1249 135.353 83.0806 135.214 82.9965C135.074 82.9124 134.961 82.7917 134.885 82.6475C130.553 74.4578 130.014 70.8825 128.832 63.0514L128.784 62.7482C128.748 62.5134 128.807 62.2739 128.948 62.0826C129.088 61.8912 129.299 61.7635 129.534 61.7278C129.768 61.692 130.007 61.7509 130.199 61.8917C130.39 62.0325 130.517 62.2435 130.553 62.4783L130.601 62.7852C131.753 70.4203 132.278 73.9032 136.466 81.823C136.538 81.9593 136.573 82.112 136.569 82.2661C136.564 82.4203 136.52 82.5706 136.441 82.7027C136.361 82.8348 136.249 82.944 136.115 83.0199C135.981 83.0957 135.829 83.1355 135.675 83.1355V83.1244Z" fill="#0005A5"/>
<path d="M117.542 75.0937H117.45C104.938 73.8144 96.1227 68.505 92.9135 66.2792C92.7775 66.1848 92.6703 66.0545 92.6039 65.9027C92.5376 65.7509 92.5146 65.5837 92.5376 65.4196C92.5606 65.2556 92.6286 65.1011 92.734 64.9735C92.8395 64.8458 92.9783 64.75 93.135 64.6967C98.9146 62.7371 104.883 59.317 107.656 56.3739C107.737 56.2885 107.834 56.2198 107.941 56.1717C108.048 56.1237 108.164 56.0974 108.281 56.0941C108.399 56.0908 108.516 56.1108 108.625 56.1527C108.735 56.1947 108.836 56.2579 108.921 56.3388C109.006 56.4196 109.075 56.5165 109.123 56.6239C109.171 56.7313 109.197 56.8471 109.2 56.9647C109.204 57.0823 109.184 57.1994 109.142 57.3093C109.1 57.4191 109.037 57.5197 108.956 57.6052C106.282 60.441 100.879 63.6762 95.4063 65.7763C102.151 69.9358 109.75 72.512 117.631 73.3116C117.861 73.3325 118.073 73.4415 118.225 73.6159C118.376 73.7902 118.454 74.0164 118.443 74.2471C118.431 74.4778 118.331 74.6951 118.163 74.8536C117.996 75.0121 117.773 75.0995 117.542 75.0974V75.0937Z" fill="#0005A5"/>
<path d="M132.027 74.942C131.797 74.9421 131.575 74.8533 131.409 74.6942C131.243 74.5352 131.144 74.318 131.134 74.088C131.123 73.8579 131.202 73.6327 131.353 73.4592C131.504 73.2856 131.716 73.1771 131.945 73.1562C147.319 71.7031 156.068 66.793 161.397 62.9589C156.988 58.0857 154.381 50.6984 154.381 42.9487C154.44 39.5955 154.707 36.2491 155.178 32.9288C155.528 30.5039 155.738 28.0608 155.806 25.6117C155.806 20.1728 153.915 14.3643 148.608 14.3643C148.179 14.3622 147.751 14.4119 147.334 14.5122C147.188 14.5477 147.035 14.5455 146.89 14.506C146.744 14.4665 146.611 14.3909 146.503 14.2861C146.395 14.1813 146.314 14.0509 146.27 13.9068C146.225 13.7628 146.218 13.6098 146.249 13.4621C146.384 12.8399 146.457 12.2057 146.466 11.5691C146.466 7.67573 141.182 1.78951 133.216 1.78951C125.715 1.78951 118.048 5.07646 110.433 11.558C105.542 15.7822 101.254 20.659 97.6886 26.0517C105.141 28.8136 119.271 29.0465 119.415 29.0465C121.582 29.0546 123.748 28.9311 125.9 28.6768C126.132 23.164 127.746 18.5164 130.679 14.856C130.795 14.7096 130.955 14.6037 131.135 14.553C131.315 14.5024 131.507 14.5097 131.683 14.5738C131.859 14.6379 132.01 14.7557 132.115 14.9104C132.221 15.0652 132.275 15.2492 132.27 15.4365C132.27 15.5992 132.27 15.7582 132.27 15.9209C132.27 25.3824 135.243 31.8565 141.359 35.7092C141.56 35.8357 141.702 36.0369 141.755 36.2685C141.807 36.5001 141.766 36.7431 141.64 36.9441C141.513 37.1452 141.312 37.2877 141.081 37.3404C140.85 37.3931 140.607 37.3516 140.406 37.2251C134.246 33.3429 131.004 27.1128 130.538 18.2169C128.714 21.3523 127.75 25.1273 127.669 29.4791C127.666 29.6914 127.587 29.8955 127.447 30.0548C127.307 30.2141 127.114 30.3181 126.904 30.348C124.423 30.6816 121.922 30.8386 119.418 30.8176C119.263 30.8176 103.561 30.6105 96.0008 27.2829C95.8842 27.2308 95.7801 27.1543 95.6954 27.0586C95.6106 26.963 95.5473 26.8503 95.5095 26.7281C95.4718 26.606 95.4605 26.4772 95.4764 26.3503C95.4924 26.2235 95.5351 26.1015 95.602 25.9925C101.555 16.3313 116.18 -0.0222168 133.223 -0.0222168C142.404 -0.0222168 148.261 6.82903 148.261 11.5469C148.26 11.8865 148.242 12.2259 148.206 12.5637C148.341 12.5637 148.478 12.5637 148.616 12.5637C155.241 12.5637 157.601 19.2966 157.601 25.6006C157.535 28.1228 157.321 30.639 156.958 33.1358C156.496 36.3838 156.235 39.6573 156.175 42.9376C156.175 48.8792 158.07 57.1207 163.381 62.4338C163.472 62.5245 163.543 62.6339 163.588 62.7545C163.633 62.8751 163.652 63.004 163.643 63.1325C163.634 63.261 163.597 63.386 163.535 63.499C163.473 63.6119 163.388 63.7102 163.285 63.7871C157.87 67.8172 148.749 73.3559 132.119 74.9273L132.027 74.942Z" fill="#0005A5"/>
<path d="M24.8431 184.103C13.8452 184.103 10.4402 172.948 10.4402 168.888C10.4402 165.317 11.8953 161.446 14.8904 157.057C15.0241 156.861 15.23 156.726 15.4631 156.682C15.6962 156.638 15.9372 156.688 16.1331 156.822C16.329 156.956 16.4637 157.162 16.5077 157.396C16.5517 157.629 16.5013 157.87 16.3676 158.066C13.583 162.156 12.2276 165.701 12.2276 168.9C12.2276 171.118 14.4214 182.321 24.8542 182.321C30.5895 182.321 36.5464 179.459 39.2386 176.775C39.3198 176.683 39.4188 176.609 39.5297 176.557C39.6406 176.504 39.7609 176.476 39.8834 176.472C40.0058 176.468 40.1278 176.489 40.2417 176.535C40.3556 176.58 40.4591 176.648 40.5457 176.735C40.6323 176.821 40.7003 176.925 40.7454 177.039C40.7906 177.153 40.8119 177.275 40.8081 177.398C40.8043 177.52 40.7755 177.641 40.7234 177.752C40.6714 177.863 40.5971 177.962 40.5053 178.043C37.4733 181.042 31.125 184.103 24.8431 184.103Z" fill="#0005A5"/>
<path d="M22.7713 180.924C22.5881 180.924 22.4094 180.867 22.2592 180.762C22.1091 180.657 21.9948 180.508 21.9319 180.336C21.8691 180.164 21.8606 179.976 21.9077 179.799C21.9548 179.622 22.0551 179.463 22.1952 179.345C24.0794 177.811 26.0432 176.378 28.0783 175.052C30.9183 173.122 33.6179 171.288 34.7996 169.591C31.1804 169.75 27.8235 171.266 24.2855 172.863C22.5387 173.655 20.7291 174.472 18.8899 175.108C18.6988 175.174 18.491 175.173 18.3003 175.106C18.1096 175.038 17.9475 174.908 17.8403 174.736C17.7331 174.564 17.6872 174.361 17.7102 174.16C17.7331 173.959 17.8236 173.772 17.9667 173.629C20.2231 171.37 23.0262 169.44 25.2789 167.887C26.6195 166.962 28.3479 165.772 29.0828 165.01C25.5116 165.114 22.2728 166.341 18.8531 167.635C17.0546 168.319 15.1932 169.026 13.2728 169.554C13.0441 169.617 12.7997 169.587 12.5933 169.47C12.3869 169.353 12.2355 169.158 12.1723 168.929C12.1091 168.7 12.1394 168.456 12.2564 168.249C12.3735 168.042 12.5677 167.891 12.7964 167.828C14.6429 167.321 16.4563 166.63 18.2179 165.979C21.7891 164.629 25.4784 163.228 29.5703 163.228H29.6847C29.8948 163.205 30.1075 163.225 30.3091 163.289C30.5107 163.353 30.6968 163.458 30.8555 163.598C30.9787 163.722 31.0751 163.87 31.1386 164.033C31.2021 164.195 31.2315 164.37 31.2248 164.544C31.2248 166.001 29.3782 167.277 26.2982 169.392C25.5079 169.939 24.6437 170.53 23.7648 171.166C27.4578 169.502 31.258 167.816 35.4237 167.816H35.4976C35.7053 167.795 35.9153 167.816 36.1143 167.88C36.3133 167.944 36.4969 168.048 36.6536 168.186C36.7663 168.301 36.8548 168.438 36.9139 168.588C36.9729 168.737 37.0011 168.898 36.997 169.059C36.996 169.185 36.9723 169.311 36.9268 169.429C35.9888 171.872 32.7906 174.039 29.0865 176.553L28.3775 177.034C32.5765 175.452 37.5621 173.662 39.9035 173.662C41.3807 173.662 42.363 174.361 42.363 175.403C42.363 175.548 42.3341 175.692 42.2781 175.825C41.7573 177.049 40.7381 178.154 39.1685 179.201C38.9731 179.305 38.7461 179.332 38.5315 179.278C38.3169 179.224 38.13 179.093 38.0068 178.908C37.8836 178.724 37.833 178.501 37.8648 178.282C37.8966 178.063 38.0084 177.863 38.1787 177.722C39.0882 177.171 39.8601 176.42 40.4352 175.525C40.2612 175.483 40.0826 175.462 39.9035 175.463C37.5658 175.463 31.4094 177.81 27.3101 179.367C25.3971 180.107 23.8903 180.668 23.0298 180.92C22.9442 180.933 22.8573 180.934 22.7713 180.924Z" fill="#0005A5"/>
<path d="M59.3769 183.767C59.2982 183.767 59.2198 183.755 59.1442 183.733C58.5127 183.563 57.8812 183.364 57.2275 183.179C54.6424 182.406 51.7397 181.53 47.5591 181.53C45.3586 181.548 43.163 181.741 40.9929 182.107C40.877 182.125 40.7585 182.12 40.6444 182.093C40.5303 182.066 40.4226 182.016 40.3277 181.947C40.2327 181.878 40.1522 181.791 40.0908 181.691C40.0294 181.591 39.9883 181.48 39.9699 181.363C39.9515 181.247 39.956 181.129 39.9833 181.015C40.0107 180.9 40.0603 180.793 40.1292 180.697C40.1981 180.602 40.285 180.522 40.3851 180.46C40.4851 180.399 40.5963 180.358 40.7122 180.339C42.9749 179.957 45.2645 179.757 47.5591 179.74C51.9908 179.74 55.0523 180.657 57.7408 181.463L58.1545 181.585C55.0449 168.19 53.6231 153.681 53.6231 145.606C53.6231 143.207 53.7007 140.822 53.8595 138.504C41.1148 133.409 31.7344 132.481 24.171 131.734C18.9564 131.22 14.6873 130.798 11.1604 129.046C13.1436 144.161 15.4517 151.892 17.6823 159.364C18.0516 160.547 18.3877 161.727 18.7348 162.925C18.801 163.153 18.7739 163.398 18.6597 163.606C18.5454 163.814 18.3533 163.968 18.1255 164.034C17.8978 164.1 17.6531 164.073 17.4453 163.959C17.2376 163.844 17.0837 163.652 17.0176 163.424C16.6742 162.23 16.3233 161.057 15.9688 159.874C13.6311 152.029 11.2084 143.917 9.1551 127.463C9.14231 127.296 9.17631 127.129 9.25328 126.98C9.33026 126.831 9.44714 126.706 9.59085 126.62C9.73439 126.527 9.90174 126.478 10.0728 126.478C10.2438 126.478 10.4112 126.527 10.5548 126.62C14.0004 128.924 18.3471 129.356 24.3631 129.948C31.7492 130.687 41.8571 131.678 55.1484 137.084C55.3236 137.155 55.4718 137.28 55.5714 137.44C55.671 137.601 55.7169 137.79 55.7023 137.979C55.5177 140.459 55.4253 143.022 55.4253 145.602C55.4253 153.874 56.9394 168.999 60.2595 182.654C60.292 182.786 60.2941 182.923 60.2657 183.056C60.2373 183.189 60.179 183.313 60.0954 183.42C60.0118 183.527 59.9049 183.613 59.783 183.673C59.661 183.732 59.5273 183.763 59.3917 183.763L59.3769 183.767Z" fill="#0005A5"/>
<path d="M53.3091 138.219C53.2445 138.219 53.1801 138.212 53.1171 138.197C53.0022 138.172 52.8932 138.125 52.7965 138.058C52.6999 137.991 52.6174 137.906 52.5539 137.807C52.4904 137.708 52.447 137.597 52.4264 137.482C52.4058 137.366 52.4084 137.247 52.4339 137.132C54.8011 126.302 59.0149 110.77 65.6439 98.2579C73.0005 84.3779 81.6496 77.3381 91.3586 77.3381C93.663 77.3381 98.2462 77.7079 104.048 78.1996C107.501 78.4843 111.412 78.8097 115.4 79.0944C115.637 79.1124 115.856 79.2231 116.011 79.4025C116.166 79.5819 116.244 79.8154 116.228 80.052C116.22 80.1696 116.189 80.2846 116.137 80.3902C116.085 80.4957 116.012 80.5898 115.923 80.6669C115.834 80.744 115.73 80.8026 115.618 80.8392C115.506 80.8758 115.388 80.8898 115.271 80.8802C111.275 80.5955 107.357 80.2701 103.9 79.9817C98.1391 79.5048 93.5893 79.1314 91.3439 79.1314C69.3075 79.1314 58.003 119.961 54.1659 137.513C54.1235 137.71 54.0158 137.887 53.8603 138.015C53.7047 138.143 53.5105 138.215 53.3091 138.219Z" fill="#0005A5"/>
<path d="M206.8 150.431C206.584 150.431 206.375 150.352 206.212 150.21C192.548 138.26 185.531 121.019 179.929 107.168C173.902 92.305 169.142 80.5474 159.193 80.5474C158.373 80.6065 143.538 81.7046 134.97 81.7453C134.733 81.7453 134.506 81.651 134.338 81.4832C134.17 81.3154 134.076 81.0878 134.076 80.8505C134.076 80.6132 134.17 80.3856 134.338 80.2178C134.506 80.05 134.733 79.9558 134.97 79.9558C143.678 79.9151 158.949 78.7689 159.104 78.7578H159.17C170.346 78.7578 175.309 91.0035 181.598 106.488C187.433 120.878 194.044 137.176 207.402 148.856C207.54 148.976 207.638 149.135 207.683 149.313C207.728 149.49 207.718 149.677 207.653 149.848C207.589 150.019 207.474 150.167 207.323 150.27C207.172 150.374 206.994 150.429 206.811 150.428L206.8 150.431Z" fill="#0005A5"/>
<path d="M130.86 105.46C126.491 105.46 111.46 96.2169 99.5093 79.3014C99.3721 79.1053 99.3185 78.8626 99.36 78.6269C99.4016 78.3911 99.535 78.1816 99.7309 78.0443C99.9268 77.907 100.169 77.8532 100.405 77.8948C100.64 77.9364 100.849 78.07 100.986 78.2661C113.524 96.0135 127.994 103.671 130.874 103.671C135.398 103.671 139.553 99.2746 142.245 95.592C145.336 91.3548 148.287 85.6091 150.344 79.8745C150.424 79.6509 150.589 79.4682 150.804 79.3667C151.018 79.2651 151.264 79.2529 151.487 79.3328C151.71 79.4127 151.893 79.5782 151.994 79.7928C152.096 80.0074 152.108 80.2536 152.028 80.4772C148.697 89.7576 140.513 105.46 130.86 105.46Z" fill="#0005A5"/>
<path d="M104.347 106.595C104.145 106.596 103.948 106.528 103.789 106.401C103.631 106.275 103.52 106.098 103.476 105.9C100.152 91.3732 97.1493 82.1187 96.0119 78.8132C95.9675 78.7009 95.9464 78.5807 95.9497 78.46C95.953 78.3393 95.9806 78.2205 96.031 78.1107C96.0814 78.001 96.1534 77.9026 96.2428 77.8215C96.3322 77.7403 96.437 77.6782 96.5511 77.6387C96.6651 77.5992 96.7859 77.5833 96.9062 77.5918C97.0265 77.6004 97.1438 77.6332 97.2512 77.6884C97.3585 77.7435 97.4536 77.8199 97.5307 77.9128C97.6077 78.0057 97.6652 78.1133 97.6996 78.229C98.8075 81.479 101.736 90.4304 104.979 104.451C110.245 102.232 116.937 100.583 121.756 99.5518C121.988 99.5028 122.23 99.5481 122.429 99.6777C122.628 99.8074 122.767 100.011 122.816 100.243C122.865 100.476 122.82 100.718 122.69 100.917C122.561 101.116 122.358 101.255 122.125 101.304C117.081 102.38 109.964 104.162 104.709 106.518C104.595 106.568 104.472 106.595 104.347 106.595Z" fill="#0005A5"/>
<path d="M157.715 105.479C157.611 105.479 157.507 105.46 157.409 105.423C153.162 103.87 143.914 101.552 139.091 101.46C138.974 101.457 138.858 101.432 138.751 101.384C138.643 101.337 138.546 101.269 138.465 101.185C138.384 101.1 138.32 101 138.277 100.89C138.234 100.781 138.214 100.664 138.216 100.546C138.216 100.428 138.24 100.311 138.286 100.202C138.332 100.093 138.4 99.9951 138.485 99.9133C138.571 99.8314 138.672 99.7677 138.782 99.7259C138.892 99.6841 139.01 99.6651 139.128 99.6701C143.682 99.7588 151.666 101.648 156.486 103.212C154.514 94.4568 152.519 84.3555 151.722 80.2589C151.676 80.026 151.725 79.7845 151.857 79.5876C151.989 79.3907 152.194 79.2544 152.427 79.2088C152.66 79.1632 152.901 79.212 153.098 79.3444C153.294 79.4769 153.43 79.6821 153.476 79.915C154.322 84.2557 156.508 95.3257 158.583 104.381C158.616 104.513 158.618 104.65 158.589 104.783C158.561 104.917 158.502 105.041 158.418 105.148C158.334 105.255 158.227 105.342 158.104 105.401C157.982 105.46 157.848 105.49 157.712 105.49L157.715 105.479Z" fill="#0005A5"/>
<path d="M56.7362 170.449C56.5565 170.45 56.3807 170.396 56.2319 170.295C56.083 170.194 55.968 170.051 55.9018 169.884C55.8356 169.716 55.8214 169.533 55.8609 169.358C55.9004 169.182 55.9918 169.022 56.1232 168.9C65.6218 159.974 77.3804 143.192 79.2676 125.271C79.2751 125.15 79.3069 125.033 79.361 124.925C79.415 124.817 79.4903 124.722 79.5822 124.644C79.6742 124.566 79.7809 124.507 79.896 124.472C80.0111 124.436 80.1321 124.424 80.2519 124.437C80.3718 124.449 80.4878 124.486 80.5931 124.544C80.6984 124.603 80.7909 124.682 80.8649 124.777C80.9388 124.872 80.9929 124.982 81.0236 125.098C81.0544 125.215 81.0613 125.336 81.0439 125.456C79.1088 143.876 67.0695 161.08 57.3457 170.212C57.1803 170.366 56.9621 170.451 56.7362 170.449Z" fill="#0005A5"/>
<path d="M83.0825 178.383C82.9014 178.383 82.7246 178.328 82.5755 178.225C82.4265 178.122 82.3122 177.976 82.2479 177.807C81.1178 174.849 80.5675 172.453 80.5675 170.445C80.5675 167.084 82.3549 164.71 84.0833 162.414C85.8117 160.118 87.4071 157.978 87.4071 154.868C87.4071 151.211 84.2125 146.017 81.3947 141.432C80.0009 139.271 78.7274 137.034 77.5799 134.732C77.5239 134.624 77.4903 134.506 77.4814 134.385C77.4725 134.264 77.4884 134.142 77.5279 134.027C77.5675 133.913 77.63 133.807 77.7117 133.717C77.7934 133.627 77.8925 133.555 78.0029 133.505C78.1134 133.455 78.233 133.427 78.3543 133.425C78.4756 133.422 78.5962 133.444 78.7086 133.49C78.8211 133.536 78.923 133.604 79.0083 133.69C79.0936 133.777 79.1605 133.88 79.2048 133.993C80.3232 136.231 81.5635 138.406 82.92 140.507C86.0037 145.529 89.1982 150.72 89.1982 154.883C89.1982 158.58 87.3185 161.091 85.5052 163.505C83.8839 165.661 82.3513 167.698 82.3513 170.46C82.3513 172.216 82.8794 174.479 83.9134 177.182C83.9625 177.316 83.9786 177.461 83.9604 177.603C83.9422 177.745 83.8902 177.88 83.8088 177.998C83.7273 178.116 83.6188 178.212 83.4925 178.279C83.3661 178.346 83.2255 178.382 83.0825 178.383Z" fill="#0005A5"/>
<path d="M154.901 179.929C154.7 179.929 154.505 179.861 154.347 179.736C154.189 179.611 154.077 179.437 154.03 179.241C153.707 177.86 153.545 176.445 153.546 175.026C153.546 169.85 156.434 164.755 159.492 159.368C163 153.19 166.978 146.183 166.978 138.012C166.978 133.412 165.91 129.053 164.762 124.443C164.082 121.673 163.381 118.811 162.941 115.913C162.918 115.794 162.918 115.672 162.943 115.554C162.968 115.436 163.017 115.324 163.086 115.225C163.156 115.126 163.244 115.042 163.347 114.979C163.449 114.915 163.564 114.873 163.683 114.855C163.802 114.837 163.924 114.843 164.041 114.873C164.157 114.903 164.267 114.956 164.363 115.03C164.458 115.104 164.538 115.196 164.597 115.301C164.656 115.406 164.693 115.523 164.706 115.643C165.135 118.46 165.814 121.285 166.497 124.014C167.605 128.528 168.75 133.194 168.75 138.012C168.75 146.656 164.647 153.881 161.028 160.255C158.074 165.432 155.315 170.316 155.315 175.045C155.314 176.326 155.462 177.602 155.754 178.849C155.808 179.081 155.767 179.324 155.642 179.525C155.517 179.727 155.317 179.871 155.086 179.925C155.025 179.933 154.963 179.934 154.901 179.929Z" fill="#0005A5"/>
<path d="M185.38 153.145C185.178 153.144 184.981 153.075 184.822 152.949C178.769 148.143 170.689 137.113 165.84 128.72C165.781 128.619 165.743 128.506 165.727 128.39C165.712 128.273 165.719 128.155 165.749 128.041C165.78 127.927 165.832 127.821 165.903 127.727C165.974 127.634 166.063 127.556 166.165 127.497C166.267 127.438 166.379 127.399 166.495 127.384C166.612 127.368 166.73 127.376 166.844 127.406C166.957 127.436 167.064 127.488 167.157 127.56C167.25 127.631 167.329 127.72 167.387 127.822C172.155 136.071 180.058 146.867 185.938 151.548C186.084 151.663 186.19 151.822 186.242 152C186.294 152.179 186.289 152.37 186.228 152.546C186.166 152.722 186.052 152.874 185.9 152.981C185.748 153.089 185.566 153.146 185.38 153.145Z" fill="#0005A5"/>
<path d="M130.922 123.821C130.483 123.826 130.047 123.743 129.64 123.578C129.233 123.412 128.863 123.168 128.551 122.859C128.238 122.549 127.991 122.181 127.821 121.775C127.652 121.369 127.565 120.934 127.565 120.494C127.567 119.883 127.711 119.281 127.988 118.736C128.264 118.191 128.665 117.719 129.157 117.358C130.136 116.656 131.004 116.316 131.772 116.316C133.064 116.316 134.977 117.576 134.977 120.283C134.977 122.235 133.157 123.821 130.922 123.821ZM131.772 118.113C131.506 118.113 131.015 118.235 130.199 118.822C129.938 119.018 129.726 119.271 129.58 119.563C129.434 119.854 129.358 120.175 129.356 120.501C129.354 120.706 129.394 120.909 129.472 121.098C129.55 121.287 129.666 121.458 129.813 121.601C129.959 121.744 130.133 121.856 130.323 121.93C130.514 122.004 130.718 122.039 130.922 122.032C132.03 122.032 133.19 121.329 133.19 120.29C133.19 118.649 132.134 118.116 131.772 118.116V118.113Z" fill="#0005A5"/>
<path d="M131.535 146.756C131.101 146.767 130.669 146.689 130.265 146.528C129.861 146.367 129.494 146.126 129.185 145.819C128.877 145.513 128.634 145.147 128.47 144.743C128.307 144.34 128.226 143.908 128.234 143.473C128.236 142.676 128.477 141.898 128.924 141.239C129.372 140.58 130.006 140.07 130.745 139.775C131.018 139.673 131.307 139.62 131.598 139.62C132.5 139.64 133.359 140.011 133.993 140.655C134.626 141.298 134.985 142.163 134.992 143.066C134.992 144.368 133.677 146.756 131.535 146.756ZM131.373 141.465C130.976 141.63 130.636 141.908 130.397 142.266C130.157 142.623 130.028 143.043 130.025 143.473C130.025 144.952 131.473 144.952 131.535 144.952C132.466 144.952 133.205 143.595 133.205 143.062C133.205 141.713 131.849 141.41 131.598 141.41C131.52 141.414 131.444 141.433 131.373 141.465Z" fill="#0005A5"/>
<path d="M134.859 177.023C134.718 177.022 134.58 176.988 134.454 176.924C134.329 176.859 134.221 176.766 134.138 176.652C134.055 176.538 134.001 176.406 133.978 176.267C133.956 176.128 133.967 175.985 134.01 175.851C137.684 164.444 138.848 160.067 138.848 143.935C138.848 126.095 136.48 116.349 132.115 104.61C132.074 104.5 132.055 104.382 132.06 104.265C132.064 104.147 132.091 104.032 132.14 103.925C132.189 103.818 132.258 103.722 132.344 103.642C132.43 103.561 132.531 103.499 132.641 103.458C132.752 103.417 132.869 103.398 132.986 103.402C133.103 103.407 133.219 103.434 133.326 103.483C133.432 103.532 133.529 103.601 133.609 103.688C133.689 103.774 133.751 103.875 133.792 103.985C138.223 115.92 140.635 125.825 140.635 143.917C140.635 160.266 139.372 165.025 135.712 176.383C135.657 176.567 135.545 176.729 135.391 176.844C135.238 176.96 135.051 177.022 134.859 177.023Z" fill="#0005A5"/>
<path d="M174.375 182.318H174.279C145.864 179.289 130.427 178.347 89.2388 178.347C79.2934 178.347 71.623 178.591 64.3662 179.134C64.1296 179.152 63.8955 179.076 63.7155 178.921C63.5354 178.766 63.4241 178.546 63.4059 178.31C63.3878 178.073 63.4645 177.839 63.6189 177.658C63.7733 177.478 63.9929 177.366 64.2295 177.348C71.5343 176.801 79.2491 176.557 89.2388 176.557C130.509 176.557 145.983 177.5 174.467 180.535C174.697 180.556 174.91 180.666 175.062 180.84C175.213 181.015 175.291 181.242 175.279 181.473C175.267 181.704 175.166 181.921 174.998 182.08C174.829 182.238 174.606 182.324 174.375 182.321V182.318Z" fill="#0005A5"/>
<path d="M172.318 210.085C171.965 210.085 171.617 210.01 171.296 209.865C170.975 209.72 170.689 209.507 170.456 209.242C170.224 208.977 170.051 208.666 169.948 208.328C169.846 207.991 169.816 207.636 169.862 207.286L176.698 155.079C176.799 154.312 177.151 153.6 177.699 153.054C178.247 152.509 178.959 152.16 179.726 152.062L239.893 144.438C240.338 144.381 240.789 144.428 241.212 144.575C241.635 144.722 242.019 144.965 242.332 145.286C242.646 145.606 242.881 145.994 243.02 146.421C243.159 146.847 243.197 147.3 243.132 147.743L235.842 197.98C235.745 198.631 235.441 199.235 234.976 199.7C234.51 200.166 233.908 200.47 233.257 200.568L172.691 210.044C172.568 210.067 172.443 210.08 172.318 210.085ZM171.635 207.519C171.62 207.624 171.63 207.732 171.665 207.833C171.699 207.934 171.757 208.025 171.833 208.1C171.909 208.174 172.002 208.23 172.103 208.262C172.205 208.294 172.312 208.301 172.417 208.284L232.983 198.811C233.259 198.768 233.514 198.637 233.709 198.437C233.904 198.237 234.029 197.979 234.066 197.702L241.356 147.47C241.383 147.299 241.369 147.124 241.317 146.959C241.264 146.794 241.174 146.644 241.053 146.521C240.932 146.397 240.784 146.303 240.62 146.247C240.457 146.191 240.282 146.174 240.111 146.198L179.94 153.825C179.565 153.873 179.216 154.044 178.949 154.312C178.682 154.58 178.511 154.929 178.463 155.304L171.635 207.519Z" fill="#0005A5"/>
<path d="M208.809 184.225C208.621 184.226 208.439 184.166 208.288 184.055L208.185 183.981C206.231 182.572 203.797 180.816 200.536 178.742C200.421 178.668 200.324 178.568 200.253 178.451C200.182 178.334 200.138 178.202 200.126 178.065C200.114 177.928 200.134 177.79 200.183 177.662C200.232 177.534 200.31 177.419 200.411 177.326C203.155 174.801 206.907 171.643 209.51 169.536C209.689 169.392 209.916 169.322 210.145 169.34C210.374 169.359 210.587 169.464 210.74 169.635C212.72 171.774 214.874 173.744 217.181 175.525C217.284 175.608 217.368 175.712 217.425 175.831C217.483 175.95 217.513 176.081 217.513 176.213C217.515 176.345 217.488 176.475 217.434 176.596C217.379 176.716 217.299 176.822 217.199 176.908C215.408 178.424 212.029 181.345 209.444 183.959C209.361 184.043 209.262 184.11 209.153 184.156C209.044 184.201 208.927 184.225 208.809 184.225ZM202.483 177.862C205.031 179.518 207.043 180.953 208.716 182.158C210.807 180.092 213.259 177.917 215.22 176.243C213.371 174.765 211.622 173.166 209.983 171.458C207.734 173.296 204.842 175.732 202.483 177.862Z" fill="#0005A5"/>
<path d="M171.195 209.371H170.996C170.859 209.371 170.725 209.34 170.603 209.279C170.48 209.219 170.373 209.132 170.29 209.023L140.628 194.271C140.458 194.187 140.319 194.051 140.231 193.883C140.143 193.715 140.11 193.524 140.138 193.336C140.166 193.148 140.253 192.975 140.386 192.84C140.519 192.705 140.692 192.615 140.879 192.585C146.644 191.62 161.327 189.18 173.123 187.342C173.357 187.306 173.597 187.364 173.788 187.505C173.98 187.645 174.108 187.856 174.144 188.091C174.18 188.326 174.122 188.565 173.982 188.757C173.841 188.949 173.631 189.077 173.396 189.113C163.166 190.703 150.761 192.751 143.896 193.897L171.594 207.674C171.775 207.763 171.92 207.911 172.006 208.094C172.093 208.276 172.114 208.483 172.069 208.679C172.023 208.876 171.912 209.051 171.754 209.177C171.596 209.303 171.401 209.371 171.199 209.371H171.195Z" fill="#0005A5"/>
<path d="M158.875 197.24C158.679 197.241 158.488 197.178 158.331 197.059C158.175 196.941 158.062 196.774 158.009 196.585C157.957 196.396 157.968 196.194 158.041 196.012C158.114 195.83 158.245 195.677 158.413 195.576C159.427 195.012 160.534 194.636 161.682 194.467C161.914 194.421 162.156 194.469 162.353 194.601C162.55 194.733 162.686 194.938 162.732 195.171C162.778 195.404 162.73 195.646 162.598 195.843C162.466 196.04 162.261 196.177 162.029 196.223C161.086 196.355 160.174 196.654 159.337 197.107C159.198 197.194 159.038 197.24 158.875 197.24Z" fill="#0005A5"/>
<path d="M166.228 195.447C166 195.432 165.787 195.331 165.631 195.165C165.475 194.998 165.388 194.779 165.388 194.55C165.388 194.322 165.475 194.102 165.631 193.936C165.787 193.769 166 193.668 166.228 193.654C166.622 193.632 167.01 193.541 167.373 193.384C167.897 193.164 168.456 193.038 169.023 193.014C169.2 193.016 169.377 193.031 169.552 193.058C169.667 193.078 169.778 193.12 169.878 193.182C169.978 193.245 170.064 193.326 170.132 193.422C170.201 193.517 170.249 193.626 170.276 193.74C170.302 193.855 170.306 193.974 170.286 194.09C170.267 194.206 170.225 194.317 170.163 194.417C170.1 194.517 170.019 194.603 169.924 194.671C169.828 194.74 169.72 194.789 169.605 194.815C169.491 194.841 169.372 194.845 169.256 194.826C168.814 194.788 168.371 194.87 167.971 195.062C167.418 195.294 166.827 195.424 166.228 195.447Z" fill="#0005A5"/>
<path d="M163.842 201.414C163.64 201.415 163.444 201.347 163.285 201.222C163.127 201.097 163.015 200.921 162.969 200.724C162.923 200.528 162.944 200.321 163.03 200.138C163.117 199.955 163.262 199.807 163.443 199.717C163.834 199.535 164.242 199.394 164.662 199.296C165.098 199.212 165.514 199.046 165.888 198.808C165.982 198.737 166.089 198.686 166.202 198.656C166.316 198.627 166.435 198.62 166.551 198.637C166.667 198.653 166.779 198.692 166.88 198.752C166.981 198.812 167.07 198.891 167.14 198.985C167.211 199.079 167.262 199.186 167.291 199.3C167.321 199.414 167.327 199.532 167.311 199.649C167.294 199.765 167.255 199.877 167.195 199.978C167.136 200.079 167.057 200.168 166.963 200.238C166.406 200.622 165.778 200.89 165.116 201.026C164.813 201.095 164.518 201.193 164.234 201.318C164.113 201.381 163.978 201.414 163.842 201.414Z" fill="#0005A5"/>
<path d="M169.404 199.625C169.176 199.61 168.963 199.509 168.807 199.343C168.651 199.176 168.564 198.957 168.564 198.728C168.564 198.5 168.651 198.28 168.807 198.114C168.963 197.947 169.176 197.846 169.404 197.832C169.975 197.77 170.523 197.57 170.999 197.248C171.206 197.137 171.413 197.022 171.623 196.918C171.729 196.864 171.845 196.832 171.963 196.823C172.082 196.814 172.201 196.829 172.313 196.866C172.426 196.904 172.53 196.964 172.62 197.042C172.709 197.121 172.782 197.216 172.834 197.323C172.886 197.43 172.916 197.546 172.923 197.665C172.929 197.784 172.912 197.903 172.872 198.015C172.833 198.127 172.771 198.23 172.691 198.318C172.611 198.406 172.514 198.477 172.406 198.527C172.222 198.619 172.037 198.719 171.856 198.819C171.123 199.296 170.277 199.574 169.404 199.625Z" fill="#0005A5"/>
<path d="M255.74 204.051C255.655 204.05 255.569 204.043 255.485 204.029C254.145 203.785 253.572 202.18 251.386 192.567C251.017 191.561 245.266 188.263 236.643 184.713C236.535 184.669 236.436 184.603 236.352 184.52C236.269 184.437 236.203 184.339 236.158 184.23C236.113 184.122 236.089 184.006 236.089 183.888C236.088 183.77 236.111 183.654 236.156 183.545C236.2 183.436 236.266 183.337 236.349 183.254C236.432 183.171 236.53 183.104 236.638 183.059C236.747 183.014 236.863 182.99 236.98 182.99C237.098 182.99 237.214 183.012 237.323 183.057C241.88 184.932 252.542 189.576 253.133 192.171C253.916 195.636 255.068 200.708 255.777 202.058C255.999 201.777 256.298 201.318 256.549 200.949C258.192 198.449 261.243 193.798 268.178 193.798C269.127 193.798 270.656 193.95 272.61 194.138C275.745 194.445 280.04 194.878 284.269 194.878C285.942 194.878 288.268 194.171 290.333 193.066C285.126 188.119 275.516 185.05 265.375 181.807C257.365 179.249 249.081 176.605 242.884 172.882C241.407 172.002 239.93 171.244 238.645 170.578C238.434 170.47 238.274 170.282 238.202 170.056C238.129 169.83 238.149 169.584 238.257 169.373C238.365 169.162 238.553 169.002 238.779 168.929C239.004 168.857 239.25 168.877 239.461 168.985C240.783 169.665 242.286 170.434 243.804 171.347C249.824 174.964 258.004 177.578 265.918 180.103C276.831 183.59 287.138 186.884 292.438 192.674C292.527 192.77 292.594 192.886 292.634 193.011C292.674 193.137 292.685 193.269 292.667 193.4C292.65 193.53 292.603 193.655 292.532 193.766C292.46 193.876 292.365 193.969 292.253 194.038C289.668 195.647 286.551 196.689 284.269 196.689C279.955 196.689 275.609 196.26 272.451 195.95C270.564 195.765 269.072 195.617 268.211 195.617C262.24 195.617 259.636 199.588 258.078 201.962C257.239 203.156 256.656 204.051 255.74 204.051Z" fill="#0005A5"/>
<path d="M245.137 188.448C245.064 188.448 244.991 188.44 244.919 188.422C244.805 188.394 244.698 188.343 244.603 188.274C244.509 188.204 244.429 188.116 244.368 188.016C244.308 187.915 244.267 187.804 244.25 187.687C244.232 187.571 244.237 187.453 244.266 187.339C245.327 183.042 246.734 178.838 248.472 174.767C248.567 174.55 248.744 174.379 248.964 174.292C249.185 174.205 249.431 174.209 249.648 174.303C249.866 174.398 250.037 174.575 250.124 174.796C250.211 175.017 250.206 175.263 250.112 175.481C248.415 179.462 247.04 183.573 246.001 187.775C245.952 187.967 245.841 188.137 245.684 188.259C245.528 188.381 245.335 188.447 245.137 188.448Z" fill="#0005A5"/>
<path d="M0.893745 187.257C0.680548 187.259 0.473878 187.184 0.310936 187.046C0.147994 186.909 0.0395227 186.717 0.00519543 186.507C-0.0291318 186.296 0.0128729 186.08 0.123669 185.897C0.234465 185.715 0.406737 185.578 0.609373 185.512C5.75379 183.796 15.7509 182.184 18.8642 181.855C18.982 181.84 19.1016 181.848 19.2162 181.88C19.3307 181.912 19.4379 181.966 19.5313 182.039C19.6247 182.113 19.7025 182.204 19.7602 182.308C19.8179 182.412 19.8543 182.526 19.8673 182.645C19.8803 182.763 19.8698 182.883 19.836 182.997C19.8023 183.111 19.7462 183.217 19.671 183.309C19.5959 183.401 19.5031 183.477 19.3981 183.533C19.2932 183.589 19.1782 183.623 19.0598 183.634C15.4148 184.037 5.79443 185.667 1.17442 187.209C1.08432 187.241 0.989368 187.257 0.893745 187.257Z" fill="#0005A5"/>
</g>
<defs>
<clipPath id="clip0_75_1610">
<rect width="294" height="212" fill="white"/>
</clipPath>
</defs>
</svg>
