<svg width="659" height="100" viewBox="0 0 659 100" fill="none" xmlns="http://www.w3.org/2000/svg">
<g clip-path="url(#clip0_28_1006)">
<path d="M30.9557 32.7381C29.7651 32.7381 29.1698 32.7381 27.9792 33.3334C27.3839 33.3334 26.7886 33.9286 26.1933 34.5238C25.598 35.1191 25.598 36.3096 25.0027 37.5C25.0027 38.6905 24.4074 39.881 24.4074 41.6667L17.8591 89.2857L16.6685 100H0L10.7154 33.3334C11.3108 31.5476 11.3108 29.7619 11.9061 27.9762C12.5014 26.1905 13.0967 24.4048 13.692 23.2143C14.8826 22.0238 16.0732 20.2381 17.8591 19.6429C19.645 18.4524 22.0262 18.4524 25.0027 18.4524H47.6242V100.595H30.9557V32.7381Z" fill="white"/>
<path d="M80.366 100H62.507L67.8647 79.1667L52.3868 17.8571H69.6506L76.7942 56.5476L84.5331 17.8571H101.202L80.366 100Z" fill="white"/>
<path d="M121.442 17.2619V62.5C121.442 63.0952 121.442 63.6905 121.442 63.6905C121.442 63.6905 122.037 64.2857 122.633 64.2857H130.967V17.8571H147.04V100H130.967V77.9762H116.68C114.298 77.9762 112.513 77.9762 110.727 77.3809C108.941 76.7857 107.75 76.1905 107.155 75C105.964 73.8095 105.369 72.619 105.369 71.4286C104.774 70.2381 104.774 68.4524 104.774 67.2619V17.8571H121.442V17.2619Z" fill="white"/>
<path d="M222.643 100H154.183V17.8571H170.852V85.7143H179.781V17.8571H196.45V85.7143H205.379V17.8571H222.048L222.643 100Z" fill="white"/>
<path d="M270.267 100H254.789V65.4762L245.86 100H229.191V17.8571H245.86V50.5952L254.194 17.8571H269.672L270.267 100Z" fill="white"/>
<path d="M317.892 100H302.414V65.4762L293.484 100H276.816V17.8571H293.484V50.5952L301.818 17.8571H317.296L317.892 100ZM282.769 0H292.889C292.889 1.19048 293.484 2.38095 294.079 2.97619C294.675 3.57143 295.865 4.16667 297.056 4.16667C298.247 4.16667 299.437 3.57143 300.032 2.97619C300.628 2.38095 301.223 1.19048 301.223 0H311.939C311.939 1.78571 311.343 4.16667 310.748 5.95238C310.153 7.7381 308.962 9.52381 307.771 10.7143C306.581 11.9048 304.795 13.0952 303.009 13.6905C301.223 14.2857 299.437 14.881 297.056 14.881C295.27 14.881 292.889 14.2857 291.103 13.6905C289.317 13.0952 287.531 11.9048 286.341 10.7143C285.15 9.52381 283.959 7.7381 283.364 5.95238C283.364 3.57143 282.769 1.78571 282.769 0Z" fill="white"/>
<path d="M381.589 100H364.92V32.1428H355.991V100H339.322V17.8571H381.589V100Z" fill="white"/>
<path d="M388.137 17.2619H422.665V32.7381H404.806V52.3809H418.498V66.6666H404.806V84.5238H422.069V100H388.137V17.2619Z" fill="white"/>
<path d="M426.237 85.7143H430.404L438.738 33.3334C439.334 31.5476 439.334 29.7619 439.929 27.9762C440.524 26.1905 441.12 24.4048 441.715 23.2143C442.905 22.0238 444.096 20.2381 445.882 19.6429C447.668 18.4524 450.049 18.4524 453.026 18.4524H475.647V85.7143H478.624V106.548H465.527V100H439.334V106.548H426.237V85.7143ZM459.574 32.7381C458.383 32.7381 457.788 32.7381 456.597 33.3334C456.002 33.3334 455.407 33.9286 454.812 34.5238C454.216 35.1191 454.216 36.3096 453.621 37.5C453.621 38.6905 453.026 39.881 453.026 41.6667L446.477 85.7143H458.979L459.574 32.7381Z" fill="white"/>
<path d="M501.245 89.2857L500.054 99.4048H483.386L498.268 17.2619H516.127L531.01 99.4048H514.341L513.151 89.2857H501.245ZM503.031 76.1905H510.77L507.198 47.0238L503.031 76.1905Z" fill="white"/>
<path d="M534.582 17.2619H569.109V32.7381H551.25V99.4048H534.582V17.2619Z" fill="white"/>
<path d="M617.329 88.0952C617.329 89.8809 617.329 91.0714 616.734 92.8571C616.138 94.0476 615.543 95.2381 614.948 96.4286C613.757 97.619 612.566 98.2143 611.376 98.8095C609.59 99.4047 607.804 100 605.423 100H586.373C583.992 100 582.206 99.4047 580.42 98.8095C578.634 98.2143 577.444 97.0238 576.848 96.4286C575.658 95.2381 575.062 94.0476 575.062 92.8571C574.467 91.6666 574.467 89.8809 574.467 88.0952V27.9762C574.467 25 575.062 22.0238 576.848 20.2381C578.634 18.4524 581.611 17.2619 585.183 17.2619H605.423C608.995 17.2619 611.971 18.4524 613.757 20.2381C615.543 22.0238 616.138 25 616.138 27.9762V88.0952H617.329ZM592.921 32.1428C591.731 32.1428 591.731 32.7381 591.731 33.9286V83.9286C591.731 84.5238 591.731 85.119 591.731 85.119C591.731 85.119 592.326 85.7143 592.921 85.7143H598.874C599.47 85.7143 600.065 85.7143 600.065 85.119C600.065 85.119 600.065 84.5238 600.065 83.9286V33.9286C600.065 32.7381 599.47 32.1428 598.874 32.1428H592.921Z" fill="white"/>
<path d="M624.472 17.2619H659V32.7381H641.141V99.4048H624.472V17.2619Z" fill="white"/>
</g>
<defs>
<clipPath id="clip0_28_1006">
<rect width="659" height="100" fill="white"/>
</clipPath>
</defs>
</svg>
