<svg width="254" height="42" viewBox="0 0 254 42" fill="none" xmlns="http://www.w3.org/2000/svg">
<path d="M11.9313 12.6242C11.4724 12.6242 11.243 12.6242 10.7841 12.8537C10.5547 12.8537 10.3252 13.0832 10.0958 13.3128C9.86631 13.5423 9.86631 14.0014 9.63686 14.4604C9.63686 14.9195 9.40741 15.3785 9.40741 16.0671L6.88347 34.4295L6.42457 38.5611H0L4.13008 12.8537C4.35953 12.1651 4.35953 11.4765 4.58898 10.7879C4.81843 10.0993 5.04788 9.41075 5.27733 8.95169C5.73622 8.49263 6.19512 7.80404 6.88347 7.57451C7.57182 7.11545 8.48961 7.11545 9.63686 7.11545H18.3559V38.7906H11.9313V12.6242Z" fill="white"/>
<path d="M30.9755 38.561H24.092L26.1571 30.5275L20.1914 6.88589H26.8454L29.5988 21.8054L32.5817 6.88589H39.0062L30.9755 38.561Z" fill="white"/>
<path d="M46.8076 6.65637V24.1007C46.8076 24.3302 46.8076 24.5597 46.8076 24.5597C46.8076 24.5597 47.0371 24.7892 47.2665 24.7892H50.4788V6.8859H56.6739V38.5611H50.4788V30.0684H44.972C44.0542 30.0684 43.3659 30.0684 42.6775 29.8389C41.9892 29.6094 41.5303 29.3799 41.3009 28.9208C40.842 28.4617 40.6125 28.0027 40.6125 27.5436C40.3831 27.0845 40.3831 26.396 40.3831 25.9369V6.8859H46.8076V6.65637Z" fill="white"/>
<path d="M85.8139 38.561H59.4272V6.88589H65.8518V33.0523H69.2936V6.88589H75.7181V33.0523H79.1599V6.88589H85.5844L85.8139 38.561Z" fill="white"/>
<path d="M104.17 38.561H98.2042V25.2483L94.7625 38.561H88.3379V6.88589H94.7625V19.51L97.9747 6.88589H103.94L104.17 38.561Z" fill="white"/>
<path d="M122.526 38.5611H116.56V25.2483L113.118 38.5611H106.694V6.8859H113.118V19.5101L116.33 6.8859H122.296L122.526 38.5611ZM108.988 0H112.889C112.889 0.45906 113.118 0.91812 113.348 1.14765C113.577 1.37718 114.036 1.60671 114.495 1.60671C114.954 1.60671 115.413 1.37718 115.642 1.14765C115.872 0.91812 116.101 0.45906 116.101 0H120.231C120.231 0.68859 120.002 1.60671 119.772 2.2953C119.543 2.98389 119.084 3.67248 118.625 4.13154C118.166 4.5906 117.478 5.04966 116.789 5.27919C116.101 5.50872 115.413 5.73825 114.495 5.73825C113.807 5.73825 112.889 5.50872 112.2 5.27919C111.512 5.04966 110.824 4.5906 110.365 4.13154C109.906 3.67248 109.447 2.98389 109.218 2.2953C109.218 1.37718 108.988 0.68859 108.988 0Z" fill="white"/>
<path d="M147.077 38.561H140.652V12.3946H137.21V38.561H130.786V6.88589H147.077V38.561Z" fill="white"/>
<path d="M149.601 6.65637H162.909V12.6242H156.025V20.1986H161.302V25.7074H156.025V32.5933H162.679V38.5611H149.601V6.65637Z" fill="white"/>
<path d="M164.286 33.0523H165.892L169.104 12.8537C169.334 12.1651 169.334 11.4765 169.563 10.7879C169.792 10.0993 170.022 9.41075 170.251 8.95169C170.71 8.49263 171.169 7.80404 171.857 7.57451C172.546 7.11545 173.464 7.11545 174.611 7.11545H183.33V33.0523H184.477V41.0859H179.429V38.5611H169.334V41.0859H164.286V33.0523ZM177.135 12.6242C176.676 12.6242 176.446 12.6242 175.988 12.8537C175.758 12.8537 175.529 13.0832 175.299 13.3128C175.07 13.5423 175.07 14.0014 174.84 14.4604C174.84 14.9195 174.611 15.3785 174.611 16.0671L172.087 33.0523H176.905L177.135 12.6242Z" fill="white"/>
<path d="M193.196 34.4295L192.737 38.3315H186.312L192.049 6.65637H198.932L204.668 38.3315H198.244L197.785 34.4295H193.196ZM193.884 29.3798H196.867L195.49 18.1329L193.884 29.3798Z" fill="white"/>
<path d="M206.045 6.65637H219.353V12.6242H212.47V38.3315H206.045V6.65637Z" fill="white"/>
<path d="M237.939 33.9704C237.939 34.659 237.939 35.1181 237.709 35.8067C237.48 36.2658 237.25 36.7248 237.021 37.1839C236.562 37.6429 236.103 37.8725 235.644 38.102C234.956 38.3315 234.267 38.5611 233.35 38.5611H226.007C225.089 38.5611 224.401 38.3315 223.713 38.102C223.024 37.8725 222.565 37.4134 222.336 37.1839C221.877 36.7248 221.648 36.2658 221.648 35.8067C221.418 35.3476 221.418 34.659 221.418 33.9704V10.7879C221.418 9.64026 221.648 8.49261 222.336 7.80402C223.024 7.11543 224.172 6.65637 225.548 6.65637H233.35C234.726 6.65637 235.874 7.11543 236.562 7.80402C237.25 8.49261 237.48 9.64026 237.48 10.7879V33.9704H237.939ZM228.531 12.3946C228.072 12.3946 228.072 12.6242 228.072 13.0832V32.3637C228.072 32.5933 228.072 32.8228 228.072 32.8228C228.072 32.8228 228.302 33.0523 228.531 33.0523H230.826C231.055 33.0523 231.285 33.0523 231.285 32.8228C231.285 32.8228 231.285 32.5933 231.285 32.3637V13.0832C231.285 12.6242 231.055 12.3946 230.826 12.3946H228.531Z" fill="white"/>
<path d="M240.692 6.65637H254V12.6242H247.116V38.3315H240.692V6.65637Z" fill="white"/>
</svg>
