<svg width="204" height="213" viewBox="0 0 204 213" fill="none" xmlns="http://www.w3.org/2000/svg">
<path d="M49.1632 38.5756C52.4412 39.4383 55.5467 39.0932 58.1346 37.3679C64.6906 33.3998 66.2434 23.2208 61.5851 14.767C58.9972 10.1087 55.0291 6.65821 50.5434 5.45052C49.5083 5.278 48.3006 5.10547 47.2654 5.10547C45.1951 5.10547 43.2973 5.62305 41.572 6.65821C35.016 10.6263 33.4633 20.8054 38.1215 29.2592C40.7094 33.9174 44.6775 37.3679 49.1632 38.5756Z" fill="#0070BC"/>
<path d="M170.967 108.449L170.794 108.276L170.449 108.104C169.587 107.414 168.897 106.896 167.862 106.551C161.651 103.618 154.577 106.724 151.471 107.931C151.299 107.931 151.126 108.104 151.126 108.104L150.609 108.276H150.264C149.056 108.449 147.503 108.621 145.951 108.966C142.673 109.484 138.359 110.347 133.701 110.002C126.283 109.484 120.589 106.724 116.276 104.653C114.033 103.618 112.135 102.583 110.583 102.41L109.893 102.238L109.548 101.548C107.305 97.5797 101.784 91.3688 90.5696 78.7743C84.1861 71.7007 82.9784 70.3205 82.4609 69.8029C82.1158 69.4579 82.1158 69.2854 81.2532 68.4227C72.7994 58.5887 70.5565 56.1733 69.0038 54.9657L68.4862 54.6206L68.3137 54.4481C64.3456 49.2723 59.8599 46.6844 54.8566 46.6844C50.3709 46.6844 46.0577 48.9272 42.4347 53.4129H42.2622C37.7765 57.7261 31.393 66.6975 26.2172 73.9436C13.4502 92.0589 2.06347 113.107 5.68652 116.558C6.03158 116.903 6.37663 116.903 6.37663 116.903C10.5173 117.765 18.9711 103.618 27.7699 88.4358C27.9425 88.0908 28.6326 87.0556 29.3227 85.8479C29.6677 85.5029 29.8402 85.1578 30.1853 84.6402L32.7732 81.3622L32.9457 85.5029C33.1183 91.5413 34.3259 97.4072 36.2237 102.41L36.3963 102.928L25.182 142.092C25.5271 146.577 29.8402 150.028 35.1886 150.028H37.4314L29.1501 202.131C28.6326 205.754 31.0479 209.032 34.4985 209.549C38.1215 210.067 41.3995 207.652 41.9171 204.201L50.1984 151.581V151.408L50.3709 150.028H65.2082V151.753C65.2082 152.443 65.2082 152.961 65.3807 153.478L75.9048 202.476C76.5949 205.926 80.0455 208.169 83.496 207.479C86.9465 206.789 89.1894 203.339 88.4993 199.888L77.8026 150.028L79.0103 149.51C82.4609 148.303 84.7037 145.542 84.8762 142.437L73.3169 102.065L73.4895 101.548C75.2147 96.5446 76.2499 90.6787 76.4224 84.8128V81.5348L79.0103 83.6051C79.3554 83.9501 79.7004 84.2952 80.218 84.6402C91.2597 95.1644 100.576 104.308 106.27 106.206L106.96 106.379L107.305 107.069C109.375 112.762 122.66 118.455 134.564 118.801C134.909 118.801 135.427 118.801 135.772 118.801H138.532L137.152 121.216C132.666 129.325 131.803 137.778 131.803 138.814C131.286 144.162 130.768 150.89 134.909 154.859C135.254 155.204 135.772 155.721 138.014 156.239L139.395 156.584L133.011 197.645C132.321 202.303 134.219 207.307 137.152 208.342C138.014 208.687 139.05 208.514 139.912 207.997C141.637 206.962 142.845 204.719 143.363 201.958L150.264 157.446H151.644C153.714 157.446 156.13 157.446 158.545 157.446H161.306V158.999C161.306 159.689 161.306 160.552 161.478 161.242L168.034 202.303C168.379 204.891 169.759 207.134 171.312 207.997C172.175 208.514 173.21 208.687 174.245 208.342C177.178 207.307 179.076 202.648 178.213 198.163L171.485 156.584L172.865 156.239C173.9 155.894 174.59 155.549 175.108 155.031C178.731 151.581 178.386 145.715 178.213 138.986V138.123C178.041 134.5 177.868 130.705 177.523 126.909L177.005 122.769L180.111 125.702C181.319 126.909 182.526 127.944 183.561 129.325C185.804 131.913 187.702 134.5 189.255 136.743C192.36 141.229 194.258 143.644 197.191 143.644C199.261 143.644 199.951 143.127 200.297 142.782C202.194 140.194 196.156 130.36 187.012 121.216C180.628 114.142 175.108 110.002 170.967 108.449Z" fill="#0070BC"/>
<path d="M145.778 94.9918C151.299 98.7874 159.925 96.027 164.929 88.6083C167.344 84.9853 168.724 80.8446 168.379 77.049C168.207 73.2535 166.654 70.3205 164.066 68.4227C161.478 66.6974 158.027 66.1799 154.577 67.3876C150.954 68.5952 147.503 71.1831 145.088 74.8062C139.74 82.2248 140.257 91.1962 145.778 94.9918Z" fill="#0070BC"/>
<path d="M48.3006 41.5086C49.6808 41.8536 51.061 42.0262 52.4412 42.0262C55.0291 42.0262 57.617 41.3361 59.8599 39.9558C67.7961 35.1251 69.8664 23.0482 64.3456 13.2142C61.4126 7.8659 56.5819 3.89779 51.4061 2.51758C47.438 1.48242 43.2973 2 40.0193 4.07032C32.0831 8.90106 30.0128 20.9779 35.5336 30.8119C38.294 36.1603 42.9523 40.1284 48.3006 41.5086ZM41.572 6.65822C43.2973 5.62306 45.1951 5.10548 47.2654 5.10548C48.3006 5.10548 49.5083 5.278 50.5434 5.62306C55.0291 6.83074 58.9972 10.1087 61.5851 14.9395C66.2434 23.3933 64.6906 33.5724 58.1346 37.5405C55.5467 39.0932 52.4412 39.6108 49.1632 38.7482C44.6775 37.5405 40.7094 34.2625 38.1215 29.4317C33.4633 20.8054 35.016 10.6263 41.572 6.65822Z" fill="white"/>
<path d="M143.88 97.5797C146.123 99.1325 148.711 99.8226 151.299 99.8226C156.992 99.8226 163.376 96.372 167.344 90.5061C170.277 86.3655 171.657 81.5348 171.312 77.0491C170.967 72.3908 169.069 68.4227 165.619 66.0074C162.168 63.592 157.855 63.0744 153.369 64.4546C149.056 65.8348 145.088 68.9403 142.155 73.081C136.289 81.8798 136.979 92.9215 143.88 97.5797ZM144.743 74.9787C147.158 71.3557 150.609 68.7678 154.232 67.5601C157.855 66.5249 161.133 66.87 163.721 68.5953C166.309 70.3205 167.861 73.426 168.034 77.2216C168.207 81.0172 166.999 85.1578 164.583 88.7809C159.58 96.027 150.954 98.9599 145.433 95.1644C140.257 91.1962 139.74 82.2249 144.743 74.9787Z" fill="white"/>
<path d="M172.175 105.516C171.312 104.826 170.277 104.136 169.242 103.618C161.823 99.9951 153.369 103.618 150.264 104.998C150.091 104.998 149.919 105.171 149.746 105.171C148.366 105.343 146.986 105.516 145.433 105.861C142.155 106.379 138.359 107.069 133.874 106.896C127.145 106.379 121.797 103.791 117.656 101.893C115.413 100.858 113.516 99.9951 111.79 99.4775C109.202 95.3369 103.682 88.9534 92.8124 76.704C86.429 69.6304 85.2213 68.2502 84.7037 67.7326C84.3586 67.3876 84.3586 67.3876 83.6685 66.525C74.8697 56.3459 72.7994 53.9305 70.9016 52.5503L70.729 52.3778C66.2433 46.6844 60.7225 43.5789 55.0291 43.5789C49.6808 43.5789 44.505 46.3393 40.1918 51.3426C35.5336 55.8283 28.9776 64.9722 23.8018 72.2183C17.2458 81.1897 -3.62992 111.899 3.44367 118.801C4.30631 119.663 5.34147 120.008 5.68652 120.008C12.07 121.388 19.3161 109.139 30.1853 90.5062C30.7029 94.9918 31.738 99.305 33.1182 103.273L22.2491 141.747V142.092C22.2491 147.785 27.2523 152.443 33.8083 153.133L26.2172 201.786C25.3545 207.134 28.9776 211.965 34.3259 212.828C34.8435 212.828 35.3611 213 35.8787 213C40.5369 213 44.6775 209.549 45.3676 204.891L53.4764 153.306H62.4478C62.4478 153.651 62.4478 153.823 62.6203 154.168L73.1444 203.166C74.1796 208.342 79.3554 211.62 84.5312 210.585C89.707 209.549 92.985 204.374 91.9498 199.198L81.5982 151.753C85.7389 149.855 88.1542 146.232 88.1542 142.092V141.919L76.7675 102.065C78.1477 97.7523 79.1828 93.0941 79.5279 88.2633C90.2245 98.4424 98.6783 106.551 104.717 108.966C108.167 116.04 121.969 121.388 133.356 121.906C129.561 129.842 128.87 137.433 128.698 138.469C128.18 144.162 127.663 151.926 132.666 156.929C133.356 157.619 134.046 158.137 135.944 158.654L130.078 196.783C129.043 203.166 131.803 209.377 136.289 210.93C138.014 211.62 139.912 211.275 141.637 210.412C144.053 208.859 145.951 205.754 146.468 202.131L153.197 160.207C154.922 160.207 156.647 160.207 158.373 160.207C158.373 160.552 158.373 160.897 158.545 161.242L165.101 202.303C165.619 205.926 167.344 208.859 169.932 210.24C171.657 211.275 173.555 211.447 175.453 210.93C179.938 209.377 182.526 203.511 181.664 197.3L175.453 158.309C176.488 157.792 177.005 157.274 177.523 156.929C182.181 152.616 181.836 145.715 181.491 138.469V137.606C181.319 135.363 181.319 132.948 181.146 130.705C181.146 130.877 181.319 130.877 181.319 131.05C183.561 133.465 185.287 135.881 186.667 138.123C189.945 142.782 192.36 146.405 197.191 146.405C200.469 146.405 202.022 145.197 202.884 144.162C208.06 137.433 191.325 120.353 189.427 118.455C182.699 111.727 176.833 107.414 172.175 105.516ZM200.469 142.264C200.124 142.609 199.434 143.127 197.364 143.127C194.258 143.127 192.533 140.711 189.427 136.226C187.875 133.983 186.149 131.567 183.734 128.807C182.699 127.599 181.491 126.392 180.283 125.184L177.178 122.251L177.696 126.392C178.041 130.187 178.213 133.81 178.386 137.606V138.469C178.731 145.197 178.903 151.063 175.28 154.514C174.763 155.031 174.245 155.376 173.037 155.721L171.657 156.066L178.386 197.645C179.076 202.131 177.178 206.789 174.418 207.824C173.382 208.169 172.52 207.997 171.485 207.479C169.759 206.444 168.552 204.374 168.207 201.786L161.651 160.724C161.478 160.034 161.478 159.344 161.478 158.482V156.929H158.718C156.302 156.929 154.059 156.929 151.817 156.929H150.436L143.535 201.441C143.018 204.201 141.81 206.617 140.085 207.479C139.222 207.997 138.359 208.169 137.324 207.824C134.391 206.789 132.494 201.958 133.184 197.128L139.567 156.066L138.187 155.721C135.772 155.204 135.254 154.686 135.081 154.341C130.941 150.373 131.631 143.644 131.976 138.296C131.976 137.433 132.839 128.98 137.324 120.698L138.704 118.283H135.944C135.426 118.283 135.081 118.283 134.736 118.283C122.832 117.938 109.548 112.244 107.477 106.551L107.132 105.861L106.615 106.206C100.921 104.308 91.4322 95.1644 80.5631 84.6402C80.218 84.2952 79.7004 83.9501 79.3554 83.6051L76.7675 81.5348V84.8128C76.5949 90.6787 75.5598 96.3721 73.8345 101.548L73.662 102.065L85.2213 142.437C85.0487 145.37 82.8059 148.13 79.3554 149.51L78.1477 150.028L88.8443 199.888C89.5344 203.339 87.4641 206.789 83.8411 207.479C80.3905 208.169 76.94 205.926 76.2499 202.476L65.7258 153.478C65.5532 152.961 65.5532 152.443 65.5532 151.753V150.028H50.716L50.5434 151.408V151.581L42.2622 204.201C41.7446 207.824 38.294 210.24 34.8435 209.549C31.2205 209.032 28.8051 205.581 29.4952 202.131L37.4314 150.028H35.1886C29.8402 150.028 25.5271 146.577 25.3545 142.264L36.5688 103.101L36.3962 102.583C34.4985 97.5797 33.4633 91.7138 33.1182 85.6754L32.9457 81.5348L30.3578 84.8128C30.0128 85.1578 29.8402 85.5029 29.4952 86.0205C28.6326 87.2281 28.115 88.0908 27.9424 88.6084C19.1436 103.791 10.8623 117.938 6.54915 117.075C6.37662 117.075 6.03157 116.903 5.85904 116.73C2.23599 113.28 13.4502 92.2314 26.3897 74.1161C31.5655 66.87 37.7765 57.8986 42.4347 53.5855L42.6072 53.4129C46.2303 49.0998 50.5434 46.6844 55.0291 46.6844C59.8599 46.6844 64.5181 49.4448 68.4862 54.4481L68.6587 54.6206L69.1763 54.9657C70.9016 56.1734 72.9719 58.5887 81.4257 68.4227C82.1158 69.2854 82.2883 69.4579 82.6334 69.803C83.1509 70.3205 84.3586 71.7008 90.7421 78.7743C101.956 91.3688 107.305 97.5797 109.72 101.548L110.065 102.238L110.755 102.41C112.308 102.756 114.206 103.618 116.449 104.653C120.762 106.724 126.628 109.484 133.874 110.002C138.705 110.347 142.845 109.657 146.123 108.966C147.848 108.621 149.229 108.449 150.436 108.276H150.781L151.299 108.104C151.471 108.104 151.644 107.931 151.644 107.931C154.749 106.551 161.823 103.618 168.034 106.551C168.897 106.896 169.759 107.586 170.622 108.104L170.794 108.276L170.967 108.449C175.28 110.002 180.801 114.142 187.184 120.698C196.328 129.842 202.367 139.676 200.469 142.264Z" fill="white"/>
</svg>
