<svg width="247" height="117" viewBox="0 0 247 117" fill="none" xmlns="http://www.w3.org/2000/svg">
<path d="M125.119 25.9999H129.021C131.388 25.9999 132.457 24.8216 132.457 23.2606C132.457 21.6846 131.353 20.7947 130.344 20.74V20.6405C131.279 20.4019 132.059 19.7655 132.059 18.4928C132.059 16.9864 131.015 15.8181 128.847 15.8181H125.119V25.9999ZM126.655 24.6824V21.4211H128.927C130.16 21.4211 130.931 22.2165 130.931 23.186C130.931 24.0411 130.349 24.6824 128.872 24.6824H126.655ZM126.655 20.2229V17.1256H128.753C129.971 17.1256 130.553 17.767 130.553 18.6121C130.553 19.5965 129.747 20.2229 128.713 20.2229H126.655Z" fill="#003B6A"/>
<path d="M137.376 26.154C139.181 26.154 140.349 25.0702 140.513 23.5837H139.067C138.878 24.409 138.236 24.8962 137.386 24.8962C136.128 24.8962 135.318 23.8472 135.318 22.1817C135.318 20.5461 136.143 19.517 137.386 19.517C138.331 19.517 138.907 20.1135 139.067 20.8295H140.513C140.354 19.2883 139.096 18.2641 137.361 18.2641C135.209 18.2641 133.817 19.8849 133.817 22.2165C133.817 24.5184 135.159 26.154 137.376 26.154Z" fill="#003B6A"/>
<path d="M145.394 26.154C147.06 26.154 148.238 25.3337 148.576 24.0908L147.169 23.8373C146.901 24.5581 146.254 24.926 145.409 24.926C144.136 24.926 143.281 24.1008 143.241 22.6292H148.67V22.1022C148.67 19.343 147.02 18.2641 145.29 18.2641C143.162 18.2641 141.76 19.8849 141.76 22.2314C141.76 24.6029 143.142 26.154 145.394 26.154ZM143.246 21.5155C143.306 20.4317 144.092 19.4921 145.3 19.4921C146.453 19.4921 147.209 20.3472 147.214 21.5155H143.246Z" fill="#003B6A"/>
<path d="M150.32 28.8635H151.806V24.8117H151.896C152.164 25.2989 152.711 26.1491 154.103 26.1491C155.953 26.1491 157.295 24.6675 157.295 22.1966C157.295 19.7208 155.933 18.2641 154.088 18.2641C152.671 18.2641 152.159 19.1292 151.896 19.6015H151.771V18.3635H150.32V28.8635ZM151.776 22.1817C151.776 20.5858 152.472 19.5269 153.77 19.5269C155.117 19.5269 155.793 20.6654 155.793 22.1817C155.793 23.713 155.097 24.8813 153.77 24.8813C152.492 24.8813 151.776 23.7876 151.776 22.1817Z" fill="#003B6A"/>
<path d="M162.177 26.154C164.33 26.154 165.737 24.578 165.737 22.2165C165.737 19.8401 164.33 18.2641 162.177 18.2641C160.024 18.2641 158.617 19.8401 158.617 22.2165C158.617 24.578 160.024 26.154 162.177 26.154ZM162.182 24.9062C160.775 24.9062 160.119 23.6782 160.119 22.2116C160.119 20.7499 160.775 19.507 162.182 19.507C163.579 19.507 164.235 20.7499 164.235 22.2116C164.235 23.6782 163.579 24.9062 162.182 24.9062Z" fill="#003B6A"/>
<path d="M170.613 26.154C172.417 26.154 173.586 25.0702 173.75 23.5837H172.303C172.114 24.409 171.473 24.8962 170.622 24.8962C169.365 24.8962 168.554 23.8472 168.554 22.1817C168.554 20.5461 169.38 19.517 170.622 19.517C171.567 19.517 172.144 20.1135 172.303 20.8295H173.75C173.591 19.2883 172.333 18.2641 170.598 18.2641C168.445 18.2641 167.053 19.8849 167.053 22.2165C167.053 24.5184 168.395 26.154 170.613 26.154Z" fill="#003B6A"/>
<path d="M178.556 26.154C180.361 26.154 181.529 25.0702 181.693 23.5837H180.246C180.057 24.409 179.416 24.8962 178.566 24.8962C177.308 24.8962 176.498 23.8472 176.498 22.1817C176.498 20.5461 177.323 19.517 178.566 19.517C179.51 19.517 180.087 20.1135 180.246 20.8295H181.693C181.534 19.2883 180.276 18.2641 178.541 18.2641C176.388 18.2641 174.996 19.8849 174.996 22.2165C174.996 24.5184 176.339 26.154 178.556 26.154Z" fill="#003B6A"/>
<path d="M184.739 23.9168V18.3635H183.283V25.9999H184.898L188.249 20.4417V25.9999H189.706V18.3635H188.105L184.739 23.9168Z" fill="#003B6A"/>
<path d="M193.161 23.9168V18.3635H191.704V25.9999H193.32L196.671 20.4417V25.9999H198.128V18.3635H196.527L193.161 23.9168ZM195.891 15.7783C195.891 16.2805 195.612 16.7229 194.916 16.7229C194.21 16.7229 193.947 16.2755 193.947 15.7783H192.729C192.729 16.8969 193.579 17.6675 194.916 17.6675C196.263 17.6675 197.114 16.8969 197.114 15.7783H195.891Z" fill="#003B6A"/>
<path d="M203.343 26.154C205.148 26.154 206.316 25.0702 206.48 23.5837H205.033C204.844 24.409 204.203 24.8962 203.353 24.8962C202.095 24.8962 201.285 23.8472 201.285 22.1817C201.285 20.5461 202.11 19.517 203.353 19.517C204.298 19.517 204.874 20.1135 205.033 20.8295H206.48C206.321 19.2883 205.063 18.2641 203.328 18.2641C201.175 18.2641 199.783 19.8849 199.783 22.2165C199.783 24.5184 201.126 26.154 203.343 26.154Z" fill="#003B6A"/>
<path d="M208.07 25.9999H209.556V22.9474H210.521L212.823 25.9999H214.667L211.674 22.0773L214.632 18.3635H212.793L210.272 21.5653H209.556V18.3635H208.07V25.9999Z" fill="#003B6A"/>
<path d="M217.278 23.9168V18.3635H215.822V25.9999H217.437L220.788 20.4417V25.9999H222.245V18.3635H220.644L217.278 23.9168Z" fill="#003B6A"/>
<path d="M225.7 23.9168V18.3635H224.244V25.9999H225.859L229.21 20.4417V25.9999H230.667V18.3635H229.066L225.7 23.9168ZM228.43 15.7783C228.43 16.2805 228.151 16.7229 227.455 16.7229C226.749 16.7229 226.486 16.2755 226.486 15.7783H225.268C225.268 16.8969 226.118 17.6675 227.455 17.6675C228.803 17.6675 229.653 16.8969 229.653 15.7783H228.43Z" fill="#003B6A"/>
<path d="M131.224 35.3635H129.777V41.7172H126.451V35.3635H124.994V42.9999H130.881V45.4608H132.352V41.7819H131.224V35.3635Z" fill="#003B6A"/>
<path d="M137.205 43.154C138.87 43.154 140.048 42.3337 140.386 41.0908L138.98 40.8373C138.711 41.5582 138.065 41.926 137.22 41.926C135.947 41.926 135.092 41.1008 135.052 39.6292H140.481V39.1022C140.481 36.343 138.83 35.2641 137.1 35.2641C134.972 35.2641 133.57 36.8849 133.57 39.2314C133.57 41.6029 134.953 43.154 137.205 43.154ZM135.057 38.5155C135.117 37.4317 135.902 36.4921 137.11 36.4921C138.264 36.4921 139.019 37.3472 139.024 38.5155H135.057Z" fill="#003B6A"/>
<path d="M143.587 35.3635H142.13V42.9999H143.587V39.828H146.893V42.9999H148.345V35.3635H146.893V38.5404H143.587V35.3635Z" fill="#003B6A"/>
<path d="M149.386 36.6462H151.887V42.9999H153.339V36.6462H155.83V35.3635H149.386V36.6462Z" fill="#003B6A"/>
<path d="M157.402 45.8635H158.888V41.8117H158.978C159.246 42.2989 159.793 43.1491 161.185 43.1491C163.035 43.1491 164.377 41.6675 164.377 39.1966C164.377 36.7208 163.015 35.2641 161.17 35.2641C159.753 35.2641 159.241 36.1292 158.978 36.6015H158.853V35.3635H157.402V45.8635ZM158.858 39.1817C158.858 37.5858 159.554 36.5269 160.852 36.5269C162.199 36.5269 162.875 37.6654 162.875 39.1817C162.875 40.713 162.179 41.8813 160.852 41.8813C159.574 41.8813 158.858 40.7876 158.858 39.1817Z" fill="#003B6A"/>
<path d="M169.747 45.8635H171.234V41.8117H171.323C171.592 42.2989 172.139 43.1491 173.531 43.1491C175.38 43.1491 176.723 41.6675 176.723 39.1966C176.723 36.7208 175.36 35.2641 173.516 35.2641C172.099 35.2641 171.587 36.1292 171.323 36.6015H171.199V35.3635H169.747V45.8635ZM171.204 39.1817C171.204 37.5858 171.9 36.5269 173.198 36.5269C174.545 36.5269 175.221 37.6654 175.221 39.1817C175.221 40.713 174.525 41.8813 173.198 41.8813C171.92 41.8813 171.204 40.7876 171.204 39.1817Z" fill="#003B6A"/>
<path d="M180.61 43.1689C181.873 43.1689 182.584 42.5276 182.868 41.9559H182.927V42.9999H184.379V37.9289C184.379 35.7066 182.629 35.2641 181.416 35.2641C180.034 35.2641 178.761 35.8209 178.264 37.213L179.661 37.5312C179.88 36.9893 180.436 36.4672 181.436 36.4672C182.395 36.4672 182.887 36.9694 182.887 37.8344V37.8692C182.887 38.4111 182.331 38.4012 180.958 38.5603C179.512 38.7293 178.03 39.1072 178.03 40.8422C178.03 42.3437 179.159 43.1689 180.61 43.1689ZM180.934 41.9758C180.093 41.9758 179.487 41.5979 179.487 40.8621C179.487 40.0667 180.193 39.7833 181.053 39.6689C181.535 39.6043 182.679 39.4751 182.892 39.2613V40.2457C182.892 41.1505 182.171 41.9758 180.934 41.9758Z" fill="#003B6A"/>
<path d="M185.906 40.9814C185.951 42.3138 187.199 43.154 188.894 43.154C190.634 43.154 191.892 42.279 191.892 40.877C191.892 39.8827 191.261 39.1469 190.376 39.0873V39.0077C191.176 38.779 191.728 38.2421 191.728 37.4019C191.728 36.1491 190.654 35.2641 188.954 35.2641C187.323 35.2641 186.125 36.1341 186.095 37.4168H187.597C187.627 36.8451 188.218 36.4474 189.029 36.4474C189.829 36.4474 190.296 36.865 190.296 37.4864C190.296 38.0681 189.879 38.4957 189.038 38.4957H187.796V39.664H189.038C189.884 39.664 190.426 40.1313 190.426 40.8224C190.426 41.6029 189.735 41.9559 188.879 41.9559C188.039 41.9559 187.472 41.6079 187.428 40.9814H185.906Z" fill="#003B6A"/>
<path d="M193.427 42.9999H197.076C198.747 42.9999 199.726 42.1547 199.726 40.9417C199.726 39.8082 198.856 39.1121 197.837 38.9928C198.777 38.8138 199.398 38.2968 199.398 37.4019C199.398 36.1491 198.314 35.3635 196.594 35.3635H193.427V42.9999ZM194.824 41.757V39.6341H197.076C197.812 39.6341 198.255 40.0667 198.255 40.7776C198.255 41.3841 197.812 41.757 197.076 41.757H194.824ZM194.824 38.5454V36.6214H196.594C197.439 36.6214 197.951 36.9743 197.951 37.561C197.951 38.1725 197.444 38.5454 196.609 38.5454H194.824Z" fill="#003B6A"/>
<path d="M202.814 40.9168V35.3635H201.357V42.9999H202.973L206.323 37.4417V42.9999H207.78V35.3635H206.179L202.814 40.9168Z" fill="#003B6A"/>
<path d="M208.832 36.6462H211.332V42.9999H212.784V36.6462H215.275V35.3635H208.832V36.6462Z" fill="#003B6A"/>
<path d="M218.304 40.9168V35.3635H216.847V42.9999H218.463L221.814 37.4417V42.9999H223.27V35.3635H221.67L218.304 40.9168Z" fill="#003B6A"/>
<path d="M229.823 42.9999H231.22V35.3635H227.993C226.233 35.3635 225.16 36.2734 225.16 37.7101C225.16 38.7144 225.687 39.4552 226.596 39.7982L224.812 42.9999H226.333L227.998 40.012H229.823V42.9999ZM229.823 38.8089H227.894C227.084 38.8089 226.611 38.3813 226.616 37.73C226.611 37.0738 227.123 36.6313 227.993 36.6313H229.823V38.8089Z" fill="#003B6A"/>
<path d="M126.173 52.3635H124.542L126.889 56.1817L124.512 59.9999H126.143L127.858 57.1462L129.578 59.9999H131.204L128.803 56.1817L131.184 52.3635H129.558L127.858 55.3366L126.173 52.3635Z" fill="#003B6A"/>
<path d="M133.65 62.8635C134.878 62.8635 135.654 62.2222 136.096 61.0191L139.253 52.3785L137.647 52.3635L135.713 58.2897H135.634L133.7 52.3635H132.109L134.903 60.0993L134.719 60.6064C134.341 61.6206 133.809 61.7052 132.994 61.4814L132.636 62.6995C132.815 62.779 133.203 62.8635 133.65 62.8635Z" fill="#003B6A"/>
<path d="M139.279 62.2023H140.751V59.9999H146.075V62.2023H147.527V58.7123H146.354V52.3635H141.163L140.925 55.2123C140.766 57.1363 140.532 58.1405 139.901 58.7123H139.279V62.2023ZM141.491 58.7123C141.999 58.0013 142.187 56.8181 142.337 55.2123L142.496 53.6363H144.902V58.7123H141.491Z" fill="#003B6A"/>
<path d="M152.197 60.154C154.349 60.154 155.756 58.578 155.756 56.2165C155.756 53.8401 154.349 52.2641 152.197 52.2641C150.044 52.2641 148.637 53.8401 148.637 56.2165C148.637 58.578 150.044 60.154 152.197 60.154ZM152.201 58.9062C150.795 58.9062 150.138 57.6782 150.138 56.2116C150.138 54.7499 150.795 53.507 152.201 53.507C153.598 53.507 154.255 54.7499 154.255 56.2116C154.255 57.6782 153.598 58.9062 152.201 58.9062Z" fill="#003B6A"/>
<path d="M156.614 59.9999H158.379L160.775 56.8181H161.272V59.9999H162.759V56.8181H163.256L165.637 59.9999H167.402L164.459 56.0922L167.367 52.3635H165.637L163.276 55.5354H162.759V52.3635H161.272V55.5354H160.74L158.379 52.3635H156.649L159.572 56.0922L156.614 59.9999Z" fill="#003B6A"/>
<path d="M171.89 60.154C173.556 60.154 174.734 59.3337 175.072 58.0908L173.665 57.8373C173.397 58.5581 172.75 58.926 171.905 58.926C170.632 58.926 169.777 58.1008 169.738 56.6292H175.167V56.1022C175.167 53.343 173.516 52.2641 171.786 52.2641C169.658 52.2641 168.256 53.8849 168.256 56.2314C168.256 58.6029 169.638 60.154 171.89 60.154ZM169.743 55.5155C169.802 54.4317 170.588 53.4921 171.796 53.4921C172.949 53.4921 173.705 54.3472 173.71 55.5155H169.743Z" fill="#003B6A"/>
<path d="M180.032 60.154C181.837 60.154 183.005 59.0702 183.17 57.5837H181.723C181.534 58.409 180.893 58.8962 180.042 58.8962C178.785 58.8962 177.974 57.8472 177.974 56.1817C177.974 54.5461 178.799 53.517 180.042 53.517C180.987 53.517 181.564 54.1135 181.723 54.8295H183.17C183.01 53.2883 181.753 52.2641 180.018 52.2641C177.865 52.2641 176.473 53.8849 176.473 56.2165C176.473 58.5184 177.815 60.154 180.032 60.154Z" fill="#003B6A"/>
<path d="M184.181 53.6462H186.682V59.9999H188.134V53.6462H190.624V52.3635H184.181V53.6462Z" fill="#003B6A"/>
<path d="M192.197 59.9999H195.846C197.516 59.9999 198.496 59.1547 198.496 57.9417C198.496 56.8082 197.626 56.1121 196.606 55.9928C197.546 55.8138 198.168 55.2968 198.168 54.4019C198.168 53.1491 197.084 52.3635 195.364 52.3635H192.197V59.9999ZM193.594 58.757V56.6341H195.846C196.582 56.6341 197.024 57.0667 197.024 57.7776C197.024 58.3841 196.582 58.757 195.846 58.757H193.594ZM193.594 55.5454V53.6214H195.364C196.209 53.6214 196.721 53.9743 196.721 54.561C196.721 55.1725 196.214 55.5454 195.379 55.5454H193.594Z" fill="#003B6A"/>
<path d="M203.418 60.154C205.083 60.154 206.261 59.3337 206.599 58.0908L205.192 57.8373C204.924 58.5581 204.278 58.926 203.432 58.926C202.16 58.926 201.305 58.1008 201.265 56.6292H206.694V56.1022C206.694 53.343 205.043 52.2641 203.313 52.2641C201.185 52.2641 199.783 53.8849 199.783 56.2314C199.783 58.6029 201.165 60.154 203.418 60.154ZM201.27 55.5155C201.329 54.4317 202.115 53.4921 203.323 53.4921C204.477 53.4921 205.232 54.3472 205.237 55.5155H201.27Z" fill="#003B6A"/>
<path d="M209.8 52.3635H208.343V59.9999H209.8V56.828H213.106V59.9999H214.558V52.3635H213.106V55.5404H209.8V52.3635Z" fill="#003B6A"/>
<path d="M218.003 52.3635H216.546V59.9999H218.003V56.828H221.309V59.9999H222.761V52.3635H221.309V55.5404H218.003V52.3635Z" fill="#003B6A"/>
<path d="M227.966 60.154C230.119 60.154 231.526 58.578 231.526 56.2165C231.526 53.8401 230.119 52.2641 227.966 52.2641C225.813 52.2641 224.406 53.8401 224.406 56.2165C224.406 58.578 225.813 60.154 227.966 60.154ZM227.971 58.9062C226.564 58.9062 225.908 57.6782 225.908 56.2116C225.908 54.7499 226.564 53.507 227.971 53.507C229.368 53.507 230.024 54.7499 230.024 56.2116C230.024 57.6782 229.368 58.9062 227.971 58.9062Z" fill="#003B6A"/>
<path d="M238.067 52.3635H233.185V59.9999H234.652V53.6462H238.067V52.3635Z" fill="#003B6A"/>
<path d="M242.499 60.154C244.652 60.154 246.059 58.578 246.059 56.2165C246.059 53.8401 244.652 52.2641 242.499 52.2641C240.347 52.2641 238.94 53.8401 238.94 56.2165C238.94 58.578 240.347 60.154 242.499 60.154ZM242.504 58.9062C241.097 58.9062 240.441 57.6782 240.441 56.2116C240.441 54.7499 241.097 53.507 242.504 53.507C243.901 53.507 244.557 54.7499 244.557 56.2116C244.557 57.6782 243.901 58.9062 242.504 58.9062Z" fill="#003B6A"/>
<path d="M124.572 70.6462H127.073V76.9999H128.524V70.6462H131.015V69.3635H124.572V70.6462Z" fill="#003B6A"/>
<path d="M132.587 76.9999H136.236C137.907 76.9999 138.886 76.1547 138.886 74.9417C138.886 73.8082 138.016 73.1121 136.997 72.9928C137.937 72.8138 138.558 72.2968 138.558 71.4019C138.558 70.1491 137.474 69.3635 135.754 69.3635H132.587V76.9999ZM133.984 75.757V73.6341H136.236C136.972 73.6341 137.415 74.0667 137.415 74.7776C137.415 75.3841 136.972 75.757 136.236 75.757H133.984ZM133.984 72.5454V70.6214H135.754C136.599 70.6214 137.111 70.9743 137.111 71.561C137.111 72.1725 136.604 72.5454 135.769 72.5454H133.984Z" fill="#003B6A"/>
<path d="M143.734 77.154C145.886 77.154 147.293 75.578 147.293 73.2165C147.293 70.8401 145.886 69.2641 143.734 69.2641C141.581 69.2641 140.174 70.8401 140.174 73.2165C140.174 75.578 141.581 77.154 143.734 77.154ZM143.739 75.9062C142.332 75.9062 141.675 74.6782 141.675 73.2116C141.675 71.7499 142.332 70.507 143.739 70.507C145.136 70.507 145.792 71.7499 145.792 73.2116C145.792 74.6782 145.136 75.9062 143.739 75.9062Z" fill="#003B6A"/>
<path d="M148.953 79.8635H150.439V75.8117H150.529C150.797 76.2989 151.344 77.1491 152.736 77.1491C154.585 77.1491 155.928 75.6675 155.928 73.1966C155.928 70.7208 154.565 69.2641 152.721 69.2641C151.304 69.2641 150.792 70.1292 150.529 70.6015H150.404V69.3635H148.953V79.8635ZM150.409 73.1817C150.409 71.5859 151.105 70.5269 152.403 70.5269C153.75 70.5269 154.426 71.6654 154.426 73.1817C154.426 74.713 153.73 75.8813 152.403 75.8813C151.125 75.8813 150.409 74.7876 150.409 73.1817Z" fill="#003B6A"/>
<path d="M163.723 69.3635H162.271V73.1668C161.769 73.301 161.262 73.3806 160.681 73.3806C159.666 73.3806 159.04 72.9232 159.04 71.8444V69.3486H157.593V71.8444C157.593 73.7535 158.791 74.6633 160.681 74.6633C161.257 74.6633 161.784 74.5837 162.271 74.4594V76.9999H163.723V69.3635Z" fill="#003B6A"/>
<path d="M168.992 77.154C170.657 77.154 171.836 76.3337 172.174 75.0908L170.767 74.8373C170.498 75.5581 169.852 75.926 169.007 75.926C167.734 75.926 166.879 75.1008 166.839 73.6292H172.268V73.1022C172.268 70.343 170.618 69.2641 168.887 69.2641C166.76 69.2641 165.358 70.8849 165.358 73.2314C165.358 75.6029 166.74 77.154 168.992 77.154ZM166.844 72.5155C166.904 71.4317 167.689 70.4921 168.897 70.4921C170.051 70.4921 170.806 71.3472 170.811 72.5155H166.844Z" fill="#003B6A"/>
<path d="M177.134 77.154C178.939 77.154 180.107 76.0702 180.271 74.5837H178.824C178.635 75.409 177.994 75.8962 177.144 75.8962C175.886 75.8962 175.076 74.8472 175.076 73.1817C175.076 71.5461 175.901 70.517 177.144 70.517C178.089 70.517 178.665 71.1135 178.824 71.8295H180.271C180.112 70.2883 178.854 69.2641 177.119 69.2641C174.966 69.2641 173.574 70.8849 173.574 73.2165C173.574 75.5184 174.917 77.154 177.134 77.154Z" fill="#003B6A"/>
<path d="M181.283 70.6462H183.784V76.9999H185.235V70.6462H187.726V69.3635H181.283V70.6462Z" fill="#003B6A"/>
<path d="M189.298 76.9999H192.947C194.618 76.9999 195.597 76.1547 195.597 74.9417C195.597 73.8082 194.727 73.1121 193.708 72.9928C194.648 72.8138 195.269 72.2968 195.269 71.4019C195.269 70.1491 194.185 69.3635 192.465 69.3635H189.298V76.9999ZM190.695 75.757V73.6341H192.947C193.683 73.6341 194.126 74.0667 194.126 74.7776C194.126 75.3841 193.683 75.757 192.947 75.757H190.695ZM190.695 72.5454V70.6214H192.465C193.31 70.6214 193.822 70.9743 193.822 71.561C193.822 72.1725 193.315 72.5454 192.48 72.5454H190.695Z" fill="#003B6A"/>
<path d="M199.45 77.1689C200.713 77.1689 201.424 76.5276 201.707 75.9559H201.767V76.9999H203.219V71.9289C203.219 69.7066 201.469 69.2641 200.256 69.2641C198.874 69.2641 197.601 69.8209 197.104 71.213L198.501 71.5312C198.719 70.9893 199.276 70.4672 200.276 70.4672C201.235 70.4672 201.727 70.9694 201.727 71.8344V71.8692C201.727 72.4111 201.17 72.4012 199.798 72.5603C198.352 72.7293 196.87 73.1072 196.87 74.8422C196.87 76.3437 197.999 77.1689 199.45 77.1689ZM199.773 75.9758C198.933 75.9758 198.327 75.5979 198.327 74.8621C198.327 74.0667 199.033 73.7833 199.893 73.6689C200.375 73.6043 201.518 73.4751 201.732 73.2613V74.2457C201.732 75.1505 201.011 75.9758 199.773 75.9758Z" fill="#003B6A"/>
<path d="M210.36 74.9168V69.3635H208.904V76.9999H210.519L213.87 71.4417V76.9999H215.327V69.3635H213.726L210.36 74.9168Z" fill="#003B6A"/>
<path d="M129.882 86.3635H124.999V93.9999H126.466V87.6462H129.882V86.3635Z" fill="#003B6A"/>
<path d="M132.392 96.8635C133.62 96.8635 134.396 96.2222 134.838 95.0191L137.995 86.3785L136.389 86.3635L134.455 92.2897H134.376L132.442 86.3635H130.851L133.645 94.0993L133.461 94.6064C133.083 95.6206 132.551 95.7052 131.736 95.4814L131.378 96.6995C131.557 96.779 131.945 96.8635 132.392 96.8635Z" fill="#003B6A"/>
<path d="M143.681 92.1604L141.265 86.3635H139.396V93.9999H140.853V88.4466L143.13 93.9999H144.233L146.55 88.4665V93.9999H147.997V86.3635H146.147L143.681 92.1604Z" fill="#003B6A"/>
<path d="M152.2 94.1689C153.463 94.1689 154.174 93.5276 154.457 92.9559H154.517V93.9999H155.969V88.9289C155.969 86.7066 154.219 86.2641 153.006 86.2641C151.624 86.2641 150.351 86.8209 149.854 88.213L151.251 88.5312C151.469 87.9893 152.026 87.4672 153.026 87.4672C153.985 87.4672 154.477 87.9694 154.477 88.8344V88.8692C154.477 89.4111 153.92 89.4012 152.548 89.5603C151.102 89.7293 149.62 90.1072 149.62 91.8422C149.62 93.3437 150.749 94.1689 152.2 94.1689ZM152.523 92.9758C151.683 92.9758 151.077 92.5979 151.077 91.8621C151.077 91.0667 151.783 90.7833 152.643 90.6689C153.125 90.6043 154.268 90.475 154.482 90.2613V91.2456C154.482 92.1505 153.761 92.9758 152.523 92.9758Z" fill="#003B6A"/>
<path d="M159.405 86.3635H157.949V93.9999H159.405V90.828H162.711V93.9999H164.163V86.3635H162.711V89.5404H159.405V86.3635Z" fill="#003B6A"/>
<path d="M167.608 91.9168V86.3635H166.152V93.9999H167.768L171.118 88.4417V93.9999H172.575V86.3635H170.974L167.608 91.9168Z" fill="#003B6A"/>
<path d="M173.627 87.6462H176.127V93.9999H177.579V87.6462H180.07V86.3635H173.627V87.6462Z" fill="#003B6A"/>
<path d="M183.509 94.1689C184.772 94.1689 185.483 93.5276 185.766 92.9559H185.826V93.9999H187.277V88.9289C187.277 86.7066 185.527 86.2641 184.314 86.2641C182.932 86.2641 181.659 86.8209 181.162 88.213L182.559 88.5312C182.778 87.9893 183.335 87.4672 184.334 87.4672C185.294 87.4672 185.786 87.9694 185.786 88.8344V88.8692C185.786 89.4111 185.229 89.4012 183.857 89.5603C182.41 89.7293 180.929 90.1072 180.929 91.8422C180.929 93.3437 182.057 94.1689 183.509 94.1689ZM183.832 92.9758C182.992 92.9758 182.385 92.5979 182.385 91.8621C182.385 91.0667 183.091 90.7833 183.951 90.6689C184.434 90.6043 185.577 90.475 185.791 90.2613V91.2456C185.791 92.1505 185.07 92.9758 183.832 92.9758Z" fill="#003B6A"/>
<path d="M189.257 96.8635H190.744V92.8117H190.833C191.102 93.2989 191.649 94.1491 193.041 94.1491C194.89 94.1491 196.232 92.6675 196.232 90.1966C196.232 87.7208 194.87 86.2641 193.026 86.2641C191.609 86.2641 191.097 87.1292 190.833 87.6015H190.709V86.3635H189.257V96.8635ZM190.714 90.1817C190.714 88.5858 191.41 87.5269 192.708 87.5269C194.055 87.5269 194.731 88.6654 194.731 90.1817C194.731 91.713 194.035 92.8813 192.708 92.8813C191.43 92.8813 190.714 91.7875 190.714 90.1817Z" fill="#003B6A"/>
<path d="M199.355 86.3635H197.898V93.9999H199.355V90.828H202.661V93.9999H204.112V86.3635H202.661V89.5404H199.355V86.3635Z" fill="#003B6A"/>
<path d="M207.558 88.9885V86.3635H206.101V93.9999H209.437C211.306 93.9999 212.35 92.9161 212.35 91.4793C212.35 90.0127 211.306 88.9885 209.437 88.9885H207.558ZM213.434 93.9999H214.921V86.3635H213.434V93.9999ZM207.558 90.2712H209.437C210.292 90.2712 210.904 90.7883 210.904 91.5241C210.904 92.2201 210.292 92.7172 209.437 92.7172H207.558V90.2712Z" fill="#003B6A"/>
<path d="M218.089 86.3635H216.458L218.805 90.1817L216.428 93.9999H218.059L219.774 91.1462L221.494 93.9999H223.12L220.719 90.1817L223.1 86.3635H221.474L219.774 89.3366L218.089 86.3635Z" fill="#003B6A"/>
<path d="M124.572 104.646H127.073V111H128.524V104.646H131.015V103.364H124.572V104.646Z" fill="#003B6A"/>
<path d="M135.523 111.154C137.189 111.154 138.367 110.334 138.705 109.091L137.298 108.837C137.029 109.558 136.383 109.926 135.538 109.926C134.265 109.926 133.41 109.101 133.37 107.629H138.799V107.102C138.799 104.343 137.149 103.264 135.419 103.264C133.291 103.264 131.889 104.885 131.889 107.231C131.889 109.603 133.271 111.154 135.523 111.154ZM133.375 106.516C133.435 105.432 134.22 104.492 135.429 104.492C136.582 104.492 137.338 105.347 137.343 106.516H133.375Z" fill="#003B6A"/>
<path d="M141.444 103.364H139.814L142.16 107.182L139.784 111H141.414L143.13 108.146L144.85 111H146.475L144.074 107.182L146.456 103.364H144.83L143.13 106.337L141.444 103.364Z" fill="#003B6A"/>
<path d="M149.439 103.364H147.982V111H149.439V107.828H152.745V111H154.196V103.364H152.745V106.54H149.439V103.364Z" fill="#003B6A"/>
<path d="M159.402 111.154C161.554 111.154 162.961 109.578 162.961 107.217C162.961 104.84 161.554 103.264 159.402 103.264C157.249 103.264 155.842 104.84 155.842 107.217C155.842 109.578 157.249 111.154 159.402 111.154ZM159.407 109.906C158 109.906 157.343 108.678 157.343 107.212C157.343 105.75 158 104.507 159.407 104.507C160.804 104.507 161.46 105.75 161.46 107.212C161.46 108.678 160.804 109.906 159.407 109.906Z" fill="#003B6A"/>
<path d="M164.019 111H164.496C166.162 111 166.773 109.767 166.893 107.241L167.012 104.646H169.508V111H170.964V103.364H165.635L165.5 106.744C165.406 109.101 165.138 109.712 164.287 109.712H164.014L164.019 111Z" fill="#003B6A"/>
<path d="M176.163 111.154C178.316 111.154 179.723 109.578 179.723 107.217C179.723 104.84 178.316 103.264 176.163 103.264C174.011 103.264 172.604 104.84 172.604 107.217C172.604 109.578 174.011 111.154 176.163 111.154ZM176.168 109.906C174.761 109.906 174.105 108.678 174.105 107.212C174.105 105.75 174.761 104.507 176.168 104.507C177.565 104.507 178.222 105.75 178.222 107.212C178.222 108.678 177.565 109.906 176.168 109.906Z" fill="#003B6A"/>
<path d="M186.264 103.364H181.382V111H182.849V104.646H186.264V103.364Z" fill="#003B6A"/>
<path d="M189.292 108.917V103.364H187.835V111H189.451L192.802 105.442V111H194.259V103.364H192.658L189.292 108.917Z" fill="#003B6A"/>
<path d="M197.714 108.917V103.364H196.257V111H197.873L201.224 105.442V111H202.681V103.364H201.08L197.714 108.917ZM200.443 100.778C200.443 101.28 200.165 101.723 199.469 101.723C198.763 101.723 198.499 101.275 198.499 100.778H197.281C197.281 101.897 198.132 102.668 199.469 102.668C200.816 102.668 201.666 101.897 201.666 100.778H200.443Z" fill="#003B6A"/>
<path d="M76.3578 81.3746C76.6518 81.0087 77.7427 79.9896 78.1085 79.5519C84.5952 72.0455 86.052 66.3618 86.6334 60.9003C87.0711 55.6543 86.9273 50.9179 84.6671 44.6528C82.9164 42.0331 81.4597 39.4787 78.0366 37.6626C75.195 36.859 72.4253 37.8781 69.8057 39.7727C69.7339 39.7727 69.7339 39.8446 69.7339 39.8446C67.1144 42.2487 64.4883 45.1624 61.7185 49.0952C61.3527 49.7485 60.9869 50.6239 60.4774 51.5712C59.4583 53.7598 58.2171 56.4513 57.1262 58.9273C56.473 60.3842 55.8132 61.7692 55.3755 62.8602L54.9378 63.8793L54.866 64.1733L53.1937 59.5806L51.3711 54.4784L50.8616 53.1653L51.3711 51.4863L53.1937 45.1493L54.4348 40.8506C54.5786 40.2692 54.8007 39.7596 54.9444 39.2501C55.7479 36.7741 56.3293 34.2981 57.1327 31.7437C57.786 29.5552 58.5895 27.3013 59.6804 24.8972C59.9744 24.5313 60.2618 24.1655 60.4839 23.8062C61.6467 22.2056 62.7441 20.6703 64.7104 20.0889L66.6767 20.1608C67.1144 20.3763 67.552 20.7422 67.9179 21.3236L68.7213 20.7422C69.3027 19.8668 68.0681 19.1416 67.049 18.4818H60.4904H57.1393H54.9509H53.2002H51.4495H51.3776C50.5023 18.4818 49.9209 18.1878 49.7772 17.1687C49.9209 16.1495 50.5088 15.64 51.3776 15.4178C51.8872 15.2741 52.4686 15.2741 53.2002 15.346C53.4942 15.2022 53.4158 14.9801 53.2002 14.6927C53.1283 14.6927 53.1284 14.6208 53.0565 14.6208L51.3776 14.6927L49.4832 14.7645H49.4114L48.0265 15.7837L47.5888 16.0777C45.7663 17.2405 46.4979 18.1878 47.5888 18.9195C47.7325 19.0632 47.8828 19.1416 48.0265 19.2853C48.536 19.5075 48.9737 19.7231 49.4114 19.9386C50.0646 20.1608 50.7244 20.3045 51.3776 20.3763C51.5214 20.3763 51.6716 20.3763 51.8153 20.4482L53.2002 20.6638L54.9509 20.9578L53.2002 20.7422L52.6188 20.6703C52.1811 20.7422 51.8153 20.9643 51.3776 21.1799C50.7244 21.5457 50.0646 22.0553 49.4114 22.5649C49.3395 22.6368 49.1958 22.787 49.1174 22.8589C48.536 23.3684 48.2421 23.8062 48.0265 24.2439C47.8828 24.6816 47.9546 25.0474 48.0265 25.3349C48.2486 25.7726 48.536 26.06 48.83 26.4259C48.5426 26.7917 48.3205 27.2294 48.0265 27.5887C47.3732 28.6079 46.7135 29.7054 46.1321 30.7246C45.8381 31.2341 45.5507 31.7437 45.3286 32.2533C45.1065 32.5472 44.9628 32.9066 44.7472 33.2005C44.6035 33.5664 44.4532 33.8538 44.2377 34.2197L43.8718 34.9514L43.8 34.8076L42.1995 31.6C41.9774 31.1623 41.7619 30.7246 41.4679 30.3587C40.8146 29.2677 40.1549 28.1702 39.4298 27.0792C39.286 26.857 39.1358 26.6415 38.9921 26.4259C39.1358 26.2821 39.286 26.06 39.4298 25.9163C39.8674 25.263 40.083 24.6032 39.4298 23.6559C39.286 23.4403 38.9921 23.1463 38.6981 22.8523C38.4042 22.6302 38.1167 22.4146 37.8228 22.199C36.9474 21.4739 36.0721 20.8859 35.1249 20.6703L34.0339 20.7422L32.7928 20.9578L31.4797 21.1015L32.7928 20.8859L34.0339 20.6638L35.9284 20.4482C36.5097 20.3763 37.1695 20.2261 37.8228 20.0105C38.4042 19.8668 38.9137 19.6447 39.4232 19.3572C39.6388 19.2135 39.9328 19.1416 40.1483 18.9195C41.2393 18.1159 41.9709 17.1687 40.1483 16.0058L39.4232 15.4962L38.2539 14.6927H37.8162L34.6088 14.549C34.3148 14.9148 34.1711 15.2022 34.4651 15.3525C36.2158 15.0585 37.4504 15.4244 37.8162 16.6656C37.8881 16.8094 37.8881 16.9596 37.96 17.1033C37.8881 17.3255 37.8881 17.4692 37.8162 17.6129C37.5941 18.3446 37.0127 18.4883 36.2876 18.4883H34.0274H32.7862H30.5979H27.3186H20.76C19.7409 19.1416 18.4997 19.8014 19.0811 20.6769L19.8846 21.2583C20.2504 20.7487 20.6881 20.311 21.1258 20.1673L23.0921 20.0954C24.9865 20.6769 26.1493 22.2056 27.3186 23.8127C27.5341 24.1067 27.8281 24.466 28.1221 24.8318C29.213 27.236 30.0165 29.4245 30.5979 31.6065C31.4014 34.2327 31.9827 36.7087 32.7862 39.1847C32.93 39.6943 33.1521 40.2757 33.2958 40.8637L34.0274 43.4116L36.869 52.9562L34.0274 60.6782L32.8581 63.9577L32.7862 63.7421L32.7144 63.6703C32.2767 62.5793 31.4732 60.8284 30.6044 58.862C29.5853 56.5297 28.3442 53.8382 27.3251 51.6496C26.7437 50.6305 26.306 49.6832 25.8684 48.9515C23.2423 44.9468 20.6228 42.0331 18.0033 39.7008C17.9314 39.7008 17.9314 39.629 17.9314 39.629C15.2335 37.7344 12.5421 36.7153 9.7005 37.5123C6.20563 39.2631 4.82075 41.8828 3.07004 44.4307C0.737953 50.7677 0.666099 55.5041 1.03192 60.75C1.68516 66.1397 3.1419 71.8952 9.62864 79.4016C9.99446 79.8393 11.0854 80.8585 11.3793 81.2243C11.6733 81.5902 12.5421 82.6093 12.9079 82.9751L16.9907 86.7643L16.1872 87.0582C15.0963 87.496 13.7833 87.7115 12.3266 87.7834C11.4512 87.7834 10.504 87.7834 9.55679 87.7834C8.60958 87.7115 7.80608 88.0774 7.15284 89.1684C7.4468 90.0438 6.78702 91.1348 5.83981 92.2323C5.18657 92.5982 5.10817 93.1078 5.25842 93.6173L6.06192 95.146L6.49959 94.9305L6.13377 93.4736C6.71516 92.5982 7.66237 91.7228 9.62864 91.2132L17.9314 87.496L18.2254 87.4241L19.3882 88.0055C21.1389 88.8091 23.2488 89.3905 25.8749 89.8282L27.3316 89.9719L30.1733 90.1941L28.6447 92.0886L27.4035 92.2323C27.3316 92.2323 27.3316 92.2323 27.3316 92.2323C23.9086 92.3042 20.9233 92.8856 18.8068 94.1269C17.4219 95.9496 18.663 96.2371 20.6293 96.1652C22.4519 95.6556 23.9805 95.146 25.4372 94.3425C26.0186 94.0485 26.6784 93.9766 27.3316 93.9048C27.3316 93.9048 27.4035 93.9048 27.4753 93.8329C28.4944 93.8329 29.5853 93.8329 30.6109 93.9048C31.336 93.9766 32.0677 93.9766 32.7993 94.0485C33.237 94.1204 33.6028 94.1922 34.0405 94.2641C35.2816 94.4078 36.5881 94.7018 37.8293 95.0677C38.4107 95.1395 38.9202 95.3616 39.4298 95.5054C39.5735 95.5772 39.6453 95.5772 39.7956 95.6491L41.4679 96.0868L41.69 96.1587L41.4679 96.2305L39.4298 97.0341L38.5544 97.3999H38.6263L37.8228 97.6155L38.5479 97.3999L37.8228 97.0341L36.0002 96.0868C35.347 95.7928 34.6872 95.5772 34.0339 95.5054C33.74 95.4335 33.4526 95.4335 33.2305 95.4335C33.0867 95.4335 32.9365 95.3616 32.7928 95.3616C32.0611 95.3616 31.336 95.3616 30.6044 95.4335C29.8728 95.5054 29.0758 95.6491 28.3442 95.9431C26.5216 97.0341 27.397 97.9813 29.0758 98.9286C29.5853 99.1507 30.0949 99.2945 30.6044 99.4382C31.3295 99.5819 31.9893 99.6603 32.7928 99.7322C33.2304 99.7322 33.5963 99.7322 34.0339 99.7322C34.1777 99.7322 34.3998 99.7322 34.5435 99.7322C35.6344 99.5166 36.7319 99.2945 37.8228 98.9286H37.8946L38.1886 98.7849L39.4298 100.314L40.0112 100.967C40.5925 101.699 41.1021 102.496 41.4679 103.443C41.6116 103.737 41.7619 104.024 41.8337 104.39C41.9774 104.756 42.1277 105.122 42.1995 105.481C42.4151 106.063 42.5653 106.5 42.7091 107.01L43.0749 107.813V107.885C42.8593 108.395 42.5653 108.904 42.1995 109.414C41.9774 109.78 41.7619 110.218 41.4679 110.577C40.8146 111.524 40.083 112.471 39.4298 113.125C38.8484 113.706 38.3388 114.144 37.8293 114.366C37.7574 114.366 37.7575 114.366 37.6856 114.438C36.5228 115.091 35.2816 115.313 34.0405 114.876C33.6028 114.732 33.3088 114.51 32.8712 114.294C32.8712 114.222 32.7993 114.222 32.7993 114.222C31.8521 113.928 31.0486 113.131 30.833 112.328C30.6175 111.158 31.3426 110.433 32.7993 110.289C33.1651 110.218 33.5309 110.218 34.0405 110.218H34.1123C37.0258 110.44 37.3198 109.198 37.8293 108.179V108.107H37.9012C38.3388 108.179 38.7047 108.107 38.7765 108.179C38.8484 108.401 38.9921 108.689 39.0705 108.833C39.1423 108.976 39.2926 109.055 39.4363 109.055H39.5082C39.7237 109.055 39.9458 109.198 39.9458 108.911L39.8021 107.454C39.8021 107.382 39.6584 107.31 39.4363 107.31C38.9986 107.239 38.3454 107.239 38.267 107.239C38.1233 107.239 37.973 107.239 37.8293 107.239C37.7574 107.239 37.6856 107.167 37.6072 107.167C37.4635 107.095 37.3132 106.951 37.3132 106.879C37.3132 106.736 37.2414 106.585 37.2414 106.298V102.724C37.2414 102.509 37.3132 102.287 37.3132 102.215C37.3132 102.071 37.3851 101.999 37.5353 101.927C37.6072 101.927 37.6791 101.855 37.8293 101.855C37.9012 101.784 37.973 101.784 38.1167 101.784C38.4107 101.784 39.0639 101.64 39.0639 101.561C39.0639 101.418 38.4107 101.346 38.1886 101.346H37.8228H34.0339H33.9621C33.7465 101.346 33.5963 101.418 33.5963 101.561C33.5963 101.705 33.74 101.784 33.9621 101.784C34.0339 101.784 34.0339 101.784 34.0339 101.784C34.3279 101.784 34.4716 101.855 34.5435 101.927C34.6872 101.927 34.7591 101.999 34.8374 102.071C34.8374 102.215 34.9093 102.287 34.9093 102.509V106.807C34.9093 106.951 34.8374 107.101 34.7656 107.101C34.6937 107.173 34.6219 107.173 34.4716 107.173H34.0339H32.7928H31.9893C31.8456 107.173 31.6953 107.173 31.6235 107.173C31.5516 107.173 31.4797 107.173 31.4797 107.101C31.4797 107.029 31.4797 106.958 31.4797 106.807V102.724C31.4797 102.509 31.4797 102.287 31.5516 102.215C31.5516 102.071 31.6235 101.999 31.7737 101.927C31.8456 101.855 32.0611 101.784 32.2832 101.784C32.5772 101.784 32.7209 101.712 32.7209 101.561C32.7209 101.418 32.6491 101.346 32.427 101.346H30.6044H28.2005C27.9849 101.346 27.5472 101.418 27.5472 101.561C27.5472 101.633 27.6909 101.633 27.8412 101.705C27.913 101.705 28.207 101.777 28.2788 101.777C28.5728 101.777 28.7884 101.849 28.8602 101.921C29.0039 101.993 29.0823 102.064 29.0823 102.136C29.1542 102.28 29.1542 102.43 29.1542 102.718V106.579C29.1542 106.801 29.0823 106.945 29.0105 107.088C28.9386 107.16 28.7165 107.232 28.3572 107.304C28.0633 107.304 27.9196 107.376 27.9196 107.448C27.9196 107.591 27.9914 107.67 28.2135 107.67H30.6175L32.8058 107.598H34.047H35.8696C36.0917 107.598 36.3791 107.67 36.5228 107.742C36.7384 107.813 36.8886 107.885 36.9605 108.029L36.8886 108.173C36.451 109.264 35.36 109.336 34.047 109.12C33.753 109.048 33.4656 108.976 33.2435 108.904C33.0998 108.833 32.9496 108.761 32.8058 108.689C32.0742 108.395 31.3491 108.323 30.6175 108.251C30.3235 108.251 29.9642 108.251 29.5984 108.323L27.41 109.708C27.3382 109.78 27.3382 109.852 27.3382 109.852C27.0442 110.505 27.1226 111.021 27.3382 111.531C27.5537 112.04 27.9195 112.478 28.3572 112.916C29.0105 113.569 29.814 114.079 30.6175 114.516C31.3426 114.954 32.0742 115.248 32.8058 115.535C33.2435 115.679 33.6093 115.901 34.047 116.045C34.1189 116.045 34.1907 116.045 34.2626 116.117C34.7003 116.189 35.1379 116.261 35.6475 116.261C36.3726 116.189 37.1761 115.967 37.8358 115.679C38.2735 115.535 38.7112 115.313 39.0705 115.17C39.2142 115.026 39.2926 114.947 39.4363 114.876C40.0895 114.366 40.7493 113.785 41.4744 112.981C41.6965 112.687 41.984 112.4 42.2061 112.106C42.6437 111.524 43.0814 110.792 43.5191 109.917L43.8131 109.407L44.5447 110.721C44.6165 110.864 44.6884 111.015 44.7603 111.086C44.9758 111.374 45.1261 111.668 45.3416 111.89C45.5572 112.256 45.8512 112.622 46.1451 112.909C46.7984 113.713 47.4582 114.222 48.0396 114.732C48.2617 114.876 48.4772 115.019 48.6209 115.17C48.9149 115.313 49.2023 115.385 49.4244 115.535C50.0777 115.829 50.7375 116.045 51.3907 116.189C51.6063 116.189 51.8284 116.261 52.044 116.261C52.4098 116.261 52.8475 116.189 53.2067 116.117C53.2786 116.117 53.3505 116.117 53.3505 116.117C53.9318 115.973 54.4414 115.751 54.9509 115.607C55.6825 115.241 56.4077 114.954 57.1393 114.516C57.9428 114.079 58.6679 113.569 59.3995 112.916C59.8372 112.406 60.3467 111.897 60.4904 111.237V110.289C60.4904 110.074 60.4186 109.924 60.2749 109.708L58.1649 108.323C57.7991 108.251 57.5116 108.251 57.1458 108.251C56.4207 108.251 55.6891 108.395 54.9574 108.689C54.8137 108.761 54.6635 108.833 54.5198 108.904C54.0102 109.048 53.5726 109.12 53.2067 109.198C52.4751 109.342 51.8219 109.27 51.3842 108.983C51.0184 108.761 50.8028 108.473 50.6525 107.964L49.5616 107.742C50.143 108.473 50.2933 109.492 51.3842 110.002C51.8219 110.146 52.4032 110.296 53.2067 110.218C53.2786 110.218 53.4223 110.218 53.5007 110.218C54.0821 110.218 54.5198 110.218 54.9574 110.289C56.3423 110.433 57.1458 111.165 56.9237 112.328C56.7016 113.125 55.9046 113.928 54.9574 114.222C54.9574 114.222 54.8856 114.222 54.8856 114.294C54.3042 114.66 53.7228 114.876 53.2133 115.026C52.56 115.17 51.9721 115.17 51.3907 114.954C50.8812 114.882 50.4435 114.66 50.0058 114.444C49.8621 114.373 49.64 114.301 49.4244 114.15C49.0586 113.935 48.5491 113.497 48.0396 112.988C47.4582 112.262 46.8049 111.459 46.1451 110.512C45.8512 110.074 45.5637 109.636 45.3416 109.198C45.1195 108.904 44.9758 108.617 44.7603 108.251C44.6884 108.179 44.6165 108.029 44.5447 107.885L44.7603 107.376L44.9758 107.01C45.0477 106.644 45.1914 106.278 45.3416 105.919C45.4854 105.481 45.6356 104.9 45.8512 104.39C45.923 104.024 45.9949 103.809 46.1451 103.515C46.5828 102.567 47.0923 101.692 47.6737 100.967L48.0396 100.529L49.4244 98.9286L49.4963 98.8568L49.8621 98.9286C50.3716 99.0724 50.8812 99.2226 51.3907 99.3663C51.9721 99.5101 52.5535 99.6603 53.1414 99.804H53.2133C53.7947 99.804 54.376 99.804 54.964 99.804C55.7675 99.7322 56.4926 99.6603 57.1523 99.5166C57.7337 99.3729 58.2433 99.1507 58.7528 98.9352C60.4251 98.0597 61.2286 97.0406 59.4844 95.9496C58.6809 95.6556 57.9558 95.5119 57.1523 95.44C56.4272 95.3682 55.6956 95.3682 54.964 95.3682C54.8203 95.3682 54.67 95.44 54.5982 95.44C54.0886 95.44 53.6509 95.5119 53.2133 95.5838C52.56 95.7275 51.9721 95.9496 51.3907 96.2371C51.0249 96.3808 50.7375 96.531 50.3716 96.7466L49.4244 97.1843L49.1305 97.4065H49.2023L49.4179 97.4783L49.1239 97.4065L48.033 96.9687L47.5953 96.825L46.1386 96.2436L45.923 96.1717L46.1386 96.0999L47.9612 95.6621C47.9612 95.5903 48.033 95.5903 48.033 95.5903C48.5426 95.4466 48.9802 95.3028 49.4179 95.1526C50.0712 95.0089 50.7309 94.7867 51.3842 94.643C51.9656 94.5711 52.547 94.4274 53.2067 94.349C53.7881 94.2053 54.3695 94.1334 54.9574 94.055C55.6891 93.9832 56.4142 93.9113 57.1458 93.9113C58.2367 93.8395 59.2623 93.8395 60.3533 93.8395C60.4251 93.9113 60.4251 93.9113 60.497 93.9113C61.0784 93.9832 61.7381 94.055 62.3195 94.2772C63.8481 95.0807 65.3767 95.5903 67.1993 96.1717C69.1656 96.2436 70.4067 95.8777 69.0218 94.1334C66.9119 92.8203 63.92 92.3107 60.497 92.167C60.497 92.167 60.497 92.167 60.4251 92.167L59.1839 92.0233L57.7991 90.3443L60.497 90.1287L61.81 89.985C64.5079 89.6192 66.6179 88.9659 68.3686 88.1623L69.5314 87.5809L69.8253 87.6527L78.1281 91.37C80.0225 91.8796 80.9697 92.755 81.5511 93.7023L81.1853 95.1591L81.623 95.3812L82.4983 93.8525C82.642 93.2711 82.5702 92.7615 81.8451 92.3957C80.8979 91.3047 80.3165 90.2071 80.5321 89.3382C79.9507 88.2472 79.1472 87.8814 78.2 87.9533C77.2527 88.0251 76.3055 88.0251 75.4302 87.9533C73.9735 87.8814 72.5886 87.6658 71.4976 87.2216L70.7725 86.9341L74.8488 83.145C75.195 82.7596 76.0638 81.8123 76.3578 81.3746ZM36.9474 97.916C36.9409 97.9095 36.9344 97.9095 36.9278 97.903L35.6409 98.3537C35.0595 98.4256 34.55 98.4974 34.0405 98.5758C33.5309 98.6477 33.1651 98.6477 32.7993 98.7196H32.7274C30.3235 98.4256 30.7612 96.9687 32.3616 96.825C32.5053 96.7532 32.6556 96.7532 32.7993 96.7532C33.1651 96.7532 33.5309 96.7532 34.0405 96.825C35.053 96.8969 36.2027 97.2562 36.9344 97.903L37.1042 97.8442L36.9474 97.916ZM50.7897 97.916C50.9334 97.7723 51.1555 97.622 51.3711 97.5502C51.8806 97.2627 52.5339 97.0406 53.1937 96.8969C53.7751 96.825 54.4348 96.7532 54.9444 96.7532C55.1599 96.7532 55.3102 96.7532 55.4539 96.825C57.0544 97.0471 57.492 98.504 55.0881 98.7196C55.0162 98.7196 55.0162 98.7196 54.9444 98.7196C54.5067 98.7196 53.8535 98.6477 53.1937 98.5758C52.8279 98.504 52.462 98.4321 52.1027 98.3537C51.8806 98.2819 51.5932 98.21 51.3711 98.1381C51.1555 98.0663 50.8616 97.9944 50.6395 97.9225L49.7641 97.6286L50.7897 97.916ZM54.9378 64.2582L55.0097 64.1864L54.9378 64.3301V64.2582ZM51.3711 64.5457L53.05 68.7725V68.8444C52.5404 69.9354 51.959 71.0264 51.3711 72.052C50.7179 73.143 50.1299 74.2341 49.4048 75.2597C49.333 75.4035 49.1893 75.5472 49.1109 75.7693L48.4576 76.5728L48.02 75.6256L46.1255 71.255L45.5442 69.7982L46.1255 68.1976L46.929 66.1593C47.2949 65.1402 47.6541 64.121 48.02 63.03C48.2421 62.4486 48.4576 61.939 48.6013 61.3511L49.2546 58.8751L49.3983 59.3846L50.7113 63.03L51.3711 64.5457ZM42.193 79.774L41.4614 78.9704L41.0237 78.4609L41.4614 77.6573L42.193 76.4226L43.1402 74.7436L43.7935 73.4305L43.8653 73.2868L44.5186 74.6718L44.7341 75.1095L45.3155 75.9849L46.119 77.4417L46.6285 78.3171L46.119 78.8267L45.3155 79.774L44.7341 80.3554L43.7869 81.4464L43.7151 81.5183L42.193 79.774ZM42.4804 82.7596L42.1865 83.0535L42.0427 83.1254L41.899 83.0535L41.4614 83.4194L40.0765 84.5823C39.8544 84.8044 39.6388 84.9481 39.4232 85.0918C38.9137 85.4577 38.3323 85.8235 37.8228 86.111C36.5097 86.9864 35.1967 87.6397 34.0339 88.1492C33.8184 88.2211 33.5963 88.293 33.3807 88.3714H33.3088L33.8184 87.8618C33.8902 87.7899 33.9621 87.7181 34.0339 87.6462C35.347 86.2612 36.5816 84.8044 37.8228 83.1254C38.1886 82.7596 38.476 82.3218 38.77 81.8841L39.4232 80.9369L39.5669 80.7147L40.586 81.8841L41.4614 82.6812L41.899 83.047L42.193 82.8249L42.4086 82.6812L42.4804 82.7596ZM45.0346 82.6877L45.3286 82.9098L45.6944 83.1973L46.1321 82.8314L47.0793 82.0279L48.0265 81.0087L48.2486 80.7866L48.9737 81.8776C49.1174 82.0932 49.2677 82.3153 49.4114 82.5309C50.0646 83.3345 50.7244 84.1315 51.3776 84.935C51.959 85.6667 52.5404 86.32 53.2002 86.9733C53.4158 87.2673 53.6379 87.4829 53.8535 87.7703L54.7288 88.5739L54.2911 88.502C53.9253 88.3583 53.5595 88.208 53.2002 88.0643C52.6188 87.7703 51.959 87.4829 51.3776 87.1889C50.7244 86.8231 50.0646 86.4572 49.4114 86.0979C48.9737 85.8039 48.536 85.5165 48.0265 85.1506C47.8828 85.0788 47.7391 84.9285 47.5888 84.7848L46.1321 83.6219L45.6944 83.1842L45.6225 83.2561L45.3286 83.0405L44.9628 82.7465L45.0346 82.6877ZM57.7076 21.1211C57.8513 20.8337 57.8513 20.4678 57.7795 20.0301C58.7267 20.0301 59.6739 20.102 60.4774 19.808C60.7713 19.7361 61.0588 19.5859 61.3527 19.3703L63.4692 19.2265V19.7361C62.5939 20.102 61.6467 20.8337 60.5558 21.8463L60.4839 21.9181L59.9025 22.4996L59.9744 22.4277C59.6804 21.99 59.3211 21.7025 58.8835 21.4804L57.4986 21.2648L57.7076 21.1211ZM53.1937 24.1132C53.4876 23.8192 53.7751 23.5318 54.2127 23.3096L54.9444 23.6755L56.0353 24.1851C55.5976 24.5509 55.2318 24.8384 54.9444 25.0605C54.2127 25.5701 53.7032 25.864 53.1937 26.0796C52.8997 26.1515 52.6123 26.2233 52.2465 26.2952L51.8088 25.8575C52.1681 25.2761 52.6058 24.6228 53.1937 24.1132ZM46.1255 36.7153C46.1255 36.7153 46.1255 36.7153 46.1255 36.6434C46.7069 35.3303 47.3667 34.0237 48.02 32.7824C48.5295 31.907 48.9672 31.0316 49.4048 30.2346C49.9862 29.2873 50.4958 28.34 51.0837 27.3927C51.1555 27.4646 51.2993 27.4646 51.3776 27.4646C52.0309 27.6083 52.6188 27.5365 53.2002 27.3927C53.7816 27.1706 54.363 26.8832 54.9509 26.5173C55.4604 26.1515 56.0418 25.7138 56.5514 25.2761L57.1327 25.6419L57.3549 25.7138L57.2111 25.9359C57.1393 26.0078 57.1393 26.0796 57.1393 26.1515C56.4142 27.8305 55.6825 29.5748 54.9509 31.3974C54.3695 32.8543 53.7881 34.383 53.2002 35.9117C52.547 37.5123 51.959 39.1194 51.3776 40.7918C51.0837 41.5235 50.8681 42.2487 50.5742 42.9804L49.4114 46.2599L49.1174 47.2072L48.0265 44.5091L47.1511 42.1768L46.1321 39.8446L45.4788 38.244L46.1255 36.7153ZM43.7935 42.105L43.8653 41.9612L44.7407 44.2935L45.3221 45.6785L45.616 46.4102L46.1255 48.3766L47.5104 53.0411L47.4386 53.5507V53.6226L46.6351 57.1961C46.4914 57.7775 46.3411 58.4308 46.1255 59.0907C45.91 59.9661 45.616 60.9133 45.3221 61.7888C45.1783 62.1546 45.0281 62.4421 44.9562 62.8079L44.7407 63.2456L43.8653 65.6497L43.7935 65.506L42.7744 62.8079C42.6307 62.2265 42.4086 61.7169 42.193 61.1355C41.9709 60.2601 41.6835 59.4565 41.4614 58.6595C41.3176 58.1499 41.2458 57.6403 41.0955 57.2026L40.2202 53.4135L39.9981 52.4662L40.2202 53.1979C40.586 51.6692 41.0237 50.2124 41.4548 48.7555C41.6769 47.952 41.9644 47.2268 42.1865 46.4951C42.5523 45.4041 42.99 44.3131 43.3492 43.2156L43.7935 42.105ZM32.7928 23.7474L33.5963 23.3096C33.74 23.3815 33.8902 23.5252 34.0339 23.5971C34.9093 24.2504 35.4907 25.0539 36.0002 25.8575L35.5625 26.2952C34.9812 26.1515 34.5435 26.0796 34.0339 25.7856C33.5963 25.57 33.3023 25.3479 32.7928 24.9102C32.4988 24.7665 32.2114 24.4725 31.8456 24.1785L32.7928 23.7474ZM29.0039 21.487C28.5663 21.7091 28.2005 21.9965 27.913 22.4342L28.0567 22.6498C27.7628 22.3624 27.5472 22.1402 27.3251 21.8463C26.1623 20.7553 25.2151 20.0954 24.1895 19.7361V19.2265L26.4497 19.3703C26.6719 19.5859 26.9593 19.7361 27.3251 19.808C28.1286 20.102 29.0039 20.0301 30.023 20.0301C29.9511 20.3959 29.9512 20.7618 30.0949 21.0492L30.3888 21.2714L29.0039 21.487ZM34.0339 34.4549C33.5963 33.3639 33.2304 32.2663 32.7928 31.1753C32.0611 29.4245 31.336 27.6802 30.6044 25.9294C30.6044 25.9294 30.6044 25.9294 30.6044 25.8575L30.5325 25.7138L30.6044 25.6419L31.3295 25.2761C31.839 25.6419 32.2767 26.0078 32.7862 26.3671C33.2239 26.6611 33.5897 26.9485 34.0274 27.1706C34.8309 27.5365 35.6997 27.6802 36.7253 27.3927C37.0911 28.046 37.457 28.634 37.8162 29.2873C38.3976 30.2346 38.9072 31.1819 39.4167 32.1291C39.6323 32.5668 39.9262 33.0764 40.1418 33.5141L41.4548 36.356L42.1865 37.9565L42.3302 38.3224L42.1865 38.6098L41.4548 40.3607L40.6513 42.2552L39.4102 45.3845L38.6785 47.2791L37.8032 44.8749L37.1499 42.9085C36.1439 39.9948 35.1249 37.2248 34.0339 34.4549ZM36.9474 62.8732L37.8228 60.2535L38.4042 58.6529L39.1358 61.2792C39.2077 61.5732 39.3514 61.9325 39.4298 62.2265C39.8674 63.6115 40.3051 64.9246 40.7428 66.1593L41.4679 67.982L42.1995 69.8047L41.4679 71.4771L39.4298 76.2854L39.286 76.6512L38.5544 75.5602C38.3388 75.2728 38.0449 74.9069 37.8293 74.5411C36.66 72.6465 35.5691 70.6801 34.55 68.6418L36.9474 62.8732ZM32.7209 64.0361L32.7928 64.108V64.1798L32.7209 64.108C32.7209 64.0361 32.7209 64.0361 32.7209 64.0361ZM18.0751 86.2547L17.9314 86.111L16.037 84.6541C15.0898 83.7787 14.2863 82.9033 13.7049 81.8841L13.633 81.662L14.2863 81.8841C14.8677 82.0279 15.5993 82.0279 16.9058 81.8123C17.1998 81.6686 17.5591 81.5183 17.9249 81.3746C19.8193 80.4992 21.4916 79.3363 22.9483 77.8076C24.4051 75.4753 25.8618 72.9993 26.7372 69.8635C27.103 68.4066 27.103 67.3156 27.0311 66.6558C26.809 64.5457 26.1558 62.3571 24.9211 60.3188C24.2679 58.7183 22.883 57.1896 20.9168 55.6543C19.6756 55.2166 18.6565 54.7789 17.9314 54.1975C17.1998 53.616 16.6184 53.0346 16.1807 52.3748C15.1616 51.0616 15.3054 49.8269 16.4028 48.7294C18.0033 46.3253 17.5656 45.084 16.1089 44.287L15.5993 44.7965C17.6375 45.6001 16.9123 46.9851 15.8867 48.4419C15.0179 49.1736 14.0707 49.8269 13.633 50.7742C12.9014 52.231 13.1235 53.1783 13.633 54.0537C13.7768 54.3477 14.2144 55.0729 14.8742 55.5825C15.3837 55.9483 16.1154 56.1639 16.8405 56.1639C17.2063 56.1639 17.5721 56.2357 17.9314 56.2357C18.8068 56.3076 19.6037 56.4579 20.3354 56.7453C20.9886 57.477 21.7202 58.1303 22.0861 58.9339C23.9086 63.814 24.6337 68.7725 22.9614 75.1813C22.2363 77.5136 20.7012 79.3363 17.9379 79.774C17.4284 79.8459 16.9189 79.8459 16.3375 79.8459C15.6842 79.774 15.1747 79.6237 14.6586 79.48L13.3456 78.7549V78.6111C13.9989 77.6639 14.6586 76.8603 16.0435 77.0106C16.7752 77.1543 17.4284 77.2327 17.9379 77.2327C20.6358 77.3045 21.4328 75.9196 21.0735 73.3717L20.27 73.2998C20.6359 75.5602 19.7605 76.2854 17.9379 75.9979C17.7224 75.9261 17.5003 75.8542 17.2847 75.8542C15.0963 74.613 14.5149 73.4501 13.424 73.1561C12.0391 72.7903 10.7261 73.3782 10.1447 74.5411C3.37054 65.506 4.46146 53.2698 5.04285 45.5478C5.11471 44.3784 6.42773 40.9552 8.10004 39.8642C10.504 36.8786 13.2738 37.8977 16.2591 40.6677C16.8405 41.321 17.4219 41.9808 17.9379 42.706C19.6103 44.8161 21.361 47.2987 22.8177 49.9902C24.2744 52.7602 25.803 55.5302 27.3316 58.6595C27.913 60.0445 28.5728 61.5013 29.226 63.03L30.6109 66.8191L31.2642 68.4916L30.6109 69.8047L29.8074 71.6274C29.1542 73.1561 28.4226 74.6848 27.3316 76.4357C25.8749 78.7679 23.8368 81.3876 20.6293 84.739C19.8977 85.2486 19.1726 85.6863 18.4409 86.124L18.0751 86.2547ZM29.8074 89.0247C29.3698 89.0247 28.9321 89.0247 28.4944 89.0247C28.0567 89.0247 27.6909 89.0247 27.3316 88.9528C24.5619 88.8091 21.8705 88.0774 19.1726 87.1301L19.1007 87.0582L19.3947 86.9145C22.2363 85.1637 24.8558 83.1254 27.3382 80.5057C28.5009 79.2644 29.5984 77.886 30.6175 76.3507C31.0551 75.6974 31.4928 75.0376 31.8586 74.3843L32.8058 72.7837L33.1717 72.0586L34.047 73.4436L35.9414 76.2854L37.8358 78.6177L38.2017 79.0554L37.8358 79.4931L34.047 85.033L33.6093 85.6145L32.8058 86.7055L31.2054 88.7437L30.624 88.8156L29.8074 89.0247ZM46.1255 97.622C46.6351 97.7658 47.0728 97.9879 47.5104 98.1316L48.02 98.2753L48.3858 98.4191L48.02 98.6346V98.7065C47.5823 99.1442 47.0728 99.7256 46.6351 100.307C46.4914 100.523 46.2693 100.817 46.1255 101.032C45.8316 101.542 45.5442 102.051 45.3221 102.561C45.0999 102.927 44.9562 103.286 44.7407 103.652C44.5251 104.233 44.3748 104.743 44.1593 105.324L43.7935 106.2L43.4276 105.324C43.1337 104.305 42.696 103.286 42.1865 102.267C41.9644 101.901 41.7488 101.463 41.4548 101.026C41.3111 100.804 41.089 100.516 40.9453 100.301C40.5795 99.7191 40.0699 99.1311 39.6323 98.7L39.4167 98.5563L39.273 98.4125L39.4167 98.3407L40.1418 98.1251C40.5795 97.9814 41.0171 97.7592 41.4548 97.6155C41.7488 97.5436 41.9644 97.4718 42.1865 97.3999C42.3302 97.3281 42.4804 97.2562 42.5523 97.2562L43.7935 96.8185L44.7407 97.1843L45.1783 97.3281C45.1783 97.3281 45.2502 97.3281 45.3221 97.3281C45.5442 97.4064 45.8316 97.5502 46.1255 97.622ZM57.1262 92.0821C56.4011 92.154 55.6695 92.2258 54.9378 92.3042C54.3565 92.3761 53.7751 92.4479 53.1871 92.5982C52.5339 92.6701 51.946 92.7419 51.3646 92.8922C50.7113 93.0359 50.0516 93.1862 49.3983 93.3299C49.1044 93.4736 48.7451 93.552 48.4511 93.6239L48.0134 93.7676L46.119 94.4993L45.3155 94.8651L44.7341 95.0089L43.7869 95.3747L43.7151 95.4466L42.1865 94.7933L41.4548 94.4993L39.4167 93.6957L39.273 93.6239C38.7635 93.4801 38.3258 93.3299 37.8162 93.258C36.5751 92.8922 35.3404 92.6766 34.0274 92.5263C33.5897 92.4545 33.2239 92.3826 32.7862 92.3107C32.0546 92.2389 31.3295 92.2389 30.5979 92.167C30.4542 92.167 30.232 92.0952 30.0165 92.0952C30.1602 91.8012 30.3823 91.5856 30.5979 91.2916C30.8918 90.9258 31.1793 90.5664 31.5451 90.2006L31.9827 89.7629L32.7862 89.5408L33.5897 89.3252C33.7335 89.2533 33.8837 89.2533 34.0274 89.1815C35.4123 88.7437 36.7253 88.306 37.8162 87.7246C38.3976 87.4306 38.9072 87.1432 39.4167 86.8492C40.1418 86.4833 40.8016 85.9738 41.4548 85.5361C41.5985 85.4642 41.7488 85.3139 41.8925 85.2421L42.1865 84.9481L43.7151 83.7068L43.7869 83.7787L44.7341 84.5757L45.3155 84.9416L46.119 85.6733L46.7004 86.111C47.1381 86.3984 47.5757 86.6924 48.0134 86.9864C48.523 87.202 48.9606 87.496 49.3983 87.7181C50.0516 88.0121 50.6395 88.2995 51.3646 88.5935C51.946 88.8156 52.5274 89.0312 53.1871 89.2468C53.4811 89.3186 53.6967 89.4689 53.9906 89.5408L54.9378 89.7629L56.1006 90.0503L56.2443 90.1222C56.5383 90.4881 56.8257 90.8474 57.1197 91.2132C57.3418 91.5072 57.5574 91.7946 57.7729 92.0168C57.5639 92.0821 57.3418 92.0821 57.1262 92.0821ZM68.5646 87.2804C65.8667 88.2995 63.2471 89.0312 60.4774 89.1749C60.0397 89.2468 59.6739 89.2468 59.2362 89.2468C58.7985 89.2468 58.3609 89.2468 57.9232 89.1749L57.1197 89.0312L56.7539 88.9593L54.9313 86.6989L53.9841 85.5361L53.1806 84.2229L51.3581 81.5967L49.6073 79.1207L51.3581 76.9322L51.7239 76.4226L53.1806 74.234L54.5655 72.1958L54.9313 72.9993L55.8067 74.528C56.2443 75.2597 56.682 75.913 57.1197 76.5663C58.1388 78.1669 59.3081 79.5519 60.4708 80.7931C62.8748 83.341 65.4943 85.3858 68.3425 87.0582L68.6364 87.202L68.5646 87.2804ZM74.0257 50.9245C73.6599 49.9772 72.6408 49.3239 71.7655 48.5922C70.7464 47.1353 70.0866 45.7504 72.0594 45.0187L71.5499 44.5091C70.165 45.2408 69.6555 46.4755 71.2559 48.8796C72.275 50.0425 72.4971 51.2119 71.4715 52.525C71.1057 53.1783 70.5243 53.8382 69.7927 54.4196C68.9892 55.001 68.042 55.4387 66.8073 55.8764C64.8411 57.3333 63.3843 58.862 62.7311 60.4691C61.5683 62.5074 60.9085 64.7678 60.6929 66.8061C60.6211 67.5378 60.6211 68.5569 60.9869 70.0138C61.7904 73.1496 63.2471 75.6974 64.7757 77.9578C66.2325 79.4865 67.9113 80.6559 69.7992 81.5967C70.0932 81.7404 70.4525 81.8907 70.8183 82.0344C72.0594 82.1781 72.7845 82.1781 73.3659 82.1063L74.0192 81.8188L73.9473 82.1063C73.4378 83.0535 72.5624 84.0008 71.6152 84.8044L69.7927 86.2612L69.649 86.405L69.2831 86.2612C68.5515 85.8235 67.8264 85.3858 67.0948 84.8762C63.8873 81.5967 61.921 79.0488 60.4643 76.7884C59.3015 74.9657 58.5699 73.3652 57.9166 71.8365L57.1132 70.0856L56.4599 68.6288L57.1132 66.8779L58.498 63.2325C59.1513 61.632 59.8111 60.1686 60.4643 58.7117C61.921 55.6543 63.4496 52.8843 64.9064 50.1144C66.3631 47.4163 68.0354 44.9403 69.7861 42.8301C70.2957 42.0984 70.8771 41.4451 71.3866 40.7918C74.4438 38.0219 77.2136 37.0027 79.6175 39.9883C81.218 41.1512 82.6028 44.581 82.6747 45.7438C83.2561 53.3939 84.3535 65.6367 77.5728 74.6652C76.9196 73.5024 75.6784 72.9144 74.2217 73.2802C73.2026 73.6461 72.5494 74.7371 70.4329 75.9784C70.2173 75.9784 69.9952 76.0502 69.7796 76.1221C67.9571 76.4161 67.0817 75.6844 67.4475 73.4305L66.644 73.5024C66.2064 76.0502 67.0817 77.4352 69.7796 77.3633C70.2891 77.3633 70.9424 77.2915 71.6022 77.1477C73.0589 77.004 73.7122 77.8794 74.3001 78.7483L74.3719 78.892L73.0589 79.6172C72.4775 79.8393 71.8961 79.983 71.3082 79.983C70.7987 79.983 70.2173 79.9831 69.7796 79.9112C67.0098 79.4735 65.4094 77.6508 64.7561 75.3185C63.0054 68.9032 63.8089 63.9512 65.6315 59.1429C65.9255 58.2675 66.7224 57.6861 67.3822 57.0328C68.0354 56.5951 68.8389 56.5232 69.7861 56.3795C70.152 56.3795 70.5178 56.3795 70.8771 56.3076C71.5303 56.3076 72.2619 56.1639 72.7715 55.7262C73.5031 55.2166 73.9343 54.4849 74.0845 54.1975C74.5352 53.3286 74.7574 52.3813 74.0257 50.9245Z" fill="#003B6A"/>
<path d="M54.7225 102.215C54.7225 101.999 54.7225 101.927 54.7943 101.849C54.7943 101.849 54.8662 101.777 54.938 101.777C55.0099 101.777 55.1536 101.705 55.3038 101.705C55.8852 101.705 56.251 101.777 56.545 101.849C56.6887 101.993 56.9108 102.064 57.1264 102.215C57.1982 102.215 57.1982 102.287 57.2701 102.287C57.5641 102.43 57.8515 103.449 58.0736 103.449C58.5831 103.887 58.7268 102.287 58.5113 101.849C58.3675 101.411 58.2173 101.196 58.0736 101.117C58.0017 101.045 57.7078 101.045 57.3485 101.045H57.1264H54.938H53.1873H51.3648H49.3985H48.9609C48.595 101.045 48.3795 101.045 48.2358 101.117C48.1639 101.189 48.092 101.261 48.0136 101.333C48.0136 101.476 47.9418 101.627 47.8699 101.842C47.7981 101.986 47.7981 102.136 47.7981 102.136C47.6544 102.43 47.7981 103.155 48.0136 103.378C48.1574 103.521 48.2358 103.521 48.3076 103.449C48.5297 103.449 48.8171 102.43 49.0392 102.287C49.183 102.215 49.3332 102.143 49.4051 102.071C49.6206 101.999 49.699 101.927 49.8427 101.855C50.0583 101.784 50.496 101.712 51.0055 101.712C51.1492 101.712 51.2276 101.712 51.3713 101.784C51.4432 101.784 51.5869 101.855 51.5869 101.855C51.6587 101.927 51.6587 101.999 51.6587 102.221V106.736C51.6587 106.879 51.6587 106.958 51.5869 107.029C51.5869 107.101 51.515 107.173 51.3713 107.245H51.2276C51.0839 107.317 50.9336 107.389 50.8618 107.389C50.8618 107.461 49.9146 107.683 49.9146 107.755C49.9146 107.827 50.2085 107.898 50.5678 107.898C50.8618 107.898 51.1492 107.898 51.3713 107.898C51.4432 107.898 51.515 107.898 51.5869 107.898H53.1873H54.7159C54.7878 107.898 54.8596 107.898 54.9315 107.898C55.5847 107.898 56.4601 107.97 56.4601 107.755C56.4601 107.683 55.5129 107.461 55.441 107.389C55.3692 107.317 55.2973 107.317 55.1471 107.245H55.0033C54.9315 107.245 54.9315 107.245 54.9315 107.245C54.7878 107.173 54.7159 107.101 54.7159 107.029C54.7159 106.958 54.7159 106.886 54.7159 106.736V102.215H54.7225Z" fill="#003B6A"/>
<path d="M39.4232 12.6021C39.6388 12.8177 39.8609 13.0399 40.0765 13.2554C40.0765 14.2746 40.6579 14.7123 41.4614 14.5686C41.6835 14.5686 41.9709 14.4967 42.193 14.353C42.487 13.7715 42.8463 13.3338 43.5061 13.7715C43.6498 13.8434 43.7216 13.9937 43.8 14.0655C44.1658 14.2811 44.4533 14.5032 44.7472 14.647C44.9628 14.7188 45.1131 14.7907 45.3286 14.8691C45.4005 14.8691 45.4723 14.8691 45.5442 14.8691C45.6879 14.8691 45.91 14.8691 46.0537 14.8691H46.1256C46.6351 14.7972 47.1447 14.5751 47.7979 14.2158C47.8698 14.1439 47.9416 14.0721 48.0135 13.9218C48.5949 13.3404 49.1044 12.7524 49.3984 12.0272C49.7642 11.374 50.0516 10.6423 50.13 9.84524C50.13 9.55126 49.9079 9.26381 49.3984 8.96982C49.0326 8.7477 48.523 8.53212 48.0135 8.38839C47.6477 8.24467 47.21 8.02254 46.8507 7.87882C46.6351 7.95068 46.413 7.87882 46.1191 7.80696C45.8251 7.73509 45.5377 7.58484 45.3156 7.36925C45.1718 7.29739 45.0935 7.22552 45.0216 7.0818L45.3156 6.57223L45.3874 6.4285C45.603 6.20638 45.897 5.9908 46.1191 5.77521C46.9944 4.97165 47.6477 4.31836 48.0135 3.73692C49.1828 2.28007 49.0326 1.47652 48.0135 1.03881C47.5758 0.823225 46.9226 0.74483 46.1191 0.672967C45.8251 0.672967 45.6095 0.601104 45.3156 0.601104C45.0935 0.601104 44.9497 0.601104 44.7342 0.601104C44.4402 0.601104 44.1528 0.601105 43.787 0.672967L42.696 1.11068C42.5523 0.816692 42.4021 0.601104 42.1865 0.450846C41.9644 0.235259 41.7488 0.0850011 41.4548 0.0850011C41.089 0.0131386 40.8016 0.156863 40.4358 0.594571L39.5604 1.32626C39.4886 1.61371 39.6323 1.9077 39.7041 2.12328L40.2137 2.9987C39.9197 3.22082 39.6323 3.43641 39.4102 3.58013C38.6785 4.16157 38.169 4.67114 37.8097 5.18071C37.2283 6.05612 37.0062 6.85968 37.0062 7.95068C36.9344 8.89796 37.2937 9.84524 37.8097 10.6488C38.2539 11.3609 38.8419 12.0142 39.4232 12.6021ZM43.7935 10.5573C43.5714 10.9232 43.4277 11.4327 43.2839 11.6483C43.0618 11.6483 43.4277 9.68192 43.2121 9.4598C43.284 9.09395 43.4342 8.95023 43.6498 8.87836C43.7216 8.87836 43.7935 8.87836 43.7935 8.87836C44.0875 8.87836 44.5251 8.87836 44.7407 9.02209C45.0347 9.09395 45.1065 9.30954 44.7407 9.53166C44.6688 9.67538 44.5251 9.75378 44.303 9.82564C44.1593 9.9759 43.9372 10.2699 43.7935 10.5573ZM45.3221 9.83217C45.3221 9.76031 45.3939 9.76031 45.5377 9.68845C45.6814 9.61659 45.9035 9.54472 46.1191 9.54472C46.7723 9.401 47.3602 9.54472 47.7914 9.76684C47.8632 9.83871 47.9351 9.91057 48.007 9.91057C48.3728 10.1327 48.5883 10.492 48.5883 11.1518C48.6602 11.2956 48.4446 11.8051 48.007 12.3212C47.7195 12.7589 47.2034 13.1966 46.8442 13.3404C46.5502 13.4122 46.3346 13.4122 46.1125 13.4122C45.7467 13.3404 45.5311 13.2685 45.309 13.1183C45.0869 12.9745 44.8714 12.7524 44.7276 12.465C44.7276 12.3931 44.6558 12.2428 44.5839 12.171C44.5121 11.5177 44.5121 10.8578 44.7276 10.3483C44.8844 10.1196 45.0347 9.9759 45.3221 9.83217ZM43.2839 2.25394C43.4277 2.11022 43.6498 2.03835 43.7935 1.96649C44.0875 1.89463 44.4467 1.89463 44.7407 2.11022C44.8126 2.11022 44.8844 2.18208 45.0347 2.25394C45.1065 2.25394 45.1784 2.32581 45.3286 2.39767C45.7663 2.76351 46.0537 3.27308 45.8382 3.92638C45.6944 4.22036 45.4723 4.57968 45.3286 4.87366C45.1065 5.01738 44.9628 5.23951 44.7472 5.38323C44.4533 5.67721 44.1658 5.8928 43.8 6.03653C43.5061 6.18025 43.2186 6.32398 42.9247 6.32398L42.5588 3.04443L43.2839 2.25394ZM39.4232 5.09578C39.7891 4.8018 40.2267 4.51435 40.7363 4.29223C41.0302 6.76822 40.88 9.31607 40.5926 11.8705C40.1549 11.5046 39.7891 11.2172 39.4298 10.9232C38.4826 9.9759 37.973 9.02862 37.973 7.93762C37.9665 6.91847 38.4042 5.89933 39.4232 5.09578Z" fill="#003B6A"/>
</svg>
